<svg id="Layer_1" data-name="Layer 1" xmlns="http://www.w3.org/2000/svg" viewBox="0 0 2231.93 2483.55"><defs><style>.cls-1{fill:#f4f4f4;}.cls-2{fill:#fff;}</style></defs><title>android</title><path class="cls-1" d="M764,1518.52a156,156,0,0,1,156,156V2344A156,156,0,0,1,608,2344V1674.56a156,156,0,0,1,156-156Z" transform="translate(-0.04 -16.44)"/><path class="cls-1" d="M407.77,713.73c-.52,5.91-1,11.9-1,17.94V1745.86c0,109.07,86.33,196.94,193.5,196.94H1631.67c107.19,0,193.52-87.88,193.52-196.94V731.67c0-6-.21-12-.72-17.94Z" transform="translate(-0.04 -16.44)"/><path class="cls-1" d="M1468,1518.52a156,156,0,0,1,156,156V2344a156,156,0,1,1-312.08,0V1674.56a156,156,0,0,1,156-156ZM156.09,804a156,156,0,0,1,156,156v669.39a156,156,0,0,1-312.08,0V960A156.05,156.05,0,0,1,156.09,804Zm1919.84,0a156.05,156.05,0,0,1,156,156v669.39a156,156,0,0,1-312.08,0V960a156.06,156.06,0,0,1,156-156.06ZM412.33,647.1c4.34-311.52,276.24-566.94,625.25-600.6h156.83c349,33.68,620.91,289.11,625.25,600.6Z" transform="translate(-0.04 -16.44)"/><path class="cls-1" d="M466.6,16.44,631.2,301.55M1765.42,16.44,1600.81,301.55" transform="translate(-0.04 -16.44)"/><path class="cls-2" d="M906.38,367.93c.13,43.54-35.91,78.95-80.51,79.07s-80.82-35.09-81-78.63v-.44c-.12-43.56,35.92-78.95,80.5-79.07s80.83,35.06,81,78.63Zm602.61,0c.14,43.54-35.9,78.95-80.5,79.07s-80.82-35.09-81-78.63v-.44c-.12-43.56,35.92-78.95,80.5-79.07s80.82,35.06,81,78.63Z" transform="translate(-0.04 -16.44)"/></svg>