<svg id="Layer_1" data-name="Layer 1" xmlns="http://www.w3.org/2000/svg" viewBox="0 0 2038 2499.9"><defs><style>.cls-1{fill:#e0e2e2;}</style></defs><title>apple</title><path class="cls-1" d="M1124.47,217.6C1288.73,1.11,1517.08.05,1517.08.05s34,203.54-129.21,399.61C1213.63,609,1015.59,574.77,1015.59,574.77S978.41,410.11,1124.47,217.6Zm-88,499.75c84.51,0,241.33-116.16,445.47-116.16,351.38,0,489.61,250,489.61,250S1701.2,989.45,1701.2,1324.86c0,378.37,336.8,508.76,336.8,508.76s-235.43,662.66-553.44,662.66c-146,0-259.6-98.43-413.5-98.43-156.83,0-312.46,102.1-413.82,102.1C366.86,2500,0,1871.36,0,1366.07,0,868.94,310.52,608.15,601.78,608.15c189.34,0,336.27,109.19,434.7,109.19Z" transform="translate(0 -0.05)"/></svg>