<svg id="Camada_1" data-name="Camada 1" xmlns="http://www.w3.org/2000/svg" viewBox="0 0 405.75 405.25"><defs><style>.cls-1{fill:#04d361;}.cls-2{fill:#fff;}.cls-3{fill:#371a45;}.cls-4{opacity:0.35;}.cls-5{fill:#341a42;}.cls-6{fill:#7758e0;}.cls-7{opacity:0.7;}.cls-8{fill:#111a28;}.cls-9{opacity:0.5;}.cls-10{fill:#c5d3e2;}.cls-11{opacity:0.6;}.cls-12{fill:#595959;}.cls-13{fill:#db2c2c;}.cls-14{fill:#22a7f0;}.cls-15{opacity:0.15;}.cls-16{opacity:0.2;}.cls-17{fill:#102770;}.cls-18{opacity:0.3;}.cls-19{fill:#06000a;}.cls-20{fill:#fff2bd;}</style></defs><path class="cls-1" d="M403.93,476.42c58.33-35.31,97.51-100.72,97.51-175.59,0-112.33-88.17-203.39-196.94-203.39S107.56,188.5,107.56,300.83c0,74.87,39.18,140.28,97.51,175.59,30.06-.56,63.79-.88,99.43-.88S373.87,475.86,403.93,476.42Z" transform="translate(-104.29 -97.44)"/><path class="cls-2" d="M425.14,423a123.34,123.34,0,0,0-18.21-32.16V378.11A24.14,24.14,0,0,0,399.54,361l.16-1.34a17.45,17.45,0,0,0-4.39-13.79,19.3,19.3,0,0,0-14.43-6.38h-.55c.46-.6.92-1.2,1.37-1.81s1-1.22,1.44-1.75a87.82,87.82,0,0,0,13.21-26.07,24.68,24.68,0,0,0,21.11-25.59l-.86-18.17a24.68,24.68,0,0,0-23.73-23.51,96.36,96.36,0,0,0-86.12-58.23h-2.43A96.27,96.27,0,0,0,212.87,251a24.69,24.69,0,0,0-21.45,25.64l.85,18.17a24.66,24.66,0,0,0,23.82,23.52,96.1,96.1,0,0,0,12.49,21.1h-.46a19.3,19.3,0,0,0-14.43,6.38,17.44,17.44,0,0,0-4.46,13.06,27.49,27.49,0,0,0-4.77,4.93,23.67,23.67,0,0,0-4.89,14.29V394.3A122.54,122.54,0,0,0,184,423c-5.94,15.7-6.2,28-.78,36.63H181.4a199.53,199.53,0,0,0,23.68,16.84c30.06-.56,63.79-.88,99.43-.88s69.37.32,99.43.88a199.53,199.53,0,0,0,23.68-16.84h-1.68C431.35,451,431.08,438.65,425.14,423Z" transform="translate(-104.29 -97.44)"/><path class="cls-2" d="M423.65,188.09a44.66,44.66,0,0,0,11.52,29.59,1.34,1.34,0,0,1,.13,1.61l-6.48,11.09a7.62,7.62,0,0,0,10.42,10.42l16.67-9.74a1.11,1.11,0,0,1,.59-.16,1.13,1.13,0,0,1,.26,0A44.93,44.93,0,0,0,468,232.45h.37a44.38,44.38,0,0,0,20-4.76A204.13,204.13,0,0,0,440,153.25,44.75,44.75,0,0,0,423.65,188.09Z" transform="translate(-104.29 -97.44)"/><path class="cls-2" d="M401.67,378.11v65.83a18,18,0,0,1-2.22,8.61c-3.9,7.23-12.54,12.29-22.51,12.29H229.56c-8.39,0-15.83-3.57-20.3-9A18.64,18.64,0,0,1,204.83,444V378.11A18.4,18.4,0,0,1,208.67,367c4.38-5.86,12.12-9.77,20.89-9.77H376.94a27.3,27.3,0,0,1,3.5.22C392.4,358.87,401.67,367.62,401.67,378.11Z" transform="translate(-104.29 -97.44)"/><path class="cls-3" d="M376.94,467.05H229.56c-8.72,0-16.95-3.66-22-9.81a20.71,20.71,0,0,1-4.94-13.3V378.11a20.7,20.7,0,0,1,4.29-12.47c5-6.66,13.46-10.64,22.66-10.64H376.94a29.69,29.69,0,0,1,3.77.23c13.21,1.59,23.17,11.43,23.17,22.88v65.83a20.16,20.16,0,0,1-2.48,9.67C397,461.77,387.39,467.05,376.94,467.05ZM229.56,359.42c-7.81,0-15,3.32-19.12,8.88a16.29,16.29,0,0,0-3.4,9.81v65.83a16.45,16.45,0,0,0,4,10.49c4.23,5.13,11.18,8.19,18.6,8.19H376.94c8.85,0,16.92-4.36,20.56-11.12a15.62,15.62,0,0,0,1.95-7.56V378.11c0-9.21-8.29-17.16-19.28-18.49a26.8,26.8,0,0,0-3.23-.2Z" transform="translate(-104.29 -97.44)"/><path class="cls-2" d="M305.12,338.91c50.36,8.33,97.32,38.92,115.1,85.91,14.38,38-11.73,40-11.73,40H200.64s-26.1-2-11.73-40c17.79-47,64.75-77.58,115.1-85.91" transform="translate(-104.29 -97.44)"/><g class="cls-4"><path class="cls-3" d="M408.49,464.84H200.64s-18.26-1.44-15.82-24.13l.12.81c1.75,11.11,16.88,13.28,21.93,3.23l2.28-4.54H399.83l2.45,4.78c5.1,10,20.07,7.76,21.89-3.3.06-.32.1-.64.14-1C426.76,463.4,408.49,464.84,408.49,464.84Z" transform="translate(-104.29 -97.44)"/></g><path class="cls-2" d="M192.14,442.1s9.94-30,36.72-30.07c24.7-.08,34.14,12.25,28.35,29.17-2.88,8.42-33.66,16.38-48.06-1" transform="translate(-104.29 -97.44)"/><g class="cls-4"><path class="cls-3" d="M257.21,441.2c-2.88,8.42-33.66,16.38-48.06-1h0a3.81,3.81,0,0,1,5.92-3.16c15.57,10.15,39.61,3.11,42.14-4.28a30.51,30.51,0,0,0,1.24-4.71A24.88,24.88,0,0,1,257.21,441.2Z" transform="translate(-104.29 -97.44)"/></g><path class="cls-3" d="M191.44,441.87a21.13,21.13,0,0,1,2.81-9.64A40.52,40.52,0,0,1,200,424a51.55,51.55,0,0,1,7.39-6.93,37.22,37.22,0,0,1,9-5,34.32,34.32,0,0,1,10-2.2l2.56-.09h2.49c1.66.06,3.33.16,5,.36a42.05,42.05,0,0,1,9.9,2.25,25.12,25.12,0,0,1,9,5.45,18.72,18.72,0,0,1,5.25,9.4,24.56,24.56,0,0,1-.12,10.52c-.16.85-.4,1.67-.63,2.5l-.38,1.22-.1.31a2.54,2.54,0,0,1-.16.38l-.36.79a12.74,12.74,0,0,1-4.08,4.15,31.85,31.85,0,0,1-9.51,4.09,44.35,44.35,0,0,1-20.14.59c-.84-.18-1.67-.37-2.49-.62s-1.64-.52-2.45-.79-1.61-.63-2.42-.94a15.81,15.81,0,0,1-2.35-1.12,18.14,18.14,0,0,1-4.21-3.14,10.3,10.3,0,0,1-2.61-4.58.82.82,0,0,1,.59-1h0a.76.76,0,0,1,.47,0h.08a14,14,0,0,1,2.24,1.07c.72.34,1.32.78,2,1.14.32.2.63.4.93.61s.64.37,1,.57.61.41.93.59.63.38.94.57a24.1,24.1,0,0,0,8.3,3.25,39.92,39.92,0,0,0,18.09-.55,27.24,27.24,0,0,0,8.16-3.46,8.89,8.89,0,0,0,2.68-2.61,2.88,2.88,0,0,1,.13-.31c0-.06,0-.08.08-.17l.08-.27.34-1.08c.19-.72.41-1.44.55-2.17a20.1,20.1,0,0,0,.13-8.63,14.15,14.15,0,0,0-4-7.2,20.76,20.76,0,0,0-7.41-4.47,38,38,0,0,0-8.87-2c-1.53-.18-3.08-.27-4.63-.34H229l-2.26.08a29.5,29.5,0,0,0-8.75,1.92A34.73,34.73,0,0,0,203.51,427c-.95,1.21-1.86,2.44-2.72,3.72s-1.72,2.55-2.55,3.85a68.53,68.53,0,0,1-5.4,7.8h0a.78.78,0,0,1-1.09.1A.75.75,0,0,1,191.44,441.87Z" transform="translate(-104.29 -97.44)"/><path class="cls-2" d="M416.85,442.1s-10-30-36.72-30.07c-24.71,0-34.13,12.25-28.36,29.17,2.88,8.42,33.66,16.38,48.06-1" transform="translate(-104.29 -97.44)"/><path class="cls-2" d="M416.85,442.1s-10-30-36.72-30.07c-24.71,0-34.13,12.25-28.36,29.17,2.88,8.42,33.66,16.38,48.06-1Z" transform="translate(-104.29 -97.44)"/><g class="cls-4"><path class="cls-3" d="M399.83,440.21c-14.4,17.37-45.17,9.41-48.06,1a24.84,24.84,0,0,1-1.24-13.14,33.31,33.31,0,0,0,1.24,4.71c2.53,7.39,26.57,14.43,42.14,4.28a3.8,3.8,0,0,1,5.28,1.06,3.74,3.74,0,0,1,.64,2.1Z" transform="translate(-104.29 -97.44)"/></g><path class="cls-3" d="M416.14,442.33a67.19,67.19,0,0,1-5.39-7.8c-.84-1.3-1.68-2.59-2.56-3.85s-1.77-2.51-2.72-3.72A34.78,34.78,0,0,0,391,416.25a29.5,29.5,0,0,0-8.75-1.92l-2.26-.08h-2.34c-1.55.07-3.1.16-4.63.34a38,38,0,0,0-8.87,2,20.76,20.76,0,0,0-7.41,4.47,14.15,14.15,0,0,0-4,7.2,20.1,20.1,0,0,0,.13,8.63c.14.73.36,1.45.55,2.17l.34,1.08.08.27c0,.09.06.11.08.17a1.69,1.69,0,0,1,.13.31,8.93,8.93,0,0,0,2.69,2.61,27.59,27.59,0,0,0,8.16,3.5,39.92,39.92,0,0,0,18.09.55,24.1,24.1,0,0,0,8.3-3.25c.31-.19.62-.39.94-.57s.62-.4.93-.59.64-.37.95-.57L395,442c.66-.36,1.26-.8,2-1.14a14,14,0,0,1,2.24-1.07h.09a.82.82,0,0,1,1,.59.72.72,0,0,1,0,.41,10.34,10.34,0,0,1-2.6,4.58,17.3,17.3,0,0,1-4.17,3.14c-.76.44-1.58.75-2.36,1.12a22.86,22.86,0,0,1-2.42.94c-.82.28-1.62.58-2.45.79s-1.65.44-2.48.62a44.4,44.4,0,0,1-20.15-.59,32.1,32.1,0,0,1-9.51-4.09,12.74,12.74,0,0,1-4.08-4.15l-.36-.79-.16-.38-.1-.31-.38-1.22c-.22-.83-.47-1.65-.63-2.5a24.56,24.56,0,0,1-.12-10.52,18.72,18.72,0,0,1,5.25-9.4,25.12,25.12,0,0,1,9-5.45,42.05,42.05,0,0,1,9.9-2.25c1.66-.2,3.33-.3,5-.36H380l2.56.09a34.32,34.32,0,0,1,10,2.2,37.44,37.44,0,0,1,8.95,5A51,51,0,0,1,409,424a40.16,40.16,0,0,1,5.77,8.22,21.26,21.26,0,0,1,2.82,9.64.78.78,0,0,1-1.37.51Z" transform="translate(-104.29 -97.44)"/><path class="cls-3" d="M408.58,467.05H200.47a20.41,20.41,0,0,1-14.64-9c-4.93-7.76-4.59-19.2,1-34,16.93-44.74,61.69-78.19,116.81-87.3a2,2,0,0,1,.92,0,2,2,0,0,1,.91,0c55.13,9.11,99.88,42.56,116.82,87.3,5.59,14.79,5.93,26.23,1,34a20.41,20.41,0,0,1-14.64,9Zm-103.53-4.43H408.39a15.8,15.8,0,0,0,11.21-7c4-6.44,3.55-16.81-1.45-30-16.37-43.27-59.82-75.65-113.39-84.5h-.39c-53.56,8.85-97,41.23-113.39,84.5-5,13.19-5.49,23.56-1.45,30a15.88,15.88,0,0,0,11.22,7Z" transform="translate(-104.29 -97.44)"/><path class="cls-2" d="M393.71,304.8h0a1.86,1.86,0,0,1-1.93-1.77l-2.51-53.28a1.84,1.84,0,0,1,1.75-1.93h0a19.42,19.42,0,0,1,20.32,18.48h0l.86,18.17A19.44,19.44,0,0,1,393.71,304.8Z" transform="translate(-104.29 -97.44)"/><path class="cls-3" d="M393.63,305.2a2.26,2.26,0,0,1-2.25-2.15l-2.51-53.28a2.25,2.25,0,0,1,2.14-2.35,19.84,19.84,0,0,1,20.74,18.87l.85,18.17a19.82,19.82,0,0,1-18.87,20.73h-.1Zm-1.68-57h-.9a1.47,1.47,0,0,0-1.39,1.52L392.17,303a1.48,1.48,0,0,0,1.53,1.39h0a19.06,19.06,0,0,0,18.11-19.91L411,266.33a19.06,19.06,0,0,0-19-18.14Z" transform="translate(-104.29 -97.44)"/><g class="cls-4"><path class="cls-3" d="M411.8,276l.41,8.52a19.44,19.44,0,0,1-18.5,20.32,1.85,1.85,0,0,1-1.93-1.77h0l-.68-14.16a1.89,1.89,0,0,0,1.74,1l1.26-.07A19.39,19.39,0,0,0,411.8,276Z" transform="translate(-104.29 -97.44)"/></g><path class="cls-3" d="M393.62,307a4.08,4.08,0,0,1-4.06-3.87l-2.5-53.28a4.08,4.08,0,0,1,3.87-4.26,21.67,21.67,0,0,1,22.63,20.6l.86,18.17A21.67,21.67,0,0,1,393.82,307Zm-2.12-57,2.5,52.56a17.22,17.22,0,0,0,16-18l-.85-18.17A17.24,17.24,0,0,0,391.5,250Z" transform="translate(-104.29 -97.44)"/><path class="cls-2" d="M215.16,256.1h0a1.85,1.85,0,0,1,1.94,1.76h0l2.51,53.28a1.85,1.85,0,0,1-1.76,1.94h0a19.43,19.43,0,0,1-20.32-18.49l-.86-18.17A19.43,19.43,0,0,1,215.16,256.1Z" transform="translate(-104.29 -97.44)"/><path class="cls-3" d="M216.92,313.5a19.85,19.85,0,0,1-19.79-18.9l-.85-18.16a19.82,19.82,0,0,1,18.86-20.74h0a2.25,2.25,0,0,1,2.35,2.14l2.5,53.28a2.26,2.26,0,0,1-2.14,2.36Zm-1.74-57a19,19,0,0,0-18.11,19.85v0l.86,18.17a19,19,0,0,0,19.85,18.11h.05a1.45,1.45,0,0,0,1.38-1.52h0l-2.51-53.28a1.45,1.45,0,0,0-1.52-1.38Z" transform="translate(-104.29 -97.44)"/><g class="cls-4"><path class="cls-3" d="M218.92,296.36l.69,14.78a1.85,1.85,0,0,1-1.76,1.94h0a19.42,19.42,0,0,1-20.32-18.46v0l-.36-7.66a19.43,19.43,0,0,0,18.21,10.57l2-.09A1.89,1.89,0,0,0,218.92,296.36Z" transform="translate(-104.29 -97.44)"/></g><path class="cls-3" d="M216.92,315.31a21.65,21.65,0,0,1-21.6-20.62l-.86-18.17a21.66,21.66,0,0,1,20.6-22.63h0a4.07,4.07,0,0,1,4.25,3.87L221.82,311a4.07,4.07,0,0,1-3.87,4.25A5.94,5.94,0,0,1,216.92,315.31Zm-2-57a17.22,17.22,0,0,0-16,18l.85,18.17a17.23,17.23,0,0,0,17.64,16.4Z" transform="translate(-104.29 -97.44)"/><circle class="cls-2" cx="200.16" cy="183.01" r="90.89"/><path class="cls-3" d="M304.48,371.74h-2.21a91.29,91.29,0,1,1,93.45-89.08h0A91.41,91.41,0,0,1,304.48,371.74ZM304.39,190a90.5,90.5,0,1,0,90.53,92.66h0A90.49,90.49,0,0,0,306.65,190h-2.26Z" transform="translate(-104.29 -97.44)"/><g class="cls-4"><path class="cls-3" d="M394.75,270a90.9,90.9,0,1,1-181.17,8.25c0-1.44.1-2.88.2-4.31a90.9,90.9,0,0,0,181-3.94Z" transform="translate(-104.29 -97.44)"/></g><path class="cls-5" d="M304.48,373.56h-2.26a93.12,93.12,0,1,1,95.31-90.88v0h0A93.23,93.23,0,0,1,304.48,373.56Zm-.09-181.79a88.46,88.46,0,1,0,2.18,0Zm90.93,90.85Z" transform="translate(-104.29 -97.44)"/><path class="cls-6" d="M395,285a81.46,81.46,0,0,1-16.07,47.82c-7.49,10.18-38.08,27.84-75.66,27.84-34.85,0-66.38-18.85-73.7-29.16a81.53,81.53,0,0,1-15.22-48.1c.42-47.06,41-66.22,90.91-65.78S395.39,237.88,395,285Z" transform="translate(-104.29 -97.44)"/><path class="cls-3" d="M303.22,362.83c-36,0-67.82-19.29-75.48-30.1a83.62,83.62,0,0,1-15.63-49.4c.2-23,9.59-40.71,27.91-52.54,16-10.33,38.56-15.68,65.23-15.43s49.14,6,64.95,16.58c18.11,12.15,27.19,30,27,53h0a83.69,83.69,0,0,1-16.51,49.11c-7.37,10-37.66,28.74-77.44,28.75Zm.34-143c-25.08,0-46.19,5.08-61.13,14.73-17,11-25.71,27.41-25.9,48.86a79.31,79.31,0,0,0,14.82,46.8c7,9.85,37.83,28.23,71.87,28.23h0c37.73,0,67.18-17.85,73.88-26.94A79.34,79.34,0,0,0,392.74,285c.51-58.09-61.05-64.91-87.55-65.14ZM395,285Z" transform="translate(-104.29 -97.44)"/><g class="cls-7"><ellipse class="cls-2" cx="365.7" cy="278.32" rx="16.09" ry="11.66" transform="matrix(0.19, -0.98, 0.98, 0.19, -80.4, 488.07)"/></g><g class="cls-7"><ellipse class="cls-2" cx="351.43" cy="308.85" rx="7.4" ry="6.36" transform="translate(-157.73 445.86) rotate(-71.38)"/></g><g class="cls-4"><path class="cls-8" d="M377.79,240.88C388.74,251.52,395.14,266,395,285a81.53,81.53,0,0,1-16.07,47.82c-7.49,10.18-38.08,27.83-75.66,27.84A112,112,0,0,1,266,353.93c46.19-1,83.45-22.67,92.75-35.3a103.49,103.49,0,0,0,20.39-60.69A92,92,0,0,0,377.79,240.88Z" transform="translate(-104.29 -97.44)"/></g><path class="cls-3" d="M387.56,245.82a2.17,2.17,0,0,1-1.4-.51l-.23-.19-.19-.26c-15.14-21.63-44.64-34.22-80.95-34.54-36.48-.34-66.21,12.15-81.48,34.21l-.11.15a2.22,2.22,0,0,1-3.49-2.73c16.13-23.25,47.18-36.4,85.12-36.06,37.73.34,68.53,13.6,84.51,36.39a2.22,2.22,0,0,1-1.78,3.54Z" transform="translate(-104.29 -97.44)"/><g class="cls-7"><path class="cls-2" d="M234.36,311.53s-14.17-46.56,11-64.84,61.19-17.89,60.32-15.59c0,0-39.94,9.3-55.81,40.67C237.65,296,234.36,311.53,234.36,311.53Z" transform="translate(-104.29 -97.44)"/></g><path class="cls-3" d="M126.42,482a164.06,164.06,0,0,1,22.26-1.6c3.71-.08,7.42-.09,11.13-.07l11.13.09q11.13.09,22.26.07h256l5.56-.06,5.57-.09c7.42,0,14.84,0,22.26,1.66a.78.78,0,0,1,.59.93.8.8,0,0,1-.59.59c-7.42,1.62-14.84,1.69-22.26,1.66l-5.57-.09L449.2,485h-256q-11.13,0-22.26.07c-3.71,0-7.42.1-11.13.09s-7.42,0-11.13-.07a164.06,164.06,0,0,1-22.26-1.6.77.77,0,0,1,0-1.52Z" transform="translate(-104.29 -97.44)"/><rect class="cls-6" x="48.38" y="367.4" width="303.65" height="17.07" rx="7.55"/><path class="cls-3" d="M447.93,482.23H161.07a8.73,8.73,0,0,1-8.71-8.72v-.27a8.73,8.73,0,0,1,8.71-8.72H447.93a8.73,8.73,0,0,1,8.71,8.72v.27A8.73,8.73,0,0,1,447.93,482.23ZM161.07,465.16a8.1,8.1,0,0,0-8.08,8.08v.27a8.1,8.1,0,0,0,8.08,8.08H447.93a8.1,8.1,0,0,0,8.08-8.08v-.27a8.1,8.1,0,0,0-8.08-8.08Z" transform="translate(-104.29 -97.44)"/><path class="cls-3" d="M447.93,484.12H161.07a10.62,10.62,0,0,1-10.61-10.61v-.27a10.62,10.62,0,0,1,10.61-10.62H447.93a10.62,10.62,0,0,1,10.61,10.62v.27A10.62,10.62,0,0,1,447.93,484.12ZM161.07,467.05a6.2,6.2,0,0,0-6.18,6.19v.27a6.18,6.18,0,0,0,6.18,6.18H447.93a6.18,6.18,0,0,0,6.18-6.18v-.27a6.2,6.2,0,0,0-6.18-6.19Z" transform="translate(-104.29 -97.44)"/><g class="cls-9"><path class="cls-2" d="M448.06,467.37H160.94a5.92,5.92,0,0,0-5.82,6,6,6,0,0,0,3.42,5.47,6.15,6.15,0,0,1-1-3.31,5.93,5.93,0,0,1,5.82-6H188c1.28,1.46,5.4,2.53,10.3,2.53s9-1.07,10.3-2.53H450.51a5.69,5.69,0,0,1,2.4.54A5.77,5.77,0,0,0,448.06,467.37Z" transform="translate(-104.29 -97.44)"/></g><path class="cls-10" d="M209.89,450.13H399v1.63a12.4,12.4,0,0,1-12.4,12.4H222.29a12.4,12.4,0,0,1-12.4-12.4v-1.63Z" transform="translate(-104.29 -97.44)"/><g class="cls-4"><path class="cls-3" d="M399,450.13v.68a13.35,13.35,0,0,1-13.35,13.35H223.24a13.35,13.35,0,0,1-13.35-13.35h0v-.68h.6a13.35,13.35,0,0,0,12.75,9.41H385.66a13.35,13.35,0,0,0,12.75-9.41Z" transform="translate(-104.29 -97.44)"/></g><path class="cls-3" d="M385.66,466.37H223.24a15.58,15.58,0,0,1-15.56-15.56v-2.9H401.22v2.9A15.58,15.58,0,0,1,385.66,466.37Zm-173.45-14a11.15,11.15,0,0,0,11,9.6H385.66a11.15,11.15,0,0,0,11-9.6Z" transform="translate(-104.29 -97.44)"/><g class="cls-11"><path class="cls-2" d="M218.42,454.55H395.84a11.29,11.29,0,0,0,.53-1.89H212.53a11,11,0,0,0,7.68,8.58,11.15,11.15,0,0,1-3.3-4.33,1.69,1.69,0,0,1,1.51-2.36Z" transform="translate(-104.29 -97.44)"/></g><path class="cls-12" d="M369.82,464H239.18c-7,0-12.83-4.93-13.6-11.45L214.52,359c-.9-7.62,5.45-14.29,13.6-14.29H380.88c8.15,0,14.5,6.67,13.6,14.29l-11.06,93.56C382.65,459.08,376.79,464,369.82,464Z" transform="translate(-104.29 -97.44)"/><g class="cls-11"><path class="cls-2" d="M313.63,414.53h.08a.88.88,0,0,1,1.09,1.28,12.06,12.06,0,1,1-7.74-18.12.84.84,0,0,1,.64,1,.85.85,0,0,1-.48.58h0a8.3,8.3,0,0,0,6.44,15.29Z" transform="translate(-104.29 -97.44)"/></g><path class="cls-3" d="M372,369a12.22,12.22,0,0,0-.49-3.65c-.12-.11-.24-.24-.37-.35a8.24,8.24,0,0,0-1.1-.22,23.08,23.08,0,0,0-7.86.47,16.78,16.78,0,0,0-8.73,4.92c-.86.94-1.62,2-2.4,2.95a.6.6,0,0,1-.75.29,7.16,7.16,0,0,0-2.65-.19,11.16,11.16,0,0,0-6.18,2.88,23.73,23.73,0,0,0-4.7,5.9,1.22,1.22,0,0,0,.16,1.72,1.26,1.26,0,0,0,.75.28l2,.33,4.83.8v.2a1.61,1.61,0,0,0,.46,2.23l.07,0a1.75,1.75,0,0,1,.24.23l1.31,1.25c-.46.47-.91.89-1.29,1.36a1.77,1.77,0,0,0-.39.87,1.08,1.08,0,0,0,.71,1.13,1.16,1.16,0,0,0,1.32-.24c.47-.46.91-.94,1.39-1.43.61.59,1.18,1.15,1.76,1.7a1.4,1.4,0,0,0,1.89.33c.14-.07.29-.13.47-.2a1.94,1.94,0,0,0,.11.46c.44,2.2.88,4.41,1.33,6.61a1.2,1.2,0,0,0,1.31,1.1,1.19,1.19,0,0,0,.69-.29c.79-.53,1.58-1.08,2.35-1.67a16.65,16.65,0,0,0,4.49-4.82,9.2,9.2,0,0,0,1.16-7.75.41.41,0,0,1,.12-.38c.77-.69,1.58-1.34,2.36-2a15.77,15.77,0,0,0,4-5.62A21.07,21.07,0,0,0,372,369Zm-26.52,13.82-5.78-1c1.64-2.37,3.44-4.5,6.11-5.68a5.93,5.93,0,0,1,3.42-.49Zm16.32,6.88a8.91,8.91,0,0,1-1.82,4,19.27,19.27,0,0,1-4.05,3.81c-.4-2-.81-4-1.2-5.95l7-4a5.14,5.14,0,0,1,0,2.14Zm7.2-15.06a15.11,15.11,0,0,1-2.62,5.59,20,20,0,0,1-3.46,3.36,59.7,59.7,0,0,1-11.24,6.65c-.2.09-.32.1-.48-.07-.35-.36-.74-.71-1.1-1.07A.2.2,0,0,0,350,389l.29-.3,6.29-6.51a1.21,1.21,0,1,0-1.68-1.74l-.06.06-3.77,3.9-2.84,2.94c-.45-.44-.88-.83-1.28-1.25a.51.51,0,0,1,0-.42c1-2.07,2-4.15,3-6.19a35.46,35.46,0,0,1,3.63-5.75,15.87,15.87,0,0,1,4.62-4.32,15.62,15.62,0,0,1,3.81-1.57.56.56,0,0,1,.43.16q2.48,2.37,4.93,4.76l1.48,1.42A.44.44,0,0,1,369,374.64Zm.44-2.63-4.84-4.68v-.13l4.78-.14a21.48,21.48,0,0,1,0,4.94Z" transform="translate(-104.29 -97.44)"/><path class="cls-2" d="M368.84,374.16l-1.48-1.42q-2.46-2.39-4.93-4.76a.56.56,0,0,0-.43-.16,15.62,15.62,0,0,0-3.81,1.57,15.87,15.87,0,0,0-4.62,4.32,35.46,35.46,0,0,0-3.63,5.75c-1,2-2,4.12-3,6.19a.51.51,0,0,0,0,.42c.4.42.83.81,1.28,1.25l2.84-2.94,3.77-3.9a1.21,1.21,0,0,1,1.8,1.62l-.06.06-6.29,6.51-.29.3a.16.16,0,0,0,.08.13c.36.36.75.71,1.1,1.07.16.17.28.16.48.07a59.7,59.7,0,0,0,11.24-6.65,20,20,0,0,0,3.46-3.36,15.11,15.11,0,0,0,2.62-5.59A.44.44,0,0,0,368.84,374.16Zm-3.73,3.36a4.12,4.12,0,1,1-.15-5.82h0A4.14,4.14,0,0,1,365.11,377.52Z" transform="translate(-104.29 -97.44)"/><path class="cls-13" d="M369.42,372l-4.84-4.68v-.13l4.79-.14A22.14,22.14,0,0,1,369.42,372Z" transform="translate(-104.29 -97.44)"/><path class="cls-13" d="M349.19,375.69l-3.74,7.13-5.79-1c1.65-2.37,3.44-4.5,6.11-5.68A5.83,5.83,0,0,1,349.19,375.69Z" transform="translate(-104.29 -97.44)"/><path class="cls-13" d="M359.94,393.72a19.18,19.18,0,0,1-4.05,3.79l-1.2-5.94,7-4a4.83,4.83,0,0,1,.07,2.14A8.89,8.89,0,0,1,359.94,393.72Z" transform="translate(-104.29 -97.44)"/><path class="cls-3" d="M365,371.71a4.11,4.11,0,1,0,.13,5.81h0A4.11,4.11,0,0,0,365,371.71Zm-1.32,4.49a2.17,2.17,0,1,1,0-3.09,2.18,2.18,0,0,1,0,3.09l0,0Z" transform="translate(-104.29 -97.44)"/><path class="cls-14" d="M363.66,376.2a2.17,2.17,0,1,1,0-3.09,2.18,2.18,0,0,1,0,3.09Z" transform="translate(-104.29 -97.44)"/><g class="cls-4"><path class="cls-3" d="M377.1,452.82l11.06-93.55a9.14,9.14,0,0,0-2.22-7.11,11,11,0,0,0-8-3.74h0C373.42,364,348.21,450.59,228.73,453.89a10.54,10.54,0,0,0,10.48,7.73H366.44C371.93,461.59,376.51,457.82,377.1,452.82Z" transform="translate(-104.29 -97.44)"/></g><g class="cls-11"><path class="cls-2" d="M231.85,454.4l-11.06-93.56a9.72,9.72,0,0,1,2.35-7.52,11.54,11.54,0,0,1,8.82-3.94H384.72a11.79,11.79,0,0,1,3.44.51,10.43,10.43,0,0,0-.75-1,11.54,11.54,0,0,0-8.82-3.95H225.84a11.55,11.55,0,0,0-8.84,4,9.67,9.67,0,0,0-2.35,7.51L225.73,450a10.56,10.56,0,0,0,7.72,8.72A9.73,9.73,0,0,1,231.85,454.4Z" transform="translate(-104.29 -97.44)"/></g><path class="cls-3" d="M369.82,466.22H239.18c-8.1,0-14.89-5.76-15.8-13.4l-11.06-93.56a14.43,14.43,0,0,1,3.65-11.4,16.22,16.22,0,0,1,12.15-5.37H380.88A16.23,16.23,0,0,1,393,347.86a14.43,14.43,0,0,1,3.65,11.4l-11.06,93.56C384.71,460.46,377.92,466.22,369.82,466.22Zm-141.7-119.3a11.81,11.81,0,0,0-8.84,3.88,10.05,10.05,0,0,0-2.56,7.94l11.06,93.56c.64,5.41,5.54,9.49,11.4,9.49H369.82c5.86,0,10.76-4.08,11.4-9.49l11.06-93.56a10.05,10.05,0,0,0-2.56-7.94,11.81,11.81,0,0,0-8.84-3.88Z" transform="translate(-104.29 -97.44)"/><g class="cls-4"><path class="cls-3" d="M165.52,481.91H448.06a8.4,8.4,0,0,0,8.27-8.53h0a8.4,8.4,0,0,0-8.27-8.53H334.3c-4.5,2.53-38.2,18.24-177.3,14.16Z" transform="translate(-104.29 -97.44)"/></g><g class="cls-15"><rect class="cls-2" x="135.17" y="268.39" width="19.59" height="39.2" rx="8.66"/></g><path class="cls-6" d="M315.15,413h.08a.88.88,0,0,1,1.16.48.86.86,0,0,1-.06.81,12.07,12.07,0,1,1-7.75-18.12.83.83,0,0,1,.63,1,.81.81,0,0,1-.47.58h0A8.29,8.29,0,0,0,315.15,413Z" transform="translate(-104.29 -97.44)"/><path class="cls-6" d="M435.4,236.51a2.28,2.28,0,0,1-2.32-2.24,2.4,2.4,0,0,1,.32-1.2L439.9,222a6.68,6.68,0,0,0-.78-7.87,39.38,39.38,0,0,1,28.47-65.75h.78a39.37,39.37,0,0,1,39.39,39.35c0,.22,0,.44,0,.65a39.57,39.57,0,0,1-39.39,38.75H468a39.21,39.21,0,0,1-9.87-1.35,6.51,6.51,0,0,0-4.92.68l-16.68,9.73A2.35,2.35,0,0,1,435.4,236.51Z" transform="translate(-104.29 -97.44)"/><path class="cls-3" d="M468.37,150.64a37.1,37.1,0,1,1,0,74.2H468a37,37,0,0,1-9.3-1.26,8.46,8.46,0,0,0-2.24-.3,8.73,8.73,0,0,0-4.43,1.21l-16.67,9.73,6.48-11.09a9,9,0,0,0-1.06-10.55,37.09,37.09,0,0,1,26.82-61.93h.73m0-4.57h-.82a41.66,41.66,0,0,0-30.12,69.56,4.4,4.4,0,0,1,.5,5.18l-6.48,11.1a4.57,4.57,0,0,0,6.25,6.25l16.68-9.74a4.11,4.11,0,0,1,3.17-.44A41.76,41.76,0,0,0,468,229.41h.36a41.67,41.67,0,0,0,.71-83.34h-.7Z" transform="translate(-104.29 -97.44)"/><g class="cls-16"><path class="cls-17" d="M505.42,186a7,7,0,0,0-.07-1.21l-.06-.62a9.89,9.89,0,0,0-.13-1.22,1.39,1.39,0,0,0-.07-.53c-.08-.54-.17-1.07-.27-1.6a3.38,3.38,0,0,0-.14-.69c-.05-.23-.13-.63-.21-.94s-.13-.55-.2-.82l-.21-.76c-.08-.29-.16-.59-.25-.88l-.18-.52c-.22-.68-.46-1.36-.72-2a.82.82,0,0,0-.11-.28c-.15-.37-.3-.73-.46-1.1l-.15-.32c-.17-.38-.34-.76-.53-1.13v-.08a37.06,37.06,0,0,0-2.86-4.82,37.1,37.1,0,0,1-20.46,48.33,37.53,37.53,0,0,1-5.66,1.78c-17.2,3.81-27.22.59-33.31-5.42,0,0-2.47-5.86-2.5-5.9A36.15,36.15,0,0,1,434,201.7h0c.14.34.28.68.43,1h0a37.19,37.19,0,0,0,6.41,9.88,9,9,0,0,1,1.06,10.55l-6.48,11.09,16.67-9.73a8.74,8.74,0,0,1,6.67-.91,37,37,0,0,0,9.3,1.26h1.74c.57,0,1.07-.05,1.6-.1h.24l1.45-.17h.37c.45-.06.9-.14,1.35-.22l.44-.08c.42-.08.85-.17,1.27-.27l.49-.11c.4-.09.8-.2,1.2-.31l.53-.15c.39-.11.77-.24,1.15-.36l.55-.18,1.1-.41.56-.22c.36-.14.71-.29,1.05-.44l.58-.26c.34-.15.67-.31,1-.48l.59-.29c.32-.17.64-.34.95-.52l.59-.33.92-.55.58-.37c.3-.18.59-.38.87-.58s.4-.26.59-.4l.83-.61.57-.45c.27-.2.53-.41.79-.63l.57-.48.74-.66c.19-.17.38-.34.56-.52l.7-.68.55-.56c.22-.23.44-.46.65-.7s.36-.39.53-.59l.62-.72.51-.63L498,210c.17-.22.33-.44.49-.67l.53-.75.47-.7.49-.77c.15-.24.29-.49.44-.74s.3-.51.44-.77l.42-.78.4-.78c.13-.27.26-.54.38-.81s.25-.53.36-.79.24-.56.35-.85.22-.53.32-.8l.32-.87.28-.81.27-.91.24-.8c.08-.32.16-.64.23-1s.14-.53.2-.79.13-.67.19-1,.11-.52.15-.78.11-.71.16-1.07.07-.49.1-.74c0-.4.08-.81.11-1.21l.06-.63c0-.61.07-1.23.08-1.86s0-1.18,0-1.77Z" transform="translate(-104.29 -97.44)"/></g><g class="cls-9"><path class="cls-2" d="M485.86,177c-4.07-4.07-10.87-4-15.5.13A12.38,12.38,0,0,0,463,174a10.36,10.36,0,0,0-8.15,3,11.39,11.39,0,0,0,0,16.08l12.51,12.5a4.2,4.2,0,0,0,5.95,0l.05,0L485.86,193A11.38,11.38,0,0,0,485.86,177Z" transform="translate(-104.29 -97.44)"/></g><g class="cls-9"><path class="cls-2" d="M433.26,190.7A37.11,37.11,0,0,1,499,166.8a37.1,37.1,0,1,0-61.36,41.72q1,1.42,2.07,2.76A36.88,36.88,0,0,1,433.26,190.7Z" transform="translate(-104.29 -97.44)"/></g><path class="cls-2" d="M454.05,176.13h0c3.79-3.79,9.94-3.11,13.73.68l.59.59.59-.59c3.79-3.79,9.93-4.47,13.72-.68h0a9.69,9.69,0,0,1,0,13.7l0,0-.59.59-11.91,11.91a2.56,2.56,0,0,1-3.62,0l-11.92-11.91-.59-.59A9.71,9.71,0,0,1,454.05,176.13Z" transform="translate(-104.29 -97.44)"/><path class="cls-3" d="M468.37,204.63a4.08,4.08,0,0,1-2.89-1.19L453,190.93a11.26,11.26,0,0,1,0-15.88h0c4-4,10.83-3.9,15.4.22,4.57-4.12,11.35-4.26,15.39-.22a11.24,11.24,0,0,1,0,15.88l-12.51,12.51A4.07,4.07,0,0,1,468.37,204.63Zm-8.08-29.49a7.2,7.2,0,0,0-5.16,2.07h0a8.18,8.18,0,0,0,0,11.55l0,0,12.5,12.51a1.05,1.05,0,0,0,1.47,0l12.51-12.51a8.19,8.19,0,0,0,0-11.57c-3-3-8.2-2.7-11.58.67l-.59.59a1.51,1.51,0,0,1-2.14,0h0l-.59-.59A9.16,9.16,0,0,0,460.29,175.14Zm-6.24,1Z" transform="translate(-104.29 -97.44)"/><g class="cls-18"><path class="cls-19" d="M502.43,488.69c0,7.71-89.13,14-199.07,14s-199.07-6.26-199.07-14c0-2.17,7-4.23,19.63-6.06H482.79C495.38,484.46,502.43,486.52,502.43,488.69Z" transform="translate(-104.29 -97.44)"/></g><path class="cls-20" d="M187.57,336.8l-5.35.83a2.5,2.5,0,0,0-2.08,2.08l-.83,5.36-.82-5.36a2.5,2.5,0,0,0-2.09-2.08l-5.35-.83,5.35-.82a2.5,2.5,0,0,0,2.09-2.08l.82-5.36.83,5.36a2.5,2.5,0,0,0,2.08,2.08Z" transform="translate(-104.29 -97.44)"/><path class="cls-20" d="M166.32,372.11l-5,.78a2.31,2.31,0,0,0-1.95,1.95l-.77,5-.78-5a2.31,2.31,0,0,0-1.95-1.95l-5-.78,5-.77a2.32,2.32,0,0,0,1.95-2l.78-5,.77,5a2.36,2.36,0,0,0,1.95,2Z" transform="translate(-104.29 -97.44)"/><path class="cls-20" d="M149.34,310.84l-3.75.58a1.74,1.74,0,0,0-1.46,1.45l-.57,3.75-.58-3.75a1.74,1.74,0,0,0-1.46-1.45l-3.75-.58,3.75-.58a1.74,1.74,0,0,0,1.46-1.45l.58-3.75.57,3.75a1.74,1.74,0,0,0,1.46,1.45Z" transform="translate(-104.29 -97.44)"/><path class="cls-20" d="M465.82,322.9l5.5.85a2.57,2.57,0,0,1,2.14,2.14l.85,5.5.85-5.5a2.57,2.57,0,0,1,2.14-2.14l5.5-.85-5.5-.85a2.57,2.57,0,0,1-2.14-2.14l-.85-5.5-.85,5.5a2.55,2.55,0,0,1-2.14,2.14Z" transform="translate(-104.29 -97.44)"/><path class="cls-20" d="M432.73,358.3l5.16.8a2.4,2.4,0,0,1,2,2l.8,5.17.8-5.17a2.4,2.4,0,0,1,2-2l5.16-.8-5.16-.8a2.4,2.4,0,0,1-2-2l-.8-5.16-.8,5.16a2.4,2.4,0,0,1-2,2Z" transform="translate(-104.29 -97.44)"/><path class="cls-20" d="M444.53,292.93l3.85.6a1.76,1.76,0,0,1,1.49,1.49l.6,3.85.59-3.85a1.78,1.78,0,0,1,1.5-1.49l3.85-.6-3.85-.59a1.8,1.8,0,0,1-1.5-1.5l-.59-3.85-.6,3.85a1.78,1.78,0,0,1-1.49,1.5Z" transform="translate(-104.29 -97.44)"/><path class="cls-20" d="M208,188l-4.2.65a2,2,0,0,0-1.63,1.63l-.64,4.2-.65-4.2a2,2,0,0,0-1.63-1.63l-4.2-.65,4.2-.64a2,2,0,0,0,1.63-1.63l.65-4.2.64,4.2a2,2,0,0,0,1.63,1.63Z" transform="translate(-104.29 -97.44)"/><path class="cls-20" d="M178.12,221.71l-4.35.68a2,2,0,0,0-1.69,1.69l-.68,4.35-.67-4.35a2,2,0,0,0-1.69-1.69l-4.36-.68L169,221a2,2,0,0,0,1.69-1.69l.67-4.35.68,4.35a2,2,0,0,0,1.69,1.69Z" transform="translate(-104.29 -97.44)"/><path class="cls-20" d="M374.79,162.07l4.19.65a2,2,0,0,1,1.63,1.63l.65,4.2.65-4.2a2,2,0,0,1,1.63-1.63l4.2-.65-4.2-.65a2,2,0,0,1-1.63-1.63l-.65-4.19-.65,4.19a1.92,1.92,0,0,1-1.61,1.63Z" transform="translate(-104.29 -97.44)"/></svg>