<svg id="Layer_1" data-name="Layer 1" xmlns="http://www.w3.org/2000/svg" viewBox="0 0 2449.85 1465"><defs><style>.cls-1{fill:#fcfcfc;}.cls-2{fill:#fff;fill-rule:evenodd;}</style></defs><title>aws</title><path class="cls-1" d="M712.64,532.06c0,30.15,3.26,54.59,9,72.52a434.66,434.66,0,0,0,26.07,58.66,35.48,35.48,0,0,1,5.7,18.74c0,8.15-4.89,16.3-15.48,24.45l-51.33,34.22c-7.33,4.89-14.67,7.33-21.18,7.33-8.15,0-16.3-4.07-24.45-11.41a251.7,251.7,0,0,1-29.33-38.29c-8.15-13.85-16.3-29.33-25.26-48.07Q491,762.65,346.8,762.65c-68.44,0-123-19.56-163-58.67s-60.29-91.25-60.29-156.44c0-69.26,24.44-125.48,74.14-167.85s115.7-63.55,199.63-63.55c27.7,0,56.22,2.44,86.37,6.52s61.11,10.59,93.7,17.92V281.1c0-61.92-13-105.1-38.3-130.36C513,125.48,469,113.26,406.28,113.26a370.9,370.9,0,0,0-88,10.59,648.25,648.25,0,0,0-88,27.7,233,233,0,0,1-28.52,10.59c-5.71,1.63-9.78,2.45-13,2.45-11.41,0-17.11-8.15-17.11-25.26V99.4c0-13,1.63-22.81,5.7-28.51s11.41-11.41,22.82-17.11q42.78-22,102.66-36.67C342.73,6.52,385.1,1.63,429.91,1.63c97,0,167.85,22,213.48,66C688.2,111.63,711,178.44,711,268.07v264ZM381.84,655.91c26.89,0,54.59-4.89,83.92-14.67s55.41-27.7,77.41-52.14c13-15.48,22.81-32.6,27.7-52.15S579,493.77,579,466.06V431.84a681.65,681.65,0,0,0-75-13.85,614,614,0,0,0-76.59-4.89c-54.6,0-94.52,10.59-121.41,32.59s-39.92,53-39.92,93.7c0,38.3,9.77,66.82,30.14,86.37,19.56,20.37,48.08,30.15,85.56,30.15Zm654.28,88c-14.67,0-24.45-2.45-31-8.15-6.51-4.89-12.22-16.3-17.11-31.78L796.57,74.15c-4.89-16.3-7.34-26.89-7.34-32.6,0-13,6.52-20.37,19.56-20.37h79.85c15.48,0,26.07,2.45,31.78,8.15,6.51,4.89,11.4,16.3,16.29,31.78L1073.6,600.5,1200.71,61.11c4.07-16.3,9-26.89,15.48-31.78s17.92-8.15,32.59-8.15H1314c15.48,0,26.07,2.45,32.59,8.15,6.52,4.89,12.23,16.3,15.48,31.78L1490.77,607l141-545.91c4.89-16.3,10.59-26.89,16.3-31.78,6.52-4.89,17.11-8.15,31.77-8.15h75.78c13,0,20.37,6.52,20.37,20.37,0,4.08-.82,8.15-1.63,13a115.26,115.26,0,0,1-5.7,20.37L1572.25,704.8q-7.34,24.44-17.11,31.77c-6.52,4.89-17.11,8.15-31,8.15h-70.07c-15.49,0-26.08-2.44-32.6-8.15S1409.29,720.28,1406,704L1279.74,178.44,1154.26,703.17c-4.07,16.29-9,26.89-15.48,32.59s-17.92,8.15-32.59,8.15Zm1047,22a539.07,539.07,0,0,1-125.48-14.67c-40.74-9.78-72.52-20.37-93.7-32.59-13-7.33-22-15.48-25.26-22.82A57.48,57.48,0,0,1,1833.8,673V631.47c0-17.12,6.52-25.26,18.74-25.26a46.14,46.14,0,0,1,14.67,2.44c4.89,1.63,12.22,4.89,20.37,8.15a443.43,443.43,0,0,0,89.62,28.52,489.25,489.25,0,0,0,97,9.77c51.34,0,91.26-9,119-26.88s42.37-44,42.37-77.41c0-22.81-7.33-41.55-22-57s-42.37-29.34-82.29-42.37l-118.15-36.67c-59.48-18.74-103.47-46.44-130.36-83.11C1855.8,295.77,1842,255.85,1842,213.48q0-51.34,22-90.45a209.53,209.53,0,0,1,58.66-66.81c24.45-18.74,52.15-32.59,84.74-42.37S2074.16,0,2110,0a408.18,408.18,0,0,1,54.59,3.26c18.74,2.44,35.85,5.7,53,9,16.29,4.08,31.78,8.15,46.44,13s26.08,9.78,34.22,14.66c11.41,6.52,19.56,13,24.45,20.37q7.34,9.78,7.33,26.89v38.3c0,17.11-6.52,26.07-18.74,26.07-6.52,0-17.11-3.26-31-9.78Q2210.64,110,2123.87,110c-46.45,0-83.11,7.33-108.37,22.81s-38.3,39.11-38.3,72.52c0,22.81,8.15,42.37,24.45,57.85s46.44,31,89.63,44.81L2207,344.66c58.66,18.74,101,44.81,126.29,78.22s37.48,71.7,37.48,114.07c0,35-7.33,66.81-21.18,94.52-14.67,27.7-34.23,52.14-59.48,71.7-25.26,20.37-55.41,35-90.45,45.63-36.66,11.4-75,17.11-116.51,17.11Z" transform="translate(-22.25 0)"/><path class="cls-2" d="M2237.12,1161.9c-268.06,198-657.54,303.1-992.42,303.1-469.32,0-892.2-173.55-1211.6-462-25.25-22.81-2.44-53.77,27.71-35.85C406.28,1167.6,832.42,1289,1273.22,1289c297.4,0,624.13-61.92,924.79-189C2242.83,1079.6,2281.12,1129.3,2237.12,1161.9Z" transform="translate(-22.25 0)"/><path class="cls-2" d="M2348.75,1034.79c-34.22-44-226.51-21.19-313.7-10.59-26.07,3.26-30.14-19.56-6.51-36.67,153.18-107.55,404.95-76.59,434.28-40.74,29.33,36.67-8.15,288.44-151.55,409-22,18.74-43.18,9-33.41-15.48C2310.45,1259.67,2383,1078,2348.75,1034.79Z" transform="translate(-22.25 0)"/></svg>