<svg width="92" height="83" viewBox="0 0 92 83" fill="none" xmlns="http://www.w3.org/2000/svg">
<g clip-path="url(#clip0)">
<path d="M42.8598 6.28822H7.58597C7.09641 6.28822 6.62691 6.09316 6.28075 5.74594C5.93459 5.39872 5.74011 4.92779 5.74011 4.43675C5.74011 3.94571 5.93459 3.47478 6.28075 3.12757C6.62691 2.78035 7.09641 2.58528 7.58597 2.58528H42.8598C43.3493 2.58528 43.8188 2.78035 44.165 3.12757C44.5111 3.47478 44.7056 3.94571 44.7056 4.43675C44.7056 4.92779 44.5111 5.39872 44.165 5.74594C43.8188 6.09316 43.3493 6.28822 42.8598 6.28822Z" fill="#FF9400"/>
<path d="M84.4365 6.28822H49.1402C48.6506 6.28822 48.1811 6.09316 47.835 5.74594C47.4888 5.39872 47.2943 4.92779 47.2943 4.43675C47.2943 3.94571 47.4888 3.47478 47.835 3.12757C48.1811 2.78035 48.6506 2.58528 49.1402 2.58528H84.4365C84.926 2.58528 85.3955 2.78035 85.7417 3.12757C86.0878 3.47478 86.2823 3.94571 86.2823 4.43675C86.2823 4.92779 86.0878 5.39872 85.7417 5.74594C85.3955 6.09316 84.926 6.28822 84.4365 6.28822Z" fill="#FF9400"/>
<path d="M62.5677 52.225L50.5246 17.7696H47.8459V43.7353C49.1713 44.1753 50.2973 45.0743 51.0219 46.2714C51.7466 47.4684 52.0225 48.8851 51.8004 50.2677C51.5782 51.6502 50.8725 52.9083 49.8096 53.8163C48.7467 54.7244 47.3962 55.2231 46 55.2231C44.6039 55.2231 43.2533 54.7244 42.1904 53.8163C41.1276 52.9083 40.4218 51.6502 40.1997 50.2677C39.9775 48.8851 40.2535 47.4684 40.9781 46.2714C41.7028 45.0743 42.8287 44.1753 44.1542 43.7353V17.7696H41.4754L29.4324 52.225C28.8307 53.9484 28.7952 55.8198 29.3311 57.5649L33.1803 70.1526H58.8197L62.669 57.5649C63.2048 55.8198 63.1693 53.9484 62.5677 52.225Z" fill="#FF9400"/>
<path d="M32.9665 73.8555C33.0483 74.1207 33.2126 74.3526 33.4355 74.5171C33.6583 74.6817 33.9278 74.7703 34.2045 74.77H57.8405C58.1152 74.7679 58.3822 74.6782 58.6028 74.5138C58.8234 74.3494 58.986 74.1189 59.0673 73.8555H32.9665ZM41.4754 16.4826C41.203 16.4724 40.9345 16.5503 40.7096 16.7048C40.4846 16.8593 40.3151 17.0822 40.2261 17.3406L28.2168 51.8073C27.5105 53.7981 27.467 55.9649 28.093 57.9826L31.8634 70.2881C32.212 70.2202 32.5663 70.1862 32.9214 70.1865H34.5309L30.5578 57.181C30.1115 55.704 30.143 54.1232 30.6479 52.6653L42.3871 19.0679H44.1541V16.4826H41.4754ZM63.7832 51.8073L51.7401 17.3406C51.6528 17.0878 51.4885 16.8689 51.2703 16.7149C51.0522 16.561 50.7913 16.4797 50.5246 16.4826H47.8458V19.0679H49.6129L61.3521 52.654C61.857 54.1119 61.8885 55.6927 61.4421 57.1698L57.469 70.1526H59.0785C59.4336 70.1523 59.7879 70.1863 60.1365 70.2542L63.862 57.9826C64.5024 55.9698 64.4748 53.803 63.7832 51.8073Z" fill="#FF9400"/>
<path d="M59.0672 73.8556H32.9214C31.6595 73.8556 30.6366 74.8816 30.6366 76.1473V80.7082C30.6366 81.9739 31.6595 83 32.9214 83H59.0672C60.3291 83 61.352 81.9739 61.352 80.7082V76.1473C61.352 74.8816 60.3291 73.8556 59.0672 73.8556Z" fill="#FF9400"/>
<path d="M4.54707 44.8417H4.41201C4.17086 44.8245 3.93546 44.7597 3.71935 44.651C3.50324 44.5423 3.31069 44.3919 3.15275 44.2083C2.99481 44.0247 2.87461 43.8116 2.79905 43.5812C2.7235 43.3509 2.69407 43.1078 2.71248 42.866C3.48257 32.4714 7.94356 22.6985 15.2854 15.3219C22.6272 7.94531 32.3629 3.45427 42.7247 2.66431C42.9686 2.64149 43.2147 2.6676 43.4484 2.74113C43.6822 2.81466 43.8991 2.93413 44.0863 3.09258C44.2736 3.25103 44.4275 3.44529 44.5392 3.66403C44.6508 3.88277 44.7179 4.12161 44.7366 4.36664C44.7553 4.61166 44.7252 4.85797 44.6479 5.09119C44.5708 5.32441 44.448 5.53988 44.287 5.72504C44.1259 5.91021 43.9297 6.06135 43.7098 6.16967C43.4899 6.27799 43.2507 6.34132 43.0061 6.35596C33.5379 7.11118 24.6487 11.2286 17.9356 17.9682C11.2226 24.7079 7.12588 33.628 6.38167 43.1257C6.34764 43.5909 6.13978 44.0261 5.79964 44.3443C5.45949 44.6624 5.01216 44.8401 4.54707 44.8417Z" fill="#FF9400"/>
<path d="M87.498 44.8417C87.0329 44.8401 86.5855 44.6625 86.2454 44.3443C85.9053 44.0261 85.6974 43.5909 85.6634 43.1257C84.9079 33.6307 80.8019 24.7171 74.0829 17.9859C67.3639 11.2548 58.4722 7.14723 49.0052 6.40112C48.7606 6.38629 48.5212 6.32328 48.3009 6.21569C48.0806 6.1081 47.8835 5.95803 47.721 5.77404C47.5585 5.59006 47.4337 5.37578 47.3537 5.14342C47.2737 4.91106 47.2402 4.66518 47.255 4.41982C47.2698 4.17446 47.3326 3.93442 47.4399 3.71341C47.5471 3.49239 47.6967 3.29474 47.8802 3.13172C48.0636 2.96871 48.2772 2.84353 48.5089 2.76333C48.7405 2.68313 48.9857 2.64948 49.2303 2.66431C59.5999 3.43906 69.3475 7.92248 76.6993 15.2986C84.051 22.6748 88.518 32.4533 89.2875 42.8547C89.3075 43.0968 89.2791 43.3405 89.2041 43.5715C89.1292 43.8025 89.0091 44.0162 88.8509 44.2001C88.6926 44.384 88.4995 44.5345 88.2827 44.6427C88.0658 44.7509 87.8297 44.8147 87.588 44.8304L87.498 44.8417Z" fill="#FF9400"/>
<path d="M49.1289 1.29829H42.8597V7.58651H49.1289V1.29829Z" fill="#FF9400"/>
<path d="M49.1401 0H42.8598C42.5195 0 42.1931 0.135593 41.9525 0.376952C41.7118 0.618311 41.5767 0.945663 41.5767 1.287V7.58651C41.5767 7.92784 41.7118 8.25519 41.9525 8.49655C42.1931 8.73791 42.5195 8.8735 42.8598 8.8735H49.1401C49.4804 8.8735 49.8068 8.73791 50.0474 8.49655C50.2881 8.25519 50.4232 7.92784 50.4232 7.58651V1.287C50.4232 0.945663 50.2881 0.618311 50.0474 0.376952C49.8068 0.135593 49.4804 0 49.1401 0ZM47.8458 6.28822H44.1541V2.58528H47.8458V6.28822Z" fill="#FF9400"/>
<path d="M7.56346 42.9902H1.29431V49.2784H7.56346V42.9902Z" fill="#FF9400"/>
<path d="M7.586 41.7032H1.29435C1.1249 41.7017 0.956846 41.7339 0.799873 41.7979C0.642899 41.8619 0.500121 41.9565 0.37978 42.0762C0.259439 42.1958 0.163919 42.3382 0.0987348 42.4951C0.0335507 42.652 -6.51847e-06 42.8202 9.49751e-10 42.9902V49.2897C-6.51847e-06 49.4597 0.0335507 49.628 0.0987348 49.7849C0.163919 49.9417 0.259439 50.0841 0.37978 50.2038C0.500121 50.3234 0.642899 50.418 0.799873 50.482C0.956846 50.546 1.1249 50.5782 1.29435 50.5767H7.586C7.92735 50.5767 8.25487 50.4415 8.49729 50.2005C8.73971 49.9594 8.87738 49.6321 8.88035 49.2897V42.9902C8.87738 42.6478 8.73971 42.3205 8.49729 42.0795C8.25487 41.8384 7.92735 41.7032 7.586 41.7032ZM2.59995 44.2885H6.29166V47.9914H2.57744L2.59995 44.2885Z" fill="#FF9400"/>
<path d="M90.7057 42.9902H84.4365V49.2784H90.7057V42.9902Z" fill="#FF9400"/>
<path d="M90.7056 41.7032H84.4364C84.0951 41.7032 83.7676 41.8384 83.5252 42.0795C83.2827 42.3205 83.1451 42.6478 83.1421 42.9902V49.2897C83.1451 49.6321 83.2827 49.9594 83.5252 50.2005C83.7676 50.4415 84.0951 50.5767 84.4364 50.5767H90.7056C90.875 50.5782 91.0431 50.546 91.2001 50.482C91.357 50.418 91.4998 50.3234 91.6202 50.2038C91.7405 50.0841 91.836 49.9417 91.9012 49.7849C91.9664 49.628 91.9999 49.4597 91.9999 49.2897V42.9902C91.9999 42.8202 91.9664 42.652 91.9012 42.4951C91.836 42.3382 91.7405 42.1958 91.6202 42.0762C91.4998 41.9565 91.357 41.8619 91.2001 41.7979C91.0431 41.7339 90.875 41.7017 90.7056 41.7032ZM89.4225 47.9914H85.7195V44.2885H89.4225V47.9914Z" fill="#FF9400"/>
<path d="M7.56346 1.29829H1.29431V7.58651H7.56346V1.29829Z" fill="#FF9400"/>
<path d="M7.586 5.65161e-06H1.29435C1.1249 -0.00148527 0.956846 0.030703 0.799873 0.0947128C0.642899 0.158723 0.500121 0.253285 0.37978 0.372943C0.259439 0.4926 0.163919 0.634982 0.0987348 0.791868C0.0335507 0.948754 -6.51847e-06 1.11704 9.49751e-10 1.287V7.58651C-6.51847e-06 7.75648 0.0335507 7.92476 0.0987348 8.08165C0.163919 8.23853 0.259439 8.38091 0.37978 8.50057C0.500121 8.62023 0.642899 8.71479 0.799873 8.7788C0.956846 8.84281 1.1249 8.875 1.29435 8.87351H7.586C7.92735 8.87352 8.25487 8.73829 8.49729 8.49725C8.73971 8.25621 8.87738 7.92888 8.88035 7.58651V1.287C8.87738 0.944635 8.73971 0.617304 8.49729 0.376264C8.25487 0.135225 7.92735 -7.29305e-06 7.586 5.65161e-06ZM6.29166 6.28823H2.57744V2.58529H6.26915L6.29166 6.28823Z" fill="#FF9400"/>
<path d="M90.7057 1.29829H84.4365V7.58651H90.7057V1.29829Z" fill="#FF9400"/>
<path d="M90.7056 -7.04349e-08H84.4364C84.0951 -1.30151e-05 83.7676 0.135219 83.5252 0.376258C83.2827 0.617298 83.1451 0.944629 83.1421 1.287V7.58651C83.1451 7.92887 83.2827 8.2562 83.5252 8.49724C83.7676 8.73828 84.0951 8.87352 84.4364 8.8735H90.7056C90.875 8.87499 91.0431 8.8428 91.2001 8.7788C91.357 8.71479 91.4998 8.62022 91.6202 8.50057C91.7405 8.38091 91.836 8.23853 91.9012 8.08164C91.9664 7.92476 91.9999 7.75647 91.9999 7.58651V1.287C91.9999 1.11703 91.9664 0.948748 91.9012 0.791862C91.836 0.634976 91.7405 0.492594 91.6202 0.372937C91.4998 0.25328 91.357 0.158717 91.2001 0.094707C91.0431 0.0306972 90.875 -0.00149099 90.7056 -7.04349e-08ZM89.4225 6.28822H85.7195V2.58528H89.4225V6.28822Z" fill="#FF9400"/>
</g>
<defs>
<clipPath id="clip0">
<rect width="92" height="83" fill="white"/>
</clipPath>
</defs>
</svg>
