<svg width="97" height="79" viewBox="0 0 97 79" fill="none" xmlns="http://www.w3.org/2000/svg">
<g clip-path="url(#clip0)">
<path d="M89.0463 1.52227e-09H7.95368C5.84423 1.52227e-09 3.82118 0.834408 2.32958 2.31966C0.837974 3.80492 0 5.81936 0 7.91983V71.1297C0.0131508 73.2216 0.856928 75.2233 2.34711 76.6979C3.83729 78.1724 5.85283 79 7.95368 79H89.0463C91.1558 79 93.1788 78.1656 94.6704 76.6803C96.162 75.1951 97 73.1806 97 71.0802V7.87025C96.9868 5.77839 96.1431 3.77666 94.6529 2.30211C93.1627 0.827559 91.1472 -4.09844e-05 89.0463 1.52227e-09ZM23.1764 6.65563C23.7328 6.65563 24.2767 6.81991 24.7393 7.1277C25.2019 7.43548 25.5624 7.87295 25.7754 8.38478C25.9883 8.8966 26.044 9.45981 25.9354 10.0032C25.8269 10.5465 25.559 11.0456 25.1656 11.4374C24.7722 11.8291 24.2709 12.0959 23.7252 12.2039C23.1796 12.312 22.614 12.2566 22.0999 12.0445C21.5859 11.8325 21.1466 11.4735 20.8375 11.0129C20.5284 10.5523 20.3634 10.0107 20.3634 9.4567C20.3634 8.71381 20.6598 8.00135 21.1873 7.47605C21.7149 6.95074 22.4304 6.65563 23.1764 6.65563ZM12.9823 6.65563C13.5392 6.65318 14.0843 6.81537 14.5485 7.12166C15.0127 7.42795 15.3752 7.86455 15.5901 8.37616C15.8049 8.88777 15.8624 9.45135 15.7552 9.99552C15.6481 10.5397 15.3812 11.0399 14.9883 11.4329C14.5954 11.8259 14.0941 12.0939 13.5481 12.203C13.0021 12.3121 12.4359 12.2573 11.9211 12.0457C11.4064 11.8341 10.9663 11.4751 10.6567 11.0142C10.347 10.5533 10.1817 10.0112 10.1817 9.4567C10.1817 8.71595 10.4764 8.00536 11.0012 7.48041C11.5261 6.95547 12.2384 6.65891 12.9823 6.65563ZM91.5606 71.1049C91.5606 71.7624 91.2983 72.3929 90.8315 72.8577C90.3646 73.3226 89.7314 73.5838 89.0712 73.5838H7.95368C7.29344 73.5838 6.66025 73.3226 6.1934 72.8577C5.72654 72.3929 5.46426 71.7624 5.46426 71.1049V18.3928H91.5606V71.1049Z" fill="#04D361"/>
<path d="M36.6442 58.5745L19.0316 49.3905V45.9077L36.6442 36.2775V41.4087L24.0851 47.5438V47.6677L36.6442 53.4434V58.5745Z" fill="#04D361"/>
<path d="M57.493 29.0394L44.3116 65.0566H38.9967L52.1159 29.0394H57.493Z" fill="#04D361"/>
<path d="M77.9684 49.1178L60.3558 58.2895V53.1831L72.9523 47.4322V47.3455L60.3558 41.1484V36.0668L77.9684 45.6227V49.1178Z" fill="#04D361"/>
</g>
<defs>
<clipPath id="clip0">
<rect width="97" height="79" fill="white"/>
</clipPath>
</defs>
</svg>
