<svg width="88" height="89" viewBox="0 0 88 89" fill="none" xmlns="http://www.w3.org/2000/svg">
<path d="M73.8988 51.8435C72.1957 58.5866 68.2007 64.533 62.5937 68.6705C56.9868 72.8081 50.1144 74.8811 43.1465 74.5367C36.1786 74.1923 29.5458 71.4517 24.3771 66.7815C19.2084 62.1113 15.8233 55.8001 14.7979 48.9222C13.7726 42.0443 15.1704 35.0247 18.7534 29.0584C22.3364 23.0921 27.8832 18.5478 34.4496 16.199C41.016 13.8502 48.1961 13.8421 54.7678 16.176C61.3396 18.5099 66.8967 23.0417 70.4933 28.9999" stroke="#6056A1" stroke-width="2.78" stroke-linecap="round" stroke-linejoin="round"/>
<path d="M86.2 54.9797C83.7801 64.5453 78.1111 72.9804 70.1569 78.8512C62.2027 84.722 52.4541 87.6662 42.5683 87.1832C32.6825 86.7002 23.2695 82.8199 15.9295 76.2018C8.58956 69.5838 3.77553 60.6365 2.30578 50.8809C0.836038 41.1252 2.80128 31.1633 7.86745 22.6886C12.9336 14.2138 20.7881 7.74922 30.0956 4.3937C39.4031 1.03818 49.5893 0.998821 58.9227 4.28232C68.256 7.56581 76.1605 13.9695 81.2925 22.4049L81.9658 23.4374" stroke="#6056A1" stroke-width="2.78" stroke-linecap="round" stroke-linejoin="round"/>
<path d="M59.9918 35.4529C57.8806 31.9206 54.6052 29.2279 50.7243 27.8341C46.8434 26.4404 42.5975 26.4319 38.7111 27.8103C34.8247 29.1887 31.5386 31.8684 29.4134 35.3923C27.2881 38.9162 26.4556 43.0659 27.0577 47.1334C27.6598 51.2009 29.6593 54.9341 32.715 57.6961C35.7707 60.4582 39.6933 62.0778 43.8135 62.2788C47.9337 62.4798 51.9962 61.2496 55.3079 58.7981C58.6196 56.3467 60.9753 52.8259 61.973 48.8364" stroke="#6056A1" stroke-width="2.78" stroke-linecap="round" stroke-linejoin="round"/>
<path d="M50.319 41.3767C50.8443 42.3346 51.1203 43.4084 51.1218 44.5C51.1163 45.0347 51.0511 45.5671 50.9276 46.0874" stroke="#6056A1" stroke-width="2.78" stroke-linecap="round" stroke-linejoin="round"/>
<path d="M50.3191 41.3767C49.5902 40.0624 48.4243 39.0426 47.0221 38.4931C45.62 37.9435 44.0694 37.8985 42.6375 38.3659C41.2057 38.8333 39.9822 39.7838 39.1779 41.0536C38.3736 42.3234 38.0388 43.8331 38.2313 45.3225C38.4237 46.8119 39.1312 48.1878 40.2321 49.2132C41.3329 50.2385 42.758 50.849 44.262 50.9396C45.7659 51.0303 47.2545 50.5952 48.4712 49.7095C49.6879 48.8238 50.5566 47.5429 50.9277 46.0874" stroke="#6056A1" stroke-width="2.78" stroke-linecap="round" stroke-linejoin="round"/>
<path d="M50.3579 41.3767L59.9918 35.4529" stroke="#3C3C3B" stroke-width="1.55" stroke-linecap="round" stroke-linejoin="round"/>
<path d="M59.9917 35.4529L70.4932 28.9869" stroke="#3C3C3B" stroke-width="1.55" stroke-linecap="round" stroke-linejoin="round"/>
<path d="M50.5003 41.622L45.1395 44.6549L72.578 12.2607C76.5683 15.4912 79.8702 19.4843 82.2896 24.0052L71.1925 30.1356L50.5003 41.622Z" fill="#4FB15E" stroke="#6056A1" stroke-width="2.18" stroke-linecap="round" stroke-linejoin="round"/>
</svg>
