<svg width="152" height="111" viewBox="0 0 152 111" fill="none" xmlns="http://www.w3.org/2000/svg">
<path d="M126.457 9.40496C142.917 33.5747 151.046 60.8376 148.007 92.2234C147.994 92.3562 147.925 92.4781 147.816 92.5581C135.351 101.699 123.274 107.247 111.367 110.926C111.274 110.954 111.175 110.952 111.083 110.921C110.992 110.89 110.912 110.831 110.855 110.753C108.104 106.93 105.605 102.9 103.415 98.6679C103.289 98.4186 103.404 98.1184 103.663 98.0202C107.632 96.5264 111.407 94.736 115.038 92.6164C115.324 92.449 115.342 92.0396 115.078 91.8431C114.308 91.2718 113.544 90.6713 112.814 90.0709C112.677 89.9599 112.493 89.9381 112.338 90.0127C88.766 100.884 62.9438 100.884 39.0928 90.0127C38.9379 89.9436 38.7539 89.9672 38.6209 90.0764C37.8922 90.6768 37.1271 91.2718 36.3637 91.8431C36.0996 92.0396 36.1214 92.449 36.4093 92.6164C40.0401 94.696 43.8149 96.5264 47.7791 98.0275C48.036 98.1257 48.1581 98.4186 48.0305 98.6679C45.8881 102.905 43.3886 106.936 40.5867 110.758C40.4646 110.913 40.2642 110.984 40.0747 110.926C28.2239 107.247 16.1472 101.699 3.68249 92.5581C3.57865 92.4781 3.50395 92.3507 3.49302 92.2179C0.953435 65.0697 6.12916 37.5812 25.023 9.3995C25.0686 9.3249 25.1378 9.26668 25.218 9.23211C34.5146 4.97092 44.4744 1.83599 54.8841 0.0456339C55.0736 0.0165224 55.2631 0.103857 55.3615 0.271247C56.6476 2.54558 58.1178 5.46218 59.1125 7.84568C70.0852 6.17177 81.2292 6.17177 92.4314 7.84568C93.4261 5.51313 94.8453 2.54558 96.126 0.271247C96.1716 0.188207 96.2423 0.121679 96.328 0.0811621C96.4138 0.0406452 96.5101 0.0282107 96.6033 0.0456339C107.019 1.84145 116.978 4.97638 126.268 9.23211C126.35 9.26668 126.417 9.3249 126.457 9.40496ZM64.6909 61.0232C64.8057 52.9975 58.9468 46.3565 51.5922 46.3565C44.2977 46.3565 38.4952 52.9393 38.4952 61.0232C38.4952 69.1052 44.4124 75.6881 51.5922 75.6881C58.8885 75.6881 64.6909 69.1052 64.6909 61.0232ZM113.118 61.0232C113.233 52.9975 107.374 46.3565 100.021 46.3565C92.7247 46.3565 86.9223 52.9393 86.9223 61.0232C86.9223 69.1052 92.8395 75.6881 100.021 75.6881C107.374 75.6881 113.118 69.1052 113.118 61.0232Z" fill="url(#paint0_linear)"/>
<defs>
<linearGradient id="paint0_linear" x1="75.7626" y1="0.0379639" x2="75.7626" y2="110.946" gradientUnits="userSpaceOnUse">
<stop stop-color="#7758E0" stop-opacity="0"/>
<stop offset="1" stop-color="#7758E0"/>
</linearGradient>
</defs>
</svg>
