<svg id="Layer_1" data-name="Layer 1" xmlns="http://www.w3.org/2000/svg" viewBox="0 0 2413.7 2484.79"><defs><style>.cls-1{fill:#f4efef;}</style></defs><title>laravel</title><path class="cls-1" d="M2412.34,570.39a39.66,39.66,0,0,1,1.36,10.16v533.36a38.88,38.88,0,0,1-19.54,33.73l-447.65,257.73v510.85a39,39,0,0,1-19.45,33.74L992.62,2487.88a42.32,42.32,0,0,1-6.8,2.82c-.88.29-1.7.82-2.63,1.07a39.13,39.13,0,0,1-19.93,0,32.83,32.83,0,0,1-3.06-1.27,39.71,39.71,0,0,1-6.42-2.62L19.54,1950A39,39,0,0,1,0,1916.22V316.16A40,40,0,0,1,1.36,306c.29-1.12,1-2.14,1.36-3.25a37.83,37.83,0,0,1,2.48-6,35.66,35.66,0,0,1,2.67-3.45,38.57,38.57,0,0,1,3.46-4.52,35.91,35.91,0,0,1,3.84-2.92,31.33,31.33,0,0,1,4.27-3.35h0l467.15-269a39,39,0,0,1,38.89,0l467.14,269h.1a14013.61,14013.61,0,0,0,8.07,6.22,45.68,45.68,0,0,1,3.5,4.57,33.67,33.67,0,0,1,2.62,3.45,40.1,40.1,0,0,1,2.53,6c.39,1.11,1.07,2.13,1.36,3.3a38.75,38.75,0,0,1,1.36,10.16v999.38l389.28-224.14V580.5a39.11,39.11,0,0,1,1.36-10.11c.34-1.16,1-2.18,1.36-3.3a44.38,44.38,0,0,1,2.53-6c.72-1.26,1.79-2.28,2.62-3.45a40,40,0,0,1,3.5-4.52,37.39,37.39,0,0,1,3.79-2.92,38.14,38.14,0,0,1,4.28-3.35h0l467.19-269a38.92,38.92,0,0,1,38.89,0l467.15,269a42.72,42.72,0,0,1,4.37,3.3c1.22,1,2.63,1.85,3.74,2.92a42.87,42.87,0,0,1,3.5,4.57,29.4,29.4,0,0,1,2.63,3.45,38.84,38.84,0,0,1,2.53,6,29.38,29.38,0,0,1,1.36,3.3Zm-76.51,521V647.88L2172.35,742,1946.51,872v443.52l389.36-224.14Zm-467.15,802.31V1449.9l-222.15,126.87-634.36,362v448ZM77.87,383.49V1893.71l856.42,493.06v-447.9L486.88,1685.66l-.14-.1-.2-.09a2117.56,2117.56,0,0,0-7.87-6l-.1-.15a37.16,37.16,0,0,1-3.21-4.08,42.18,42.18,0,0,1-2.92-3.79l0-.15a31.49,31.49,0,0,1-2-4.86,29.31,29.31,0,0,1-1.84-4.37v0a36.22,36.22,0,0,1-.78-5.69,32.93,32.93,0,0,1-.58-4.37V607.63L241.35,477.55l-163.48-94ZM506.13,92.12l-389.22,224L506,540.21l389.18-224.1L506,92.12ZM708.54,1490.34l225.8-130V383.49L770.86,477.6,545,607.63V1584.5ZM1907.62,356.51l-389.18,224L1907.62,804.6l389.12-224.1ZM1868.68,872,1642.84,742l-163.48-94.11V1091.4l225.79,130,163.53,94.16ZM973.18,1871.5,1544,1545.61l285.34-162.84-388.88-223.9L992.72,1416.65,584.64,1651.59Z" transform="translate(0 -8.27)"/></svg>