<svg id="Camada_1" data-name="Camada 1" xmlns="http://www.w3.org/2000/svg" viewBox="0 0 146 88.24"><defs><style>.cls-1{fill:#111113;}.cls-2{fill:#fff;}.cls-3{fill:#04d361;}.cls-4{fill:#8257e5;}</style></defs><rect class="cls-1" width="146" height="88.24"/><path class="cls-2" d="M52.66,60.44c0-.45-.38-.75-1.15-.91a2.33,2.33,0,0,1-1-.38.77.77,0,0,1-.27-.63.81.81,0,0,1,.35-.67,1.37,1.37,0,0,1,.89-.26,1.5,1.5,0,0,1,1,.28.93.93,0,0,1,.36.77h-.19a.76.76,0,0,0-.31-.62,1.49,1.49,0,0,0-1.59,0,.63.63,0,0,0-.28.53.63.63,0,0,0,.1.39.91.91,0,0,0,.35.26,4,4,0,0,0,.69.22,2.79,2.79,0,0,1,.73.25.86.86,0,0,1,.5.82.83.83,0,0,1-.36.7,1.49,1.49,0,0,1-.93.26,1.66,1.66,0,0,1-1-.28.86.86,0,0,1-.38-.72h.19a.75.75,0,0,0,.34.6,1.46,1.46,0,0,0,.86.22,1.33,1.33,0,0,0,.8-.23A.69.69,0,0,0,52.66,60.44Z"/><path class="cls-2" d="M55.26,59.43a2.1,2.1,0,0,1,.2-1,1.5,1.5,0,0,1,1.41-.89,1.46,1.46,0,0,1,.83.23,1.5,1.5,0,0,1,.58.64,2.41,2.41,0,0,1,.21.95v.16a2.08,2.08,0,0,1-.21,1,1.53,1.53,0,0,1-.57.66,1.63,1.63,0,0,1-1.67,0,1.53,1.53,0,0,1-.58-.65,2.2,2.2,0,0,1-.2-.94Zm.18.14a2,2,0,0,0,.18.85,1.4,1.4,0,0,0,.51.59,1.3,1.3,0,0,0,.75.22,1.27,1.27,0,0,0,1-.47,1.84,1.84,0,0,0,.4-1.23v-.1a2,2,0,0,0-.18-.84,1.51,1.51,0,0,0-.51-.6,1.29,1.29,0,0,0-.74-.22,1.27,1.27,0,0,0-1,.48,1.82,1.82,0,0,0-.4,1.21Z"/><path class="cls-2" d="M61.34,61.35V57.84h-.65v-.18h.65v-.54a1.15,1.15,0,0,1,.25-.8A.91.91,0,0,1,62.3,56a1.46,1.46,0,0,1,.44.06l0,.18a1.64,1.64,0,0,0-.41-.05.72.72,0,0,0-.57.24,1,1,0,0,0-.21.67v.53h1v.18h-1v3.51Z"/><path class="cls-2" d="M65.35,56.66v1h.83v.18h-.83v2.62a1.09,1.09,0,0,0,.12.58.48.48,0,0,0,.43.19l.37,0,0,.17a1.24,1.24,0,0,1-.39,0,.66.66,0,0,1-.57-.22,1.11,1.11,0,0,1-.18-.7V57.84h-.68v-.18h.68v-1Z"/><path class="cls-2" d="M69.48,60.28l.2.79,1.08-3.41H71L72,61.07l.2-.79L73,57.66h.22l-1.07,3.69h-.19L71,58.57l-.17-.66-.19.66-.9,2.78h-.18l-1.07-3.69h.21Z"/><path class="cls-2" d="M78.17,61.35a2.44,2.44,0,0,1-.07-.68,1.51,1.51,0,0,1-.6.55,1.83,1.83,0,0,1-.85.19,1.24,1.24,0,0,1-.83-.27.93.93,0,0,1-.31-.73A.92.92,0,0,1,76,59.6a2.12,2.12,0,0,1,1.22-.31h.91v-.54a.92.92,0,0,0-.29-.72,1.24,1.24,0,0,0-.84-.26,1.38,1.38,0,0,0-.84.26.8.8,0,0,0-.34.64h-.18a.93.93,0,0,1,.4-.76,1.48,1.48,0,0,1,1-.31,1.46,1.46,0,0,1,1,.29,1,1,0,0,1,.36.85v1.76a2.5,2.5,0,0,0,.1.83v0Zm-1.52-.12a1.71,1.71,0,0,0,.89-.23,1.48,1.48,0,0,0,.56-.65v-.88h-.85a2,2,0,0,0-1.21.31.78.78,0,0,0-.35.64A.71.71,0,0,0,76,61,1,1,0,0,0,76.65,61.23Z"/><path class="cls-2" d="M82.78,57.79l-.24,0a1.06,1.06,0,0,0-.79.31,1.52,1.52,0,0,0-.42.85v2.42h-.18V57.66h.18v.76a1.34,1.34,0,0,1,.45-.61,1.22,1.22,0,0,1,.76-.22.85.85,0,0,1,.25,0Z"/><path class="cls-2" d="M86.42,61.41a1.48,1.48,0,0,1-.82-.24,1.62,1.62,0,0,1-.58-.66,2.05,2.05,0,0,1-.21-.93v-.15a2.09,2.09,0,0,1,.2-.94,1.59,1.59,0,0,1,.56-.66,1.39,1.39,0,0,1,.79-.24,1.28,1.28,0,0,1,1,.44,1.7,1.7,0,0,1,.39,1.15v.2H85v.2a1.78,1.78,0,0,0,.19.83,1.46,1.46,0,0,0,.52.6,1.25,1.25,0,0,0,.72.22,1.56,1.56,0,0,0,.64-.12,1.39,1.39,0,0,0,.46-.39l.13.1A1.42,1.42,0,0,1,86.42,61.41Zm-.06-3.64a1.21,1.21,0,0,0-.92.4,1.7,1.7,0,0,0-.44,1h2.57v0a1.53,1.53,0,0,0-.16-.7A1.24,1.24,0,0,0,87,58,1.15,1.15,0,0,0,86.36,57.77Z"/><path class="cls-2" d="M93.83,58.51a1.47,1.47,0,0,1,.53-.67,1.27,1.27,0,0,1,.78-.25,1.11,1.11,0,0,1,.88.33,1.57,1.57,0,0,1,.29,1v2.41h-.19V58.93a1.31,1.31,0,0,0-.24-.87.94.94,0,0,0-.76-.29,1.13,1.13,0,0,0-.82.34,1.68,1.68,0,0,0-.47.87v2.37h-.19V56.11h.19Z"/><path class="cls-2" d="M98.86,59.43a2.24,2.24,0,0,1,.2-1,1.62,1.62,0,0,1,.58-.66,1.47,1.47,0,0,1,.84-.23,1.51,1.51,0,0,1,.83.23,1.55,1.55,0,0,1,.57.64,2.11,2.11,0,0,1,.21.95v.16a2.21,2.21,0,0,1-.2,1,1.59,1.59,0,0,1-2.25.66,1.58,1.58,0,0,1-.57-.65,2.06,2.06,0,0,1-.21-.94Zm.19.14a2,2,0,0,0,.18.85,1.4,1.4,0,0,0,.51.59,1.24,1.24,0,0,0,.74.22,1.29,1.29,0,0,0,1-.47,1.84,1.84,0,0,0,.4-1.23v-.1a1.85,1.85,0,0,0-.19-.84,1.37,1.37,0,0,0-.51-.6,1.23,1.23,0,0,0-.73-.22,1.26,1.26,0,0,0-1,.48,1.82,1.82,0,0,0-.4,1.21Z"/><path class="cls-2" d="M107.14,61.35v-.6a1.17,1.17,0,0,1-.48.48,1.61,1.61,0,0,1-.8.18,1.1,1.1,0,0,1-.9-.35,1.54,1.54,0,0,1-.31-1V57.66h.18V60a1.41,1.41,0,0,0,.27.89.94.94,0,0,0,.76.3,1.37,1.37,0,0,0,.86-.25,1.15,1.15,0,0,0,.42-.73V57.66h.18v3.69Z"/><path class="cls-2" d="M112.44,60.44c0-.45-.38-.75-1.15-.91a2.33,2.33,0,0,1-1-.38.77.77,0,0,1-.27-.63.81.81,0,0,1,.35-.67,1.39,1.39,0,0,1,.89-.26,1.5,1.5,0,0,1,1,.28.93.93,0,0,1,.36.77h-.19a.76.76,0,0,0-.31-.62,1.25,1.25,0,0,0-.82-.25,1.28,1.28,0,0,0-.77.21.63.63,0,0,0-.28.53.63.63,0,0,0,.1.39.91.91,0,0,0,.35.26,4,4,0,0,0,.69.22,2.79,2.79,0,0,1,.73.25.86.86,0,0,1,.5.82.83.83,0,0,1-.36.7,1.49,1.49,0,0,1-.93.26,1.6,1.6,0,0,1-1-.28.85.85,0,0,1-.39-.72h.19a.75.75,0,0,0,.34.6,1.46,1.46,0,0,0,.86.22,1.33,1.33,0,0,0,.8-.23A.69.69,0,0,0,112.44,60.44Z"/><path class="cls-2" d="M116.64,61.41a1.48,1.48,0,0,1-.82-.24,1.62,1.62,0,0,1-.58-.66,2.05,2.05,0,0,1-.21-.93v-.15a2.09,2.09,0,0,1,.2-.94,1.59,1.59,0,0,1,.56-.66,1.38,1.38,0,0,1,.78-.24,1.26,1.26,0,0,1,1,.44,1.66,1.66,0,0,1,.4,1.15v.2h-2.77v.2a1.78,1.78,0,0,0,.19.83,1.46,1.46,0,0,0,.52.6,1.25,1.25,0,0,0,.72.22,1.56,1.56,0,0,0,.64-.12,1.39,1.39,0,0,0,.46-.39l.13.1A1.42,1.42,0,0,1,116.64,61.41Zm-.07-3.64a1.18,1.18,0,0,0-.91.4,1.7,1.7,0,0,0-.44,1h2.57v0a1.53,1.53,0,0,0-.16-.7,1.24,1.24,0,0,0-.43-.5A1.16,1.16,0,0,0,116.57,57.77Z"/><path class="cls-2" d="M33.13,30.23V51.31a6.32,6.32,0,0,1-1.48,4.53,5.62,5.62,0,0,1-4.32,1.57,8.82,8.82,0,0,1-2.31-.3V53.67a6.62,6.62,0,0,0,1.54.16c1.45,0,2.19-.79,2.22-2.36V30.23Zm-4.72-5A2.3,2.3,0,0,1,29,23.54a2.37,2.37,0,0,1,1.82-.67,2.39,2.39,0,0,1,1.82.67,2.28,2.28,0,0,1,.65,1.66,2.25,2.25,0,0,1-.65,1.64,2.45,2.45,0,0,1-1.82.65A2.44,2.44,0,0,1,29,26.84,2.27,2.27,0,0,1,28.41,25.2Z"/><path class="cls-2" d="M53.17,47.69A6.73,6.73,0,0,1,47.73,50,6,6,0,0,1,43,48.1a7.81,7.81,0,0,1-1.62-5.33V30.23h4.35V42.72q0,3.69,3.06,3.69T53,44.13V30.23h4.34V49.59H53.28Z"/><path class="cls-2" d="M76.32,44.33a2,2,0,0,0-1-1.77,10,10,0,0,0-3.17-1.08,16.22,16.22,0,0,1-3.71-1.18q-3.26-1.57-3.25-4.56a5.15,5.15,0,0,1,2.11-4.19,8.33,8.33,0,0,1,5.37-1.68,8.68,8.68,0,0,1,5.61,1.72A5.45,5.45,0,0,1,80.45,36H76.11A2.68,2.68,0,0,0,75.17,34a3.52,3.52,0,0,0-2.46-.83,3.86,3.86,0,0,0-2.34.66,2.09,2.09,0,0,0-.9,1.77,1.77,1.77,0,0,0,.84,1.56,11.62,11.62,0,0,0,3.4,1.12,15.81,15.81,0,0,1,4,1.34,5.63,5.63,0,0,1,2.17,1.87,4.79,4.79,0,0,1,.71,2.65,5,5,0,0,1-2.17,4.23A9.21,9.21,0,0,1,72.76,50a10,10,0,0,1-4.24-.86,7,7,0,0,1-2.9-2.36,5.65,5.65,0,0,1-1-3.24H68.8A3.07,3.07,0,0,0,70,45.86a4.52,4.52,0,0,0,2.84.83A4.46,4.46,0,0,0,75.43,46,2,2,0,0,0,76.32,44.33Z"/><path class="cls-2" d="M93.5,25.52v4.71h3.41v3.22H93.5V44.26a2.39,2.39,0,0,0,.43,1.6,2,2,0,0,0,1.57.49A6.64,6.64,0,0,0,97,46.17v3.37a10.85,10.85,0,0,1-2.86.41c-3.34,0-5-1.85-5-5.53v-11H86V30.23h3.19V25.52Z"/><path class="cls-3" d="M112.42,50a9,9,0,0,1-6.7-2.61,9.43,9.43,0,0,1-2.57-6.93v-.54a11.7,11.7,0,0,1,1.12-5.18,8.55,8.55,0,0,1,3.14-3.55,8.28,8.28,0,0,1,4.51-1.27A7.59,7.59,0,0,1,118,32.39q2.16,2.53,2.16,7.14v1.76H107.54a5.78,5.78,0,0,0,1.6,3.79,4.81,4.81,0,0,0,3.53,1.4,5.88,5.88,0,0,0,4.87-2.42l2.35,2.24A7.9,7.9,0,0,1,116.78,49,9.7,9.7,0,0,1,112.42,50Zm-.52-16.59A3.69,3.69,0,0,0,109,34.61a6.52,6.52,0,0,0-1.4,3.49h8.28v-.32a5.22,5.22,0,0,0-1.16-3.3A3.62,3.62,0,0,0,111.9,33.36Z"/><circle class="cls-4" cx="31.05" cy="24.57" r="3.28"/></svg>