<svg id="Camada_1" data-name="Camada 1" xmlns="http://www.w3.org/2000/svg" viewBox="0 0 146 63.83"><defs><style>.cls-1{fill:#111113;}.cls-2{isolation:isolate;}.cls-3{fill:#fff;}.cls-4{fill:#04d361;}.cls-5{fill:#8257e5;}</style></defs><rect class="cls-1" width="146" height="63.83"/><g class="cls-2"><g class="cls-2"><path class="cls-3" d="M12.88,13V44.79c0,3-.74,5.27-2.23,6.84S7,54,4.13,54a13.28,13.28,0,0,1-3.48-.46V48.35A10.15,10.15,0,0,0,3,48.59c2.18,0,3.29-1.18,3.35-3.56V13ZM5.75,5.38a3.5,3.5,0,0,1,1-2.51,3.64,3.64,0,0,1,2.74-1,3.66,3.66,0,0,1,2.75,1,3.47,3.47,0,0,1,1,2.51,3.4,3.4,0,0,1-1,2.48,3.69,3.69,0,0,1-2.75,1,3.67,3.67,0,0,1-2.74-1A3.43,3.43,0,0,1,5.75,5.38Z"/><path class="cls-3" d="M43.12,39.33c-1.93,2.27-4.66,3.4-8.21,3.4-3.17,0-5.57-.92-7.2-2.78s-2.44-4.53-2.44-8.05V13h6.56V31.82q0,5.57,4.62,5.57c3.19,0,5.34-1.15,6.45-3.43V13h6.57V42.19H43.28Z"/><path class="cls-3" d="M78.06,34.25a3,3,0,0,0-1.44-2.67A15.52,15.52,0,0,0,71.82,30a24.89,24.89,0,0,1-5.59-1.78c-3.27-1.59-4.91-3.88-4.91-6.89A7.78,7.78,0,0,1,64.5,15a12.64,12.64,0,0,1,8.11-2.54A13.09,13.09,0,0,1,81.07,15a8.22,8.22,0,0,1,3.23,6.72H77.74a4,4,0,0,0-1.41-3.15,5.4,5.4,0,0,0-3.72-1.25,5.81,5.81,0,0,0-3.53,1A3.13,3.13,0,0,0,67.72,21,2.65,2.65,0,0,0,69,23.37a17.33,17.33,0,0,0,5.13,1.69,24.64,24.64,0,0,1,6.06,2,8.62,8.62,0,0,1,3.27,2.83,7.18,7.18,0,0,1,1.07,4,7.62,7.62,0,0,1-3.27,6.39,13.93,13.93,0,0,1-8.56,2.44,15.15,15.15,0,0,1-6.4-1.29,10.61,10.61,0,0,1-4.38-3.57A8.45,8.45,0,0,1,60.35,33h6.37a4.61,4.61,0,0,0,1.75,3.58,6.83,6.83,0,0,0,4.3,1.26,6.6,6.6,0,0,0,3.94-1A3,3,0,0,0,78.06,34.25Z"/><path class="cls-3" d="M104,5.87V13h5.16v4.86H104V34.15a3.58,3.58,0,0,0,.66,2.41,3.06,3.06,0,0,0,2.37.75A10.08,10.08,0,0,0,109.3,37v5.07a15.88,15.88,0,0,1-4.32.62q-7.56,0-7.56-8.34V17.83H92.61V13h4.81V5.87Z"/></g><g class="cls-2"><path class="cls-4" d="M132.54,42.73a13.6,13.6,0,0,1-10.12-3.93q-3.87-3.93-3.87-10.46v-.81a17.48,17.48,0,0,1,1.69-7.82A12.86,12.86,0,0,1,125,14.35a12.55,12.55,0,0,1,6.81-1.92q6,0,9.22,3.81T144.26,27v2.64h-19.1a8.81,8.81,0,0,0,2.42,5.73,7.26,7.26,0,0,0,5.33,2.1,8.89,8.89,0,0,0,7.35-3.64l3.54,3.37a11.74,11.74,0,0,1-4.69,4.07A14.68,14.68,0,0,1,132.54,42.73Zm-.79-25a5.53,5.53,0,0,0-4.36,1.89,9.82,9.82,0,0,0-2.12,5.27h12.51v-.49a8,8,0,0,0-1.76-5A5.48,5.48,0,0,0,131.75,17.7Z"/></g></g><circle class="cls-5" cx="9.41" cy="5.29" r="4.1"/><path class="cls-4" d="M51.27,59.6a2,2,0,0,0-.3-1.1,2.53,2.53,0,0,0-1-.8A10,10,0,0,0,48,57a9,9,0,0,1-2-.73,2.66,2.66,0,0,1-1-.86,2.24,2.24,0,0,1-.31-1.19,2.15,2.15,0,0,1,.94-1.8,4.07,4.07,0,0,1,2.44-.68,3.82,3.82,0,0,1,1.75.38,2.84,2.84,0,0,1,1.64,2.62h-.38a2.39,2.39,0,0,0-.84-1.88,3.13,3.13,0,0,0-2.17-.75,3.6,3.6,0,0,0-2.17.6,1.8,1.8,0,0,0-.83,1.5,1.76,1.76,0,0,0,.72,1.47,6.89,6.89,0,0,0,2.38,1,7.31,7.31,0,0,1,2.42,1,2.27,2.27,0,0,1,1,1.92,2.21,2.21,0,0,1-.44,1.36,2.59,2.59,0,0,1-1.23.91,4.59,4.59,0,0,1-1.78.32,5.23,5.23,0,0,1-2-.36,2.86,2.86,0,0,1-1.32-1.05,2.79,2.79,0,0,1-.44-1.59h.37a2.29,2.29,0,0,0,.94,1.94,4,4,0,0,0,2.44.69,3.78,3.78,0,0,0,2.2-.61A1.88,1.88,0,0,0,51.27,59.6Z"/><path class="cls-4" d="M52.87,58.11a4.35,4.35,0,0,1,.42-1.94,3.1,3.1,0,0,1,2.89-1.83,3.09,3.09,0,0,1,1.7.47,3.23,3.23,0,0,1,1.18,1.32,4.53,4.53,0,0,1,.43,1.94v.33a4.37,4.37,0,0,1-.42,2,3.24,3.24,0,0,1-4.59,1.35,3.18,3.18,0,0,1-1.18-1.33,4.44,4.44,0,0,1-.43-1.92Zm.38.29a4,4,0,0,0,.37,1.73,3,3,0,0,0,1,1.23,2.77,2.77,0,0,0,1.53.44,2.66,2.66,0,0,0,2.11-1,3.78,3.78,0,0,0,.81-2.5v-.22a4,4,0,0,0-.38-1.72,3.06,3.06,0,0,0-1-1.23,2.65,2.65,0,0,0-1.51-.44,2.58,2.58,0,0,0-2.11,1,3.73,3.73,0,0,0-.82,2.48Z"/><path class="cls-4" d="M61.89,62V54.86H60.58v-.38h1.31v-1.1a2.38,2.38,0,0,1,.53-1.64,1.86,1.86,0,0,1,1.45-.58,3,3,0,0,1,.89.12l-.06.36a3,3,0,0,0-.83-.1A1.47,1.47,0,0,0,62.7,52a2,2,0,0,0-.43,1.38v1.08h2v.38h-2V62Z"/><path class="cls-4" d="M66.67,52.44v2h1.71v.38H66.67v5.36a2.08,2.08,0,0,0,.26,1.19,1,1,0,0,0,.87.39,4.44,4.44,0,0,0,.75-.07l.06.36a2.41,2.41,0,0,1-.78.08,1.41,1.41,0,0,1-1.18-.45,2.42,2.42,0,0,1-.37-1.45V54.86H64.89v-.38h1.39v-2Z"/><path class="cls-4" d="M71.7,59.85l.41,1.63,2.22-7h.38l2.2,7,.43-1.63,1.54-5.37h.43L77.11,62h-.37l-1.87-5.68L74.52,55l-.39,1.36L72.3,62h-.38l-2.19-7.56h.43Z"/><path class="cls-4" d="M86.05,62a5.49,5.49,0,0,1-.14-1.39,3,3,0,0,1-1.22,1.13,3.85,3.85,0,0,1-1.75.39,2.45,2.45,0,0,1-1.69-.56,2,2,0,0,1,.3-3.15,4.51,4.51,0,0,1,2.5-.64h1.86V56.71a1.88,1.88,0,0,0-.59-1.47,2.52,2.52,0,0,0-1.71-.52,2.74,2.74,0,0,0-1.73.53,1.59,1.59,0,0,0-.69,1.31h-.37A1.94,1.94,0,0,1,81.63,55a3.08,3.08,0,0,1,2-.64,2.89,2.89,0,0,1,1.94.61,2.18,2.18,0,0,1,.74,1.72v3.61a4.83,4.83,0,0,0,.2,1.69V62Zm-3.11-.24a3.37,3.37,0,0,0,1.83-.48A2.86,2.86,0,0,0,85.91,60v-1.8H84.17a4.07,4.07,0,0,0-2.48.65,1.56,1.56,0,0,0-.7,1.3,1.52,1.52,0,0,0,.55,1.18A2.07,2.07,0,0,0,82.94,61.8Z"/><path class="cls-4" d="M92.05,54.76l-.48,0a2.22,2.22,0,0,0-1.62.62,3.18,3.18,0,0,0-.85,1.75V62h-.38V54.48h.38v1.57A2.74,2.74,0,0,1,90,54.8a2.5,2.5,0,0,1,1.55-.46,1.38,1.38,0,0,1,.53.08Z"/><path class="cls-4" d="M96.09,62.17a3,3,0,0,1-1.68-.49,3.42,3.42,0,0,1-1.2-1.35,4.16,4.16,0,0,1-.43-1.91v-.31a4.36,4.36,0,0,1,.42-1.92,3.28,3.28,0,0,1,1.15-1.36,2.79,2.79,0,0,1,1.6-.49,2.66,2.66,0,0,1,2.07.9,3.45,3.45,0,0,1,.8,2.37V58H93.16v.42a3.89,3.89,0,0,0,.38,1.7,3.13,3.13,0,0,0,1.07,1.23,2.65,2.65,0,0,0,1.48.45,3,3,0,0,0,1.3-.26,2.46,2.46,0,0,0,.94-.78l.27.19A2.84,2.84,0,0,1,96.09,62.17ZM96,54.72a2.46,2.46,0,0,0-1.87.82,3.49,3.49,0,0,0-.9,2.09h5.26v-.09a3.16,3.16,0,0,0-.32-1.43,2.56,2.56,0,0,0-.89-1A2.36,2.36,0,0,0,96,54.72Z"/><path class="cls-4" d="M111.45,62h-.38V57h-6.49v5h-.38V51.87h.38v4.75h6.49V51.87h.38Z"/><path class="cls-4" d="M113.47,58.11a4.35,4.35,0,0,1,.42-1.94,3.22,3.22,0,0,1,1.17-1.35,3.16,3.16,0,0,1,1.72-.48,3.13,3.13,0,0,1,2.88,1.79,4.53,4.53,0,0,1,.43,1.94v.33a4.5,4.5,0,0,1-.41,2,3.26,3.26,0,0,1-1.17,1.34,3.16,3.16,0,0,1-1.72.48,3.1,3.1,0,0,1-1.71-.47,3.18,3.18,0,0,1-1.18-1.33,4.44,4.44,0,0,1-.43-1.92Zm.38.29a4,4,0,0,0,.38,1.73,2.86,2.86,0,0,0,1,1.23,2.71,2.71,0,0,0,1.52.44,2.65,2.65,0,0,0,2.11-1,3.78,3.78,0,0,0,.81-2.5v-.22a3.84,3.84,0,0,0-.38-1.72,3.06,3.06,0,0,0-1-1.23,2.62,2.62,0,0,0-1.51-.44,2.6,2.6,0,0,0-2.11,1,3.73,3.73,0,0,0-.82,2.48Z"/><path class="cls-4" d="M127,62V60.81a2.48,2.48,0,0,1-1,1,3.26,3.26,0,0,1-1.62.36,2.33,2.33,0,0,1-1.86-.72,3.21,3.21,0,0,1-.63-2.1V54.48h.38v4.88a2.8,2.8,0,0,0,.54,1.82,2,2,0,0,0,1.55.62,2.85,2.85,0,0,0,1.76-.51,2.28,2.28,0,0,0,.86-1.5V54.48h.39V62Z"/><path class="cls-4" d="M134.41,60.18c0-.91-.79-1.54-2.35-1.87a4.49,4.49,0,0,1-2-.77,1.6,1.6,0,0,1-.55-1.29,1.64,1.64,0,0,1,.7-1.37,2.9,2.9,0,0,1,1.82-.54,3.1,3.1,0,0,1,2,.58,1.92,1.92,0,0,1,.74,1.58h-.39a1.55,1.55,0,0,0-.64-1.27,2.63,2.63,0,0,0-1.68-.51,2.56,2.56,0,0,0-1.57.43,1.39,1.39,0,0,0-.36,1.88,1.82,1.82,0,0,0,.7.52,7,7,0,0,0,1.43.45,6.61,6.61,0,0,1,1.48.51,2,2,0,0,1,.79.7,1.87,1.87,0,0,1,.24,1,1.69,1.69,0,0,1-.73,1.44,3.16,3.16,0,0,1-1.92.54,3.39,3.39,0,0,1-2-.57,1.78,1.78,0,0,1-.78-1.49h.38a1.55,1.55,0,0,0,.7,1.24,3,3,0,0,0,1.75.45,2.7,2.7,0,0,0,1.64-.47A1.39,1.39,0,0,0,134.41,60.18Z"/><path class="cls-4" d="M139.58,62.17a3,3,0,0,1-1.68-.49,3.32,3.32,0,0,1-1.19-1.35,4.16,4.16,0,0,1-.44-1.91v-.31a4.36,4.36,0,0,1,.42-1.92,3.28,3.28,0,0,1,1.15-1.36,2.82,2.82,0,0,1,1.6-.49,2.65,2.65,0,0,1,2.07.9,3.45,3.45,0,0,1,.8,2.37V58h-5.66v.42a3.76,3.76,0,0,0,.39,1.7,3,3,0,0,0,1.07,1.23,2.6,2.6,0,0,0,1.47.45,3,3,0,0,0,1.3-.26,2.46,2.46,0,0,0,.94-.78l.27.19A2.84,2.84,0,0,1,139.58,62.17Zm-.14-7.45a2.46,2.46,0,0,0-1.87.82,3.49,3.49,0,0,0-.9,2.09h5.27v-.09a3.16,3.16,0,0,0-.33-1.43,2.56,2.56,0,0,0-.89-1A2.36,2.36,0,0,0,139.44,54.72Z"/></svg>