<svg id="Layer_1" data-name="Layer 1" xmlns="http://www.w3.org/2000/svg" viewBox="0 0 105.82 40.88"><defs><style>.cls-1{fill:#e4e5e3;}.cls-2{fill:#f7f7f7;}</style></defs><title>mongodb</title><path class="cls-1" d="M16.15,5.15,17.24,7.2a5.8,5.8,0,0,0,.82,1,29.22,29.22,0,0,1,2.56,2.89,25.12,25.12,0,0,1,4,8,19.86,19.86,0,0,1,.84,5.46,19.23,19.23,0,0,1-5.63,14.21,16.27,16.27,0,0,1-2,1.71c-.38,0-.56-.3-.72-.56a4.24,4.24,0,0,1-.55-1.6,7.25,7.25,0,0,1-.18-2V36c0-.06-.36-30.73-.23-30.89Z" transform="translate(-7.09 -5.04)"/><path class="cls-2" d="M16.15,5.09c0-.09-.09,0-.14,0a2,2,0,0,1-.38,1.22,5.35,5.35,0,0,1-1,1,21.45,21.45,0,0,0-4.79,6.11,24.94,24.94,0,0,0-2.76,10,32.64,32.64,0,0,0,.81,7,21.28,21.28,0,0,0,5.6,8.8,22.91,22.91,0,0,0,2,1.69c.2,0,.22-.18.27-.31.08-.29.15-.58.2-.87.2-1.11.31-2.23.44-3.34L16.16,5.09Z" transform="translate(-7.09 -5.04)"/><path class="cls-1" d="M17.24,41.9a3.13,3.13,0,0,1,.56-1.36,1.41,1.41,0,0,1-.63-.58,5.28,5.28,0,0,1-.33-.73,12.92,12.92,0,0,1-.47-2.88v-.58a2.82,2.82,0,0,0-.13,1,22.71,22.71,0,0,1-.4,3,2.71,2.71,0,0,1-.36,1.16.44.44,0,0,0,0,.15,13.41,13.41,0,0,1,.58,3.61v.44c0,.54,0,.43.43.6a1.84,1.84,0,0,1,.55.23c.14,0,.16-.11.16-.2L17.15,45V42.94a5.92,5.92,0,0,1,.09-1Z" transform="translate(-7.09 -5.04)"/><path class="cls-1" d="M34.15,32.59v2.12a1.06,1.06,0,0,0,0,.25.52.52,0,0,0,.4.47,4.67,4.67,0,0,0,.65.13c.12,0,.16.07.18.2,0,.48,0,.53-.49.51a26.61,26.61,0,0,0-3.22,0h-.11c-.33,0-.36,0-.36-.35,0-.06,0-.13,0-.19a.14.14,0,0,1,.16-.15c.23,0,.44-.08.65-.12a.6.6,0,0,0,.49-.55,8,8,0,0,0,0-1V30.19a.57.57,0,0,0-.31-.53,3.89,3.89,0,0,0-.79-.33,1.35,1.35,0,0,1-.24-.08c-.2-.1-.21-.28,0-.4a.63.63,0,0,1,.23-.08A12,12,0,0,0,34,28.14c.16-.05.21,0,.22.13a1.15,1.15,0,0,1,0,.32,3.2,3.2,0,0,0,0,.53.18.18,0,0,0,.08.18c.07,0,.14,0,.21,0a7.9,7.9,0,0,1,.9-.61,4.34,4.34,0,0,1,1.48-.55,2.08,2.08,0,0,1,1.69.51,2.8,2.8,0,0,1,.53.61c.14.2.16.21.34.07a8.22,8.22,0,0,1,1.69-1A2.58,2.58,0,0,1,43,28.21a2.33,2.33,0,0,1,1.37,1.33,3.82,3.82,0,0,1,.32,1.56v3.74a.53.53,0,0,0,.35.53,4,4,0,0,0,.83.21c.19,0,.19,0,.19.23,0,.46-.07.49-.52.46a26.91,26.91,0,0,0-3.36,0c-.23,0-.23,0-.24-.21V36c0-.38,0-.38.35-.46l.36-.1a.56.56,0,0,0,.43-.54l.05-1,0-2.74a2.2,2.2,0,0,0-.15-.71,1.72,1.72,0,0,0-1.86-1.07,3.11,3.11,0,0,0-1.51.6.28.28,0,0,0-.15.29,21.83,21.83,0,0,1,.05,2.68v1.94a.53.53,0,0,0,.48.6l.64.14c.1,0,.16.06.16.17v.1c0,.39,0,.41-.44.41-1.11-.06-2.23,0-3.33,0-.38,0-.41,0-.39-.41s0-.24.25-.28l.46-.08c.41-.09.56-.24.58-.67l0-.94,0-2.81a2.31,2.31,0,0,0-.3-1,1.45,1.45,0,0,0-1.31-.81,2.92,2.92,0,0,0-1.63.46.83.83,0,0,0-.48.85v2Zm26.29.08v2a3,3,0,0,0,0,.42.43.43,0,0,0,.33.39,3.09,3.09,0,0,0,.74.12c.14,0,.17.07.19.19v.09c0,.49-.07.55-.55.52a26,26,0,0,0-3.18,0h-.41a.11.11,0,0,1-.12-.09,1.18,1.18,0,0,1,0-.59c0-.08.06-.1.15-.12l.57-.11a.53.53,0,0,0,.49-.58l0-1.18V30.28a.53.53,0,0,0-.32-.52,6.38,6.38,0,0,0-.8-.33,1.73,1.73,0,0,1-.24-.1.25.25,0,0,1,0-.44.47.47,0,0,1,.28-.12,11.61,11.61,0,0,0,2.59-.67c.1,0,.14,0,.18.07a.39.39,0,0,1,0,.28l0,.66c0,.08,0,.2,0,.23s.14-.07.21-.1A6.57,6.57,0,0,1,62,28.38a2.76,2.76,0,0,1,1.39-.31,2.35,2.35,0,0,1,2,1.35,3.78,3.78,0,0,1,.37,1.4l0,1v3.09a.47.47,0,0,0,.34.47,4.56,4.56,0,0,0,.75.18c.22,0,.24.07.25.28v.07c0,.48-.06.49-.53.46a27.24,27.24,0,0,0-3.13,0h-.4c-.09,0-.14,0-.16-.09a1.51,1.51,0,0,1,0-.56c0-.09,0-.13.15-.14l.64-.1a.48.48,0,0,0,.38-.41l0-.39V31.79a4.77,4.77,0,0,0-.09-1,1.62,1.62,0,0,0-1.45-1.3,2.68,2.68,0,0,0-1.76.44.78.78,0,0,0-.37.7v2.11s0,0,0,0Z" transform="translate(-7.09 -5.04)"/><path class="cls-1" d="M101.31,28.72A5.47,5.47,0,0,0,100.13,26,5.38,5.38,0,0,0,98,24.41a7.68,7.68,0,0,0-2.77-.5c-.39,0-5.72.07-6.11,0a.19.19,0,0,0-.22.09,1.52,1.52,0,0,0-.18.33c-.17.37-.17.34.23.4a7.71,7.71,0,0,1,1,.18.78.78,0,0,1,.57.59c0,.15.06,5.06.06,7.35l-.06,1.64a1.44,1.44,0,0,1-.07.36.58.58,0,0,1-.32.38,1.9,1.9,0,0,1-.59.15c-.37,0-.43.06-.55.47l0,.16c0,.18,0,.21.16.21l4.18,0,1.63,0L96,36.09a7,7,0,0,0,3.4-1.62,5.49,5.49,0,0,0,1.34-1.76,6.16,6.16,0,0,0,.6-2.49,5,5,0,0,0,0-1.5Zm-2,2a5.62,5.62,0,0,1-.7,2.54,3.84,3.84,0,0,1-2.58,2,4.35,4.35,0,0,1-1.53.09,4.89,4.89,0,0,1-1.09-.21,1.17,1.17,0,0,1-.86-1.23l0-8.41c0-.5.23-.61.59-.63a9,9,0,0,1,1.64,0,5.81,5.81,0,0,1,1.69.41,3.73,3.73,0,0,1,1.11.68,4.9,4.9,0,0,1,1.53,2.4,7.08,7.08,0,0,1,.22,2.33Zm13.62,1.37a2,2,0,0,0,0-.24,2.71,2.71,0,0,0-1.16-1.8,4.53,4.53,0,0,0-1.34-.62,1,1,0,0,0-.24-.07.13.13,0,0,1,.1-.1,3.57,3.57,0,0,0,.78-.5,2.67,2.67,0,0,0,.87-1.36,2.68,2.68,0,0,0-1-2.71,3.68,3.68,0,0,0-2.17-.68c-1.51,0-3,0-4.54,0a8.27,8.27,0,0,1-1.31,0,.25.25,0,0,0-.27.05,2.15,2.15,0,0,0-.26.58c0,.09,0,.15.12.16l1,.14a.7.7,0,0,1,.67.6,5.58,5.58,0,0,1,0,.7l0,2.61V34a4.7,4.7,0,0,1-.1.91.52.52,0,0,1-.36.42,3.06,3.06,0,0,1-.84.17.34.34,0,0,0-.36.23,1.62,1.62,0,0,0-.13.39c0,.17,0,.23.18.21s4.73.1,5.6,0a7.47,7.47,0,0,0,1.53-.28A5.2,5.2,0,0,0,112,34.65a3,3,0,0,0,.87-2,2.64,2.64,0,0,0,0-.56Zm-6.77-5.72,0-1.11a.31.31,0,0,1,.3-.35,4.19,4.19,0,0,1,1,0,4.77,4.77,0,0,1,1,.17A2.05,2.05,0,0,1,110,27a2.82,2.82,0,0,1-.17,1.15,1.53,1.53,0,0,1-1.16.95,19.22,19.22,0,0,1-2.33.05c-.21,0-.22,0-.22-.23V27.59a8.42,8.42,0,0,1,0-1.23Zm4.54,7.51a2.16,2.16,0,0,1-1.29,1.3,2.56,2.56,0,0,1-1,.18,8,8,0,0,1-1.29-.09,1.2,1.2,0,0,1-.9-1.08c-.07-.72,0-1.44,0-2V30.36c0-.23,0-.3.27-.3l1.31,0,.89.1a3.07,3.07,0,0,1,1.65.86,2.3,2.3,0,0,1,.6,1.39,3.13,3.13,0,0,1-.17,1.42Z" transform="translate(-7.09 -5.04)"/><path class="cls-1" d="M75.22,29.66l.36.05a.89.89,0,0,0,1-.67,1.33,1.33,0,0,0,0-.79c-.08,0-.12.06-.16.09a1.37,1.37,0,0,1-.7.3,3.29,3.29,0,0,1-1.49-.16l-.69-.23a3.93,3.93,0,0,0-1.48-.2,5.31,5.31,0,0,0-2,.63,2.75,2.75,0,0,0-1.37,1.65,3.27,3.27,0,0,0-.08,1.32,2.48,2.48,0,0,0,1.62,2.11l.15.06c.13.07.14.14,0,.23l-.35.24-.84.52a.31.31,0,0,0-.17.44,1.48,1.48,0,0,0,.45.67,2.12,2.12,0,0,0,.64.39c.16.07.16.11,0,.23l-.8.57a5.28,5.28,0,0,0-.75.67A1.39,1.39,0,0,0,68.25,39,2.38,2.38,0,0,0,69,40.29a2.88,2.88,0,0,0,1.28.7,5.51,5.51,0,0,0,5.32-1.49,3.06,3.06,0,0,0,.89-2,2,2,0,0,0-1.51-2l-.75-.14-2.3-.21a1.44,1.44,0,0,1-.71-.18.48.48,0,0,1-.17-.7.64.64,0,0,1,.47-.26l.45,0a4.06,4.06,0,0,0,2.36-1.08A2.52,2.52,0,0,0,75,31.63a3.7,3.7,0,0,0,0-1.84c0-.15,0-.17.16-.14Zm-3.42,7h.25a8,8,0,0,1,1.76.22,4.33,4.33,0,0,1,.54.21,1.34,1.34,0,0,1,.7,1.41,1.75,1.75,0,0,1-1,1.37,3,3,0,0,1-1.18.33,3.38,3.38,0,0,1-.45,0A3.29,3.29,0,0,1,71,39.92a2.34,2.34,0,0,1-.83-.56,1.45,1.45,0,0,1,0-2.11A2,2,0,0,1,71.8,36.61Zm1.59-4.36a1.36,1.36,0,0,1-1.58.87,1.68,1.68,0,0,1-1.29-.94A3,3,0,0,1,70.27,30a1.36,1.36,0,0,1,1.11-1.1,1.72,1.72,0,0,1,1.93.92,3.11,3.11,0,0,1,.29,1.49,3,3,0,0,1-.21,1ZM55.81,31.3a4,4,0,0,0-.92-2A3.73,3.73,0,0,0,52,28.06a5,5,0,0,0-2.68.77A3.62,3.62,0,0,0,47.73,31a4.73,4.73,0,0,0,0,2.45,3.73,3.73,0,0,0,4.23,3,4.68,4.68,0,0,0,1.71-.5,3.75,3.75,0,0,0,1.8-1.78A4.61,4.61,0,0,0,55.88,32l-.07-.71Zm-2,3.1a1.7,1.7,0,0,1-1.44,1.17,2.31,2.31,0,0,1-1.7-.43,2.8,2.8,0,0,1-.88-1,5.36,5.36,0,0,1-.38-3.65,2.07,2.07,0,0,1,.59-1A1.87,1.87,0,0,1,51.8,29a2.57,2.57,0,0,1,1.54,1A4,4,0,0,1,54,31.78a6,6,0,0,1,.07.86,4.66,4.66,0,0,1-.26,1.76Zm32.47-3a3.76,3.76,0,0,0-1-2.17,3.71,3.71,0,0,0-2.82-1.18,4.9,4.9,0,0,0-2.59.71,3.54,3.54,0,0,0-1.75,2.3,4.88,4.88,0,0,0,.34,3.32,3.35,3.35,0,0,0,2.27,1.88,4.6,4.6,0,0,0,3.3-.34,3.86,3.86,0,0,0,2-2.1A5,5,0,0,0,86.34,32a2.58,2.58,0,0,0,0-.58Zm-1.93,2.8a1.72,1.72,0,0,1-1.49,1.35,2.28,2.28,0,0,1-1.65-.39,2.79,2.79,0,0,1-1-1.14,4.47,4.47,0,0,1-.45-1.54,5.57,5.57,0,0,1,.07-1.95,2.84,2.84,0,0,1,.13-.38A1.89,1.89,0,0,1,82.29,29a2.61,2.61,0,0,1,1.6,1.11,4.26,4.26,0,0,1,.64,1.84,3.46,3.46,0,0,1,0,.78,4.84,4.84,0,0,1-.2,1.53Z" transform="translate(-7.09 -5.04)"/></svg>