<svg id="Layer_1" data-name="Layer 1" xmlns="http://www.w3.org/2000/svg" viewBox="0 0 85.2 44.24"><defs><style>.cls-1{fill:#f2f8f9;fill-rule:evenodd;}</style></defs><title>mysql</title><path class="cls-1" d="M18,45h2.81V33.9l4.39,9.72a2.41,2.41,0,0,0,2.6,1.6,2.39,2.39,0,0,0,2.57-1.6l4.37-9.72V45h2.83V33.9A1.7,1.7,0,0,0,36.23,32c-2.14-.65-3.57-.08-4.22,1.36L27.71,43l-4.15-9.61c-.63-1.44-2.08-2-4.24-1.36A1.7,1.7,0,0,0,18,33.9V45ZM39.91,36h2.83V42.1c0,.35.11,1.13,1.65,1.15.8,0,6.1,0,6.15,0V35.94h2.83V46c0,2.47-3.06,3-4.48,3H40V47.1h8.93c1.82-.2,1.6-1.1,1.6-1.41V45h-6c-2.79,0-4.58-1.26-4.6-2.66V36Zm60.78-7.09a10,10,0,0,0-4.2.6c-.32.13-.84.13-.88.54.17.18.19.46.34.7A5.06,5.06,0,0,0,97.08,32c.45.35.91.7,1.38,1,.84.52,1.8.82,2.62,1.34.47.3,1,.69,1.43,1,.24.17.38.45.69.56v-.07c-.15-.19-.2-.47-.35-.69l-.65-.63A10.12,10.12,0,0,0,100,32.39c-.69-.48-2.2-1.12-2.48-1.92l0,0a8.57,8.57,0,0,0,1.5-.34c.73-.2,1.4-.16,2.16-.35l1-.3v-.2c-.39-.39-.67-.91-1.08-1.27a30.08,30.08,0,0,0-3.57-2.66,23.23,23.23,0,0,0-2.25-1.08c-.26-.13-.7-.2-.85-.42a8.47,8.47,0,0,1-.88-1.66c-.63-1.19-1.24-2.51-1.78-3.76a22,22,0,0,0-1.1-2.47,21.83,21.83,0,0,0-8.37-8.09,10.64,10.64,0,0,0-2.76-.89l-1.63-.08a9.27,9.27,0,0,1-1-.76c-1.23-.78-4.41-2.47-5.32-.24-.59,1.41.86,2.79,1.35,3.51A9.89,9.89,0,0,1,74,11c.14.37.19.75.34,1.14A24.57,24.57,0,0,0,75.47,15a10.54,10.54,0,0,0,.8,1.34c.17.24.47.35.54.74a6.53,6.53,0,0,0-.5,1.62A9.54,9.54,0,0,0,76.94,26c.35.54,1.16,1.73,2.27,1.28s.76-1.63,1-2.71c.06-.26,0-.43.15-.6v0l.89,1.79a12.3,12.3,0,0,0,2.81,2.9c.52.39.93,1.06,1.58,1.3v-.06h-.05a2.27,2.27,0,0,0-.49-.44A10.44,10.44,0,0,1,84,28.2a28.09,28.09,0,0,1-2.42-3.94c-.35-.67-.65-1.41-.93-2.08-.13-.26-.13-.65-.35-.78a8.8,8.8,0,0,0-1,1.47,12.2,12.2,0,0,0-.6,3.27c-.09,0,0,0-.09,0-.69-.17-.93-.88-1.19-1.49a9.35,9.35,0,0,1-.19-5.77c.15-.46.8-1.88.54-2.32s-.56-.65-.8-1a9.39,9.39,0,0,1-.78-1.38c-.52-1.22-.78-2.56-1.34-3.77a11.49,11.49,0,0,0-1.08-1.66,10.88,10.88,0,0,1-1.19-1.69c-.11-.24-.26-.63-.09-.89a.35.35,0,0,1,.3-.28c.29-.24,1.09.07,1.37.2a10.47,10.47,0,0,1,2.14,1.08c.3.21.63.62,1,.73h.45c.69.15,1.47,0,2.12.24A14,14,0,0,1,83,9.7a19.19,19.19,0,0,1,6.75,7.4c.26.5.37.95.61,1.47.45,1.06,1,2.14,1.47,3.18a14.26,14.26,0,0,0,1.53,2.9c.33.45,1.63.69,2.21.93a14.08,14.08,0,0,1,1.49.61c.74.45,1.47,1,2.16,1.47.35.26,1.43.8,1.5,1.23ZM78.63,10.09a3.27,3.27,0,0,0-.88.11v0h0a6,6,0,0,0,.69.89l.5,1,0-.05A1.22,1.22,0,0,0,79.48,11a3.47,3.47,0,0,1-.26-.45c-.13-.22-.41-.33-.59-.5Z" transform="translate(-18 -4.74)"/><path class="cls-1" d="M55.53,45h8.13a6.16,6.16,0,0,0,2.6-.54,2.54,2.54,0,0,0,1.81-2.31V40.11c0-.8-.67-1.56-2-2.07a7.06,7.06,0,0,0-2.4-.41H60.24c-1.14,0-1.68-.35-1.84-1.11a1.1,1.1,0,0,1,0-.26V35a1.06,1.06,0,0,1,0-.24c.16-.59.46-.74,1.46-.84h8.33V32H60.27a7.36,7.36,0,0,0-2.29.24c-1.67.52-2.4,1.34-2.4,2.79V36.7c0,1.27,1.42,2.35,3.85,2.61.25,0,.54,0,.82,0h2.92a1,1,0,0,1,.3,0c.89.08,1.28.23,1.54.56a.65.65,0,0,1,.21.52v1.64a1,1,0,0,1-.39.67,2,2,0,0,1-1.21.39l-.28,0H55.53Zm30.15-3.26c0,1.92,1.45,3,4.35,3.22.28,0,.54,0,.82,0H98.2V43.16H90.78c-1.64,0-2.27-.41-2.27-1.4V32H85.67v9.76Zm-15.81.08v-6.7c0-1.71,1.21-2.75,3.57-3.07.26,0,.52-.05.75-.05h5.37c.28,0,.52,0,.8.05,2.35.32,3.54,1.36,3.54,3.07v6.7a2.46,2.46,0,0,1-1.66,2.62L85,47H81.74l-2.25-2-2.27.13h-3a7,7,0,0,1-1.64-.22C70.75,44.37,69.87,43.42,69.87,41.86Zm3-.15c0,.09,0,.18.06.28.15.78.89,1.22,2,1.22h2.56l-2.34-2.12h3.27l2,1.86a1.34,1.34,0,0,0,.71-.91.92.92,0,0,0,0-.28V35.33a.8.8,0,0,0,0-.26c-.15-.73-.88-1.14-2-1.14H75c-1.25,0-2.07.54-2.07,1.4Z" transform="translate(-18 -4.74)"/></svg>