<svg id="Layer_1" data-name="Layer 1" xmlns="http://www.w3.org/2000/svg" viewBox="0 0 21.28 24"><defs><style>.cls-1{fill:#fff;}</style></defs><title>node-dot-js-svgrepo-com</title><path class="cls-1" d="M12,24a1.77,1.77,0,0,1-.92-.25L8.14,22c-.44-.25-.22-.34-.08-.39A5.91,5.91,0,0,0,9.39,21a.22.22,0,0,1,.22,0l2.25,1.34a.32.32,0,0,0,.27,0l8.8-5.08a.28.28,0,0,0,.13-.24V6.92a.28.28,0,0,0-.13-.24L12.14,1.61a.28.28,0,0,0-.28,0L3.08,6.68a.27.27,0,0,0-.14.24V17.07a.27.27,0,0,0,.14.24l2.4,1.39c1.31.65,2.11-.12,2.11-.89v-10a.26.26,0,0,1,.26-.26H9a.26.26,0,0,1,.26.26v10a2.44,2.44,0,0,1-2.61,2.74,3.77,3.77,0,0,1-2-.55L2.28,18.67a1.84,1.84,0,0,1-.92-1.6V6.92a1.85,1.85,0,0,1,.92-1.6L11.07.24a1.9,1.9,0,0,1,1.85,0l8.8,5.08a1.85,1.85,0,0,1,.92,1.6V17.07a1.85,1.85,0,0,1-.92,1.6l-8.8,5.08A1.77,1.77,0,0,1,12,24Zm7.1-10c0-1.9-1.28-2.4-4-2.76s-3-.55-3-1.19.24-1.23,2.26-1.23c1.81,0,2.47.39,2.75,1.61a.26.26,0,0,0,.25.2H18.5a.27.27,0,0,0,.25-.28c-.18-2.1-1.57-3.08-4.39-3.08-2.51,0-4,1.06-4,2.84s1.49,2.45,3.89,2.69c2.88.28,3.11.7,3.11,1.27,0,1-.79,1.4-2.65,1.4-2.32,0-2.84-.58-3-1.74a.25.25,0,0,0-.25-.21H10.31a.25.25,0,0,0-.25.25c0,1.48.8,3.25,4.65,3.25C17.5,17,19.1,15.91,19.1,14Z" transform="translate(-1.36 0)"/></svg>