<svg width="472" height="630" viewBox="0 0 472 630" fill="none" xmlns="http://www.w3.org/2000/svg">
<g clip-path="url(#clip0)">
<path d="M231.536 236.729C215.473 270.133 199.498 314.183 191.067 321.062C174.35 334.684 155.288 339.471 137.801 339.113C137.801 339.113 125.07 315.101 116.067 319.389C111.949 321.35 107.524 327.681 114.993 341.441C115.301 342.007 115.787 342.488 116.228 343.027C116.228 343.027 102.516 342.301 90.2815 330.661C76.7235 317.76 73.6016 327.751 72.572 333.825C71.5424 339.899 69.4172 373.463 92.4499 388.069C115.594 402.745 169.746 410.567 211.248 368.792L241.665 325.009L231.536 236.729Z" fill="white"/>
<path d="M446.679 422.783C426.962 447.603 376.838 438.07 376.838 438.07L378.63 308.558L379.192 268.183L379.243 264.481L379.667 233.87C379.667 233.87 398.407 234.67 417.022 239.926C420.111 240.796 423.225 241.793 426.231 242.941C427.498 243.414 428.743 243.918 429.971 244.443C440.397 248.947 449.192 255.344 452.377 264.372C463.446 295.772 462.89 402.379 446.679 422.783Z" fill="white"/>
<g opacity="0.35">
<path opacity="0.35" d="M459.883 335.392C459.945 372.656 455.779 411.324 446.682 422.783C426.966 447.607 376.834 438.07 376.834 438.07L378.969 393.174C378.969 393.174 429.102 402.712 448.817 377.887C454.157 371.159 457.797 355.066 459.883 335.392Z" fill="#371A45"/>
</g>
<path d="M398.575 443.628C386.115 443.628 376.591 441.846 376.13 441.76C375.645 441.668 375.183 441.481 374.77 441.211C374.358 440.94 374.002 440.591 373.725 440.184C373.447 439.776 373.252 439.318 373.152 438.835C373.052 438.353 373.047 437.855 373.14 437.37C373.232 436.886 373.419 436.425 373.689 436.013C373.96 435.6 374.31 435.245 374.718 434.968C375.126 434.691 375.584 434.496 376.068 434.396C376.551 434.296 377.049 434.292 377.534 434.384C377.74 434.423 386.906 436.099 398.67 436.099C413.909 436.099 433.537 433.288 443.733 420.451C446.093 417.48 449.484 410.349 452.248 393.244C454.293 380.594 455.586 364.816 455.991 347.614C456.815 313.046 453.932 280.095 448.825 265.618C444.33 252.866 426.079 245.934 411.553 242.375C395.149 238.342 379.657 237.63 379.501 237.622C378.517 237.562 377.597 237.119 376.938 236.387C376.278 235.656 375.933 234.696 375.976 233.713C376.018 232.73 376.446 231.803 377.166 231.131C377.886 230.46 378.841 230.097 379.826 230.123C380.483 230.149 396.121 230.863 413.237 235.059C423.418 237.554 431.999 240.775 438.741 244.632C447.596 249.698 453.362 255.924 455.911 263.144C459.389 273.017 461.234 288.203 462.169 299.203C463.419 313.945 463.895 331.206 463.502 347.809C463.065 366.354 460.837 411.009 449.616 425.136C444.674 431.364 437.625 436.099 428.676 439.209C421.726 441.624 413.604 443.07 404.537 443.504C402.5 443.584 400.495 443.628 398.575 443.628Z" fill="#371A45"/>
<path d="M455.936 350.996L421.635 353.003C420.146 353.087 418.727 353.663 417.602 354.641C416.477 355.618 415.708 356.941 415.418 358.402C413.237 369.409 409.52 395.091 420.132 403.767C428.939 410.966 443.44 410.378 452.05 403.339C461.679 395.468 463.022 370.24 463.073 357.742C463.077 356.822 462.893 355.911 462.53 355.066C462.168 354.22 461.636 353.457 460.967 352.825C460.298 352.193 459.507 351.704 458.641 351.389C457.776 351.075 456.855 350.941 455.936 350.996Z" fill="white"/>
<g opacity="0.35">
<path opacity="0.35" d="M415.42 358.406C413.233 369.409 409.523 395.093 420.134 403.765C428.943 410.964 443.44 410.378 452.052 403.337C457.97 398.493 460.759 387.088 462.038 376.116C460.405 381.579 457.909 385.989 454.847 388.869C437.302 405.344 424.738 385.372 424.738 385.372C424.738 385.372 422.422 390.134 420.634 390.374C413.161 391.389 415.074 368.103 416.361 356.076C415.9 356.785 415.58 357.576 415.42 358.406Z" fill="#371A45"/>
</g>
<path d="M435.609 412.661C429.094 412.661 422.636 410.67 417.751 406.671C412.257 402.179 409.387 393.884 409.22 382.011C409.094 373.008 410.517 363.806 411.732 357.672C412.185 355.397 413.381 353.336 415.132 351.813C416.884 350.29 419.092 349.39 421.411 349.255L455.711 347.248C457.143 347.164 458.577 347.373 459.925 347.864C461.272 348.354 462.505 349.115 463.547 350.1C464.589 351.084 465.418 352.272 465.983 353.589C466.547 354.905 466.836 356.324 466.831 357.757C466.804 364.227 466.44 373.843 464.854 382.92C462.826 394.538 459.416 402.169 454.43 406.246C449.204 410.516 442.372 412.661 435.609 412.661ZM456.156 354.743L421.853 356.751C421.196 356.787 420.569 357.041 420.072 357.472C419.574 357.902 419.234 358.486 419.104 359.131C417.959 364.91 416.619 373.555 416.736 381.906C416.868 391.325 418.865 397.88 422.512 400.863C429.72 406.764 442.166 406.569 449.667 400.435C455.617 395.57 459.222 379.605 459.313 357.726C459.315 357.319 459.233 356.916 459.073 356.542C458.913 356.168 458.677 355.831 458.382 355.551C458.086 355.272 457.735 355.056 457.353 354.917C456.97 354.778 456.563 354.719 456.156 354.743Z" fill="#371A45"/>
<path d="M426.351 365.307C426.612 367.364 426.734 369.446 426.872 371.513C427.009 373.58 427.139 375.645 427.329 377.684C427.703 381.777 428.282 385.835 429.402 389.638C429.939 391.504 430.652 393.315 431.534 395.046C432.368 396.685 433.428 398.2 434.682 399.546C435.88 400.816 437.281 401.877 438.827 402.687C440.376 403.478 442.03 404.043 443.739 404.368C444.248 404.469 444.731 404.674 445.158 404.97C445.584 405.267 445.945 405.648 446.217 406.09C446.489 406.532 446.667 407.025 446.739 407.539C446.811 408.053 446.777 408.577 446.637 409.076C446.497 409.576 446.256 410.042 445.928 410.444C445.599 410.846 445.192 411.177 444.73 411.414C444.268 411.651 443.762 411.791 443.243 411.824C442.725 411.857 442.205 411.783 441.717 411.606L441.647 411.579C439.368 410.766 437.219 409.631 435.263 408.208C433.322 406.775 431.632 405.03 430.263 403.045C428.958 401.134 427.926 399.05 427.197 396.854C426.503 394.759 426.009 392.602 425.722 390.414C425.144 386.115 425.201 381.88 425.446 377.712C425.572 375.629 425.751 373.558 425.93 371.492C426.11 369.427 426.299 367.381 426.351 365.307Z" fill="#371A45"/>
<path d="M434.925 263.652C434.425 263.221 433.861 262.87 433.253 262.611C432.657 262.346 432.043 262.122 431.416 261.942C430.163 261.58 428.889 261.295 427.601 261.089C425.025 260.682 422.427 260.429 419.821 260.332C417.218 260.223 414.617 260.239 412.033 260.363C409.457 260.484 406.89 260.745 404.343 261.144C403.077 261.35 401.821 261.582 400.577 261.856C399.333 262.13 398.106 262.453 396.901 262.81C395.697 263.168 394.504 263.571 393.345 264.024C392.186 264.476 391.055 264.976 389.964 265.536C388.877 266.08 387.825 266.689 386.811 267.358L386.072 267.87L385.353 268.405C384.881 268.769 384.418 269.139 383.977 269.532C383.102 270.313 382.286 271.157 381.535 272.058C380.794 272.956 380.124 273.911 379.532 274.913L379.513 274.946C379.148 275.572 378.553 276.03 377.855 276.224C377.156 276.417 376.41 276.329 375.775 275.98C375.14 275.631 374.667 275.048 374.457 274.355C374.247 273.662 374.317 272.914 374.651 272.272C375.336 270.936 376.149 269.67 377.079 268.492C378.001 267.316 379.026 266.226 380.143 265.233C380.693 264.736 381.268 264.271 381.85 263.818L382.742 263.168L383.654 262.551C384.876 261.767 386.145 261.059 387.456 260.433C390.029 259.22 392.72 258.275 395.487 257.613C398.2 256.952 400.961 256.503 403.744 256.272C409.234 255.783 414.765 256.026 420.191 256.994C422.896 257.473 425.551 258.197 428.124 259.157C429.414 259.645 430.663 260.237 431.857 260.926C432.456 261.275 433.025 261.671 433.56 262.111C433.828 262.33 434.079 262.569 434.312 262.825C434.547 263.077 434.753 263.354 434.925 263.652Z" fill="#371A45"/>
<g opacity="0.35">
<path opacity="0.35" d="M426.235 242.939C413.315 252.137 397.29 259.528 379.247 264.479L379.671 233.868C379.671 233.868 398.411 234.668 417.026 239.924C420.117 240.794 423.225 241.791 426.235 242.939Z" fill="#371A45"/>
</g>
<g opacity="0.35">
<path opacity="0.35" d="M241.659 325.001L211.25 368.782C169.752 410.559 115.59 402.733 92.4519 388.059C84.1428 382.793 79.108 375.045 76.12 367.023C78.4737 369.789 74.1596 342.318 77.4935 344.432C78.7291 345.214 79.4931 356.677 89.4248 368.199C94.2537 373.8 101.706 378.289 110.779 381.141C113.456 381.985 111.35 384.675 114.325 385.006C168.483 391.027 183.553 369.886 192.441 349.175L226.515 247.522C228.185 243.844 229.867 240.228 231.55 236.731L241.659 325.001Z" fill="#371A45"/>
</g>
<path d="M138.103 403.572C130.004 403.581 121.932 402.639 114.053 400.766C105.036 398.612 96.8649 395.315 90.4236 391.23C84.598 387.528 79.8143 382.458 76.2148 376.137C73.2927 371.019 71.1346 365.079 69.8002 358.483C67.5495 347.351 68.2043 337.068 68.8653 333.183C69.2916 330.675 70.5889 323.046 76.5978 321.047C81.1158 319.55 86.441 321.798 92.8803 327.925C97.5005 332.322 103.041 335.638 109.101 337.634C107.042 332.237 106.652 327.506 107.952 323.518C109.054 320.132 111.364 317.456 114.455 315.983C116.749 314.891 120.503 314.272 125.369 317.526C127.871 319.204 130.532 321.821 133.276 325.303C135.753 328.497 138.008 331.856 140.027 335.357C153.159 335.287 171.601 332.066 188.705 318.135C190.073 317.02 192.789 313.451 197.953 302.776C201.954 294.509 206.518 283.927 211.338 272.721C216.783 260.089 222.415 247.03 228.154 235.092C228.507 234.358 229.089 233.759 229.813 233.385C230.537 233.011 231.363 232.881 232.166 233.017C232.97 233.152 233.707 233.544 234.268 234.135C234.829 234.726 235.182 235.482 235.275 236.291L245.396 324.562C245.501 325.468 245.271 326.38 244.752 327.129L214.333 370.914C214.21 371.094 214.072 371.263 213.921 371.418C189.86 395.632 163.269 402.14 145.204 403.337C142.833 403.493 140.466 403.572 138.103 403.572ZM79.3716 328.131C79.2325 328.127 79.0935 328.144 78.9597 328.183C78.6715 328.279 77.1888 329.03 76.2662 334.444C75.8009 337.183 75.0513 346.579 77.1579 356.995C79.7649 369.882 85.5823 379.267 94.4556 384.891C104.313 391.142 122.69 397.302 144.701 395.846C161.418 394.739 186.003 388.721 208.332 366.371L237.752 324.021L229.309 250.397C225.553 258.701 221.849 267.297 218.225 275.697C206.666 302.513 199.279 319.19 193.433 323.958C173.609 340.11 152.193 343.153 137.712 342.854C137.042 342.84 136.388 342.648 135.818 342.297C135.248 341.946 134.782 341.449 134.469 340.857C134.438 340.802 131.353 335.024 127.294 329.888C122.653 324.013 119.117 322.072 117.676 322.765C116.973 323.1 115.701 323.945 115.083 325.85C114.053 329.028 115.184 333.923 118.279 339.631C118.341 339.726 118.541 339.956 118.691 340.125C118.841 340.293 118.989 340.468 119.136 340.647C119.596 341.211 119.882 341.895 119.96 342.618C120.038 343.341 119.904 344.071 119.574 344.719C119.245 345.368 118.734 345.907 118.104 346.27C117.473 346.634 116.751 346.807 116.024 346.769C115.406 346.736 100.786 345.827 87.6848 333.372C82.7817 328.703 80.2941 328.131 79.3716 328.131Z" fill="#371A45"/>
<path d="M71.8986 366.54C71.0578 363.734 70.6013 360.828 70.5416 357.901C70.4636 354.948 70.7724 351.997 71.46 349.124C71.633 348.394 71.8423 347.665 72.0881 346.935C72.2137 346.571 72.329 346.207 72.4773 345.843C72.6255 345.479 72.7553 345.117 72.9241 344.757C73.5847 343.229 74.4484 341.797 75.492 340.499L75.9368 339.991L76.1613 339.74L76.4104 339.496C76.5772 339.333 76.742 339.171 76.9129 339.01L77.473 338.551C77.5677 338.477 77.6563 338.399 77.7572 338.327L78.0681 338.122C78.274 337.984 78.48 337.842 78.7003 337.71C78.9206 337.578 79.1533 337.463 79.3819 337.346L79.5528 337.258L79.7361 337.182L80.1047 337.031C81.0951 336.626 82.1522 336.407 83.2224 336.385H83.6198H83.8258L83.9926 336.396C84.217 336.412 84.4333 336.42 84.6639 336.449C85.13 336.498 85.5928 336.575 86.0498 336.68C87.0331 336.9 87.9763 337.272 88.8462 337.78C89.7064 338.295 90.4765 338.948 91.1258 339.711C91.6946 340.383 92.1864 341.117 92.592 341.898C92.9453 342.58 93.2574 343.283 93.5269 344.002C94.0417 345.356 94.4206 346.623 94.8201 347.83C95.19 348.995 95.6238 350.139 96.1195 351.257C97.2919 353.993 99.2829 356.299 101.819 357.859C102.34 358.186 102.888 358.489 103.45 358.773C104.606 359.334 105.799 359.815 107.021 360.213C107.146 360.253 107.252 360.337 107.319 360.449C107.386 360.561 107.411 360.694 107.388 360.823C107.364 360.952 107.295 361.068 107.193 361.149C107.091 361.231 106.963 361.273 106.832 361.268C105.461 361.216 104.097 361.039 102.759 360.737C101.372 360.427 100.029 359.951 98.7574 359.318C98.1035 358.993 97.472 358.626 96.867 358.217C96.2586 357.798 95.678 357.34 95.129 356.845C94.04 355.85 93.0723 354.731 92.246 353.509C90.5986 351.115 89.4702 348.494 88.3129 346.403C87.7322 345.374 87.1226 344.496 86.5481 344.027C86.3044 343.818 86.0255 343.653 85.7244 343.541C85.4287 343.436 85.1194 343.374 84.806 343.356C84.6146 343.346 84.4228 343.346 84.2315 343.356C84.1347 343.356 84.0255 343.371 83.9164 343.375H83.8361L83.7867 343.389L83.6919 343.412C83.5689 343.436 83.4478 343.469 83.3295 343.511C83.2139 343.563 83.1018 343.623 82.9938 343.69C82.5511 343.936 82.0548 344.469 81.5688 345.173C81.0508 345.996 80.6274 346.875 80.3065 347.793C80.2139 348.034 80.1335 348.293 80.0512 348.548C79.9688 348.803 79.8967 349.066 79.8205 349.33C79.7443 349.593 79.6846 349.864 79.6146 350.132C79.5446 350.399 79.4911 350.679 79.4313 350.954C78.9879 353.225 78.7583 355.532 78.7456 357.845C78.7362 360.19 78.8966 362.532 79.2254 364.853L79.2378 364.945C79.3688 365.883 79.1411 366.835 78.6001 367.613C78.0592 368.39 77.2448 368.935 76.3194 369.139C75.3939 369.343 74.4255 369.191 73.6072 368.714C72.789 368.236 72.1811 367.468 71.9048 366.562L71.8986 366.54Z" fill="#371A45"/>
<path d="M289.427 613.586C279.644 619.495 263.083 624.613 239.649 624.594C206.876 624.574 180.126 623.072 180.402 599.515C180.621 580.82 212.899 572.393 212.899 572.393C198.516 519.905 195.173 474.46 196.3 433.257C196.687 419.424 197.566 406.065 198.705 393.071L308.214 413.346C301.06 442.772 298.42 471.35 297.658 497.327C295.858 558.153 304.365 604.575 289.427 613.586Z" fill="white"/>
<g opacity="0.35">
<path opacity="0.35" d="M308.214 413.346C307.738 415.294 307.283 417.23 306.859 419.167C306.669 419.978 306.491 420.788 306.323 421.598C306.087 422.673 305.86 423.751 305.642 424.83C305.345 426.251 305.057 427.664 304.789 429.067C304.701 429.522 304.612 429.976 304.534 430.431C304.355 431.379 304.178 432.319 304.009 433.257C303.772 434.571 303.533 435.886 303.317 437.2C303.169 438.049 303.029 438.899 302.891 439.748C302.308 443.375 301.778 446.982 301.299 450.57C301.002 452.783 300.735 454.986 300.475 457.178C300.337 458.355 300.207 459.521 300.08 460.688C299.971 461.695 299.861 462.703 299.773 463.711C299.604 465.357 299.445 467.002 299.308 468.648C299.209 469.765 299.102 470.881 299.021 471.988C298.892 473.557 298.784 475.129 298.665 476.69C298.595 477.69 298.527 478.677 298.478 479.664C298.408 480.604 298.358 481.532 298.298 482.462C298.2 484.083 298.121 485.701 298.041 487.304C298.041 487.413 298.031 487.509 298.022 487.629C297.874 490.899 297.745 494.141 297.656 497.333C295.856 558.159 304.363 604.581 289.419 613.592C279.635 619.502 263.075 624.619 239.641 624.601C213.455 624.58 191.108 623.622 183.343 611.221C194.206 615.203 209.973 615.639 227.462 615.647C250.899 615.658 267.467 610.54 277.251 604.641C287.57 598.415 286.699 574.337 285.764 539.991C285.127 516.614 270.892 495.552 249.171 486.826C223.019 476.32 202.414 458.262 196.292 433.263C196.679 419.43 197.558 406.071 198.697 393.078L294.534 410.824L308.214 413.346Z" fill="#371A45"/>
</g>
<path d="M239.733 628.361H239.643C214.878 628.348 193.532 627.478 183.112 616.941C178.736 612.517 176.56 606.642 176.644 599.482C176.753 590.403 183.073 582.167 194.924 575.663C199.207 573.347 203.686 571.412 208.309 569.879C199.936 538.436 194.967 507.697 193.135 476.04C191.646 450.308 192.222 423.844 194.949 392.755C195.04 391.766 195.519 390.854 196.282 390.217C197.045 389.581 198.029 389.272 199.02 389.359C200.01 389.446 200.925 389.921 201.565 390.68C202.206 391.44 202.519 392.421 202.436 393.411C198.277 440.84 196.693 499.079 216.511 571.416L217.514 575.079L213.836 576.038C213.76 576.058 206.011 578.117 198.415 582.309C191.959 585.872 184.243 591.756 184.15 599.57C184.088 604.723 185.495 608.678 188.448 611.665C196.819 620.129 217.436 620.841 239.637 620.853H239.723C266.174 620.853 280.994 614.298 287.477 610.388C290.992 608.267 293.156 602.296 294.095 592.133C295.067 581.622 294.682 567.471 294.235 551.086C293.241 514.602 291.878 464.641 304.546 412.474C304.781 411.506 305.391 410.672 306.243 410.154C307.094 409.636 308.116 409.477 309.085 409.711C310.053 409.946 310.889 410.556 311.407 411.406C311.926 412.256 312.085 413.277 311.85 414.245C299.419 465.437 300.765 514.827 301.748 550.88C302.713 586.229 303.35 609.583 291.363 616.813C284.221 621.118 268.005 628.361 239.733 628.361Z" fill="#371A45"/>
<path d="M103.819 393.686C103.819 393.686 86.4966 386.637 87.9257 374.306C89.2807 362.607 97.4374 357.462 101.21 358.147C106.914 359.176 104.807 375.308 104.807 375.308C104.807 375.308 120.147 371.789 126.224 375.164" fill="white"/>
<g opacity="0.35">
<path opacity="0.35" d="M114.315 385.008L103.813 393.684C103.813 393.684 86.4904 386.637 87.9154 374.306C88.3396 370.62 89.4392 367.597 90.8725 365.186C90.8725 365.443 90.8539 365.7 90.8539 365.968C90.8189 381.224 108.981 384.414 114.315 385.008Z" fill="#371A45"/>
</g>
<path d="M261.683 529.085C253.865 529.073 246.065 528.327 238.387 526.855C225.166 524.342 211.903 519.689 198.966 513.029C198.311 512.692 197.817 512.109 197.592 511.408C197.367 510.707 197.43 509.945 197.767 509.29C198.104 508.636 198.688 508.142 199.39 507.917C200.092 507.692 200.854 507.755 201.51 508.092C229.571 522.542 253.814 524.325 269.22 523.278C285.926 522.143 296.136 517.519 296.237 517.478C296.902 517.189 297.653 517.172 298.331 517.43C299.008 517.687 299.558 518.199 299.862 518.857C300.166 519.514 300.202 520.263 299.96 520.946C299.718 521.628 299.218 522.189 298.568 522.509C298.125 522.715 287.531 527.544 269.891 528.789C267.177 528.987 264.441 529.086 261.683 529.085Z" fill="#371A45"/>
<path d="M211.853 569.237L212.125 569.165L212.362 569.108L212.821 569.003C213.124 568.935 213.42 568.877 213.717 568.818L214.602 568.651L215.486 568.501C216.657 568.312 217.827 568.16 218.986 568.028C221.32 567.778 223.654 567.633 225.988 567.592C230.618 567.502 235.248 567.796 239.83 568.47C240.969 568.627 242.095 568.836 243.232 569.034C243.796 569.141 244.356 569.262 244.919 569.375L245.761 569.55L246.599 569.756C248.833 570.254 251.032 570.893 253.209 571.568C257.527 572.962 261.728 574.697 265.771 576.757C261.548 575.223 257.21 574.026 252.797 573.178C250.598 572.786 248.399 572.428 246.183 572.216L245.359 572.125L244.536 572.057C243.982 572.016 243.43 571.965 242.876 571.93C241.768 571.874 240.664 571.806 239.556 571.794C235.155 571.69 230.752 571.951 226.394 572.574C224.229 572.884 222.084 573.285 219.975 573.777C218.925 574.028 217.879 574.297 216.853 574.6L216.089 574.83L215.335 575.071C215.088 575.153 214.839 575.235 214.6 575.322L214.246 575.449L214.079 575.513C214.028 575.534 213.964 575.558 213.947 575.569C213.566 575.796 213.143 575.946 212.703 576.009C212.263 576.073 211.815 576.05 211.384 575.941C210.953 575.832 210.548 575.639 210.192 575.374C209.836 575.108 209.535 574.775 209.308 574.394C209.081 574.013 208.931 573.59 208.867 573.151C208.803 572.712 208.826 572.264 208.935 571.834C209.044 571.403 209.237 570.999 209.503 570.643C209.769 570.287 210.102 569.987 210.484 569.76C210.729 569.615 210.991 569.501 211.264 569.42L211.853 569.237Z" fill="#371A45"/>
<g opacity="0.35">
<path opacity="0.35" d="M290.269 487.951C290.438 484.681 290.65 481.299 290.904 477.805C290.657 481.293 290.438 484.681 290.269 487.951Z" fill="#371A45"/>
</g>
<g opacity="0.35">
<path opacity="0.35" d="M291.122 474.958C291.27 473.052 291.431 471.109 291.606 469.129C291.437 471.106 291.27 473.051 291.122 474.958Z" fill="#371A45"/>
</g>
<g opacity="0.35">
<path opacity="0.35" d="M292.495 459.988C292.685 458.17 292.893 456.312 293.113 454.434C292.893 456.312 292.693 458.17 292.495 459.988Z" fill="#371A45"/>
</g>
<g opacity="0.35">
<path opacity="0.35" d="M293.208 453.566C293.455 451.431 293.723 449.278 294.001 447.075C293.722 449.278 293.458 451.442 293.208 453.566Z" fill="#371A45"/>
</g>
<path d="M404.407 405.906C404.172 409.278 403.702 412.629 403.001 415.936C398.816 435.659 386.733 450.549 370.277 460.846C306.853 500.587 178.561 472.06 188.812 389.198C194.084 346.61 210.434 303.124 222.535 259.884C224.594 252.571 226.503 245.28 228.233 237.988C248.825 190.569 373.216 209.679 379.439 224.964C381.307 229.559 383.119 234.757 384.849 240.458C387.075 247.69 389.163 255.714 391.111 264.281C399.313 300.427 404.832 346.234 405.068 382.904C405.12 391.095 404.914 398.831 404.407 405.906Z" fill="white"/>
<g opacity="0.35">
<path opacity="0.35" d="M404.407 405.906C402.645 430.677 389.41 448.868 370.277 460.846C307.343 500.28 180.561 472.504 188.604 391.117C195.933 461.245 311.22 483.426 370.277 446.423C389.41 434.447 402.645 416.256 404.407 391.483C404.714 387.254 404.912 382.779 405.011 378.114C405.19 388.091 405.013 397.469 404.407 405.906Z" fill="#371A45"/>
</g>
<path d="M301.171 482.322C296.389 482.322 291.573 482.116 286.723 481.705C259.681 479.411 234.742 470.844 216.503 457.583C205.177 449.356 196.703 439.561 191.302 428.483C185.412 416.402 183.322 403.031 185.089 388.741C188.59 360.482 196.802 332.177 205.634 303.247C206.476 300.487 207.321 297.726 208.169 294.966C213.999 275.96 220.026 256.307 224.575 237.122L224.651 236.797L224.785 236.493C229.888 224.744 240.901 216.016 257.515 210.551C270.882 206.156 287.992 203.951 306.949 204.175C323.664 204.381 341.58 206.503 356.103 210.027C362.975 211.693 368.924 213.643 373.306 215.663C378.611 218.108 381.76 220.692 382.925 223.561C399.652 264.678 411.915 353.429 408.159 406.182C407.111 420.901 402.165 434.038 393.458 445.226C385.507 455.44 374.624 463.801 361.107 470.081C343.841 478.095 322.964 482.322 301.171 482.322ZM231.807 239.198C227.213 258.51 221.186 278.165 215.354 297.175C214.507 299.934 213.663 302.691 212.821 305.446C204.088 334.047 195.968 362.01 192.548 389.671C188.683 420.936 205.846 440.561 220.924 451.524C256.409 477.321 316.593 482.486 357.936 463.279C376.158 454.815 398.361 437.946 400.659 405.655C404.352 353.797 392.348 266.68 375.961 226.393C375.514 225.295 370.58 221.272 354.328 217.329C340.325 213.933 323.028 211.878 306.861 211.689C288.706 211.483 272.453 213.552 259.865 217.693C245.522 222.399 236.084 229.633 231.807 239.185V239.198Z" fill="#371A45"/>
<path d="M197.937 397.784C206.769 397.784 213.929 390.632 213.929 381.81C213.929 372.988 206.769 365.836 197.937 365.836C189.105 365.836 181.945 372.988 181.945 381.81C181.945 390.632 189.105 397.784 197.937 397.784Z" fill="white"/>
<g opacity="0.35">
<path opacity="0.35" d="M181.947 381.806C181.923 383.919 182.319 386.016 183.112 387.975C183.905 389.934 185.079 391.717 186.566 393.219C188.054 394.722 189.825 395.915 191.777 396.729C193.73 397.544 195.824 397.963 197.94 397.963C200.056 397.963 202.15 397.544 204.103 396.729C206.055 395.915 207.826 394.722 209.314 393.219C210.801 391.717 211.975 389.934 212.768 387.975C213.561 386.016 213.957 383.919 213.933 381.806C213.938 379.443 213.414 377.11 212.397 374.977C211.101 377.711 209.054 380.022 206.495 381.64C203.936 383.258 200.97 384.117 197.941 384.117C194.912 384.117 191.946 383.258 189.387 381.64C186.828 380.022 184.781 377.711 183.485 374.977C182.468 377.11 181.942 379.443 181.947 381.806Z" fill="#371A45"/>
</g>
<path d="M197.937 401.11C194.115 401.11 190.379 399.978 187.2 397.858C184.022 395.737 181.545 392.723 180.082 389.196C178.619 385.669 178.237 381.788 178.982 378.043C179.727 374.299 181.568 370.86 184.27 368.16C186.972 365.46 190.416 363.622 194.164 362.877C197.913 362.132 201.798 362.514 205.329 363.975C208.86 365.436 211.879 367.91 214.002 371.084C216.125 374.258 217.259 377.99 217.259 381.808C217.25 386.924 215.212 391.828 211.59 395.446C207.968 399.064 203.059 401.1 197.937 401.11ZM197.937 369.162C195.432 369.162 192.984 369.904 190.902 371.294C188.82 372.683 187.197 374.659 186.238 376.97C185.28 379.281 185.029 381.825 185.518 384.278C186.007 386.732 187.213 388.985 188.984 390.754C190.755 392.523 193.011 393.727 195.468 394.215C197.924 394.703 200.47 394.452 202.784 393.494C205.098 392.537 207.075 390.915 208.466 388.835C209.857 386.755 210.6 384.309 210.599 381.808C210.595 378.455 209.26 375.24 206.886 372.869C204.512 370.499 201.294 369.165 197.937 369.162Z" fill="#371A45"/>
<g opacity="0.35">
<path opacity="0.35" d="M404.407 405.906C404.171 409.278 403.702 412.629 403.001 415.936C396.304 417.962 375.322 422.16 324.08 417.962L323.823 422.219C323.23 432.21 314.556 439.888 304.573 439.292L220.171 434.283C210.189 433.68 202.484 425.027 203.079 415.045L203.633 405.717L205.758 370.184C206.343 360.194 215.008 352.518 225.01 353.112L309.392 358.121C310.612 358.193 311.822 358.389 313.003 358.705C317.051 359.796 320.6 362.244 323.055 365.639C325.51 369.034 326.721 373.169 326.485 377.35L326.03 385.047C337.228 386.44 376.838 390.552 404.576 382.991C404.735 382.951 404.903 382.912 405.06 382.884C405.12 391.095 404.914 398.831 404.407 405.906Z" fill="#371A45"/>
</g>
<path d="M214.606 421.438L299.003 426.452C308.99 427.049 317.657 419.368 318.255 409.38L320.932 364.521C321.453 355.776 315.621 348.066 307.448 345.874C306.268 345.556 305.059 345.361 303.84 345.292L219.458 340.277C209.456 339.68 200.789 347.359 200.204 357.349L198.071 392.876L197.511 402.204C196.918 412.194 204.619 420.839 214.606 421.438Z" fill="white"/>
<g opacity="0.35">
<path opacity="0.35" d="M214.606 421.438L299.003 426.452C308.99 427.049 317.657 419.368 318.254 409.38L320.931 364.522C321.452 355.776 315.621 348.066 307.448 345.874C302.466 348.77 299.303 350.621 299.303 350.621C293.049 386.386 281.715 403.732 236.908 401.803C217.566 400.965 205.544 397.296 198.085 392.88L197.525 402.208C196.917 412.194 204.619 420.839 214.606 421.438Z" fill="#371A45"/>
</g>
<path d="M300.096 430.239C299.658 430.239 299.218 430.226 298.774 430.2L214.386 425.186C208.577 424.827 203.146 422.184 199.281 417.836C195.417 413.488 193.435 407.788 193.767 401.984L196.444 357.117C196.796 351.311 199.439 345.881 203.794 342.02C208.15 338.159 213.861 336.181 219.674 336.521L304.062 341.538C309.875 341.89 315.31 344.53 319.175 348.88C323.041 353.23 325.021 358.933 324.682 364.74L322.005 409.605C321.659 415.18 319.203 420.414 315.134 424.247C311.066 428.079 305.69 430.221 300.098 430.239H300.096ZM218.354 343.99C214.673 343.996 211.133 345.404 208.455 347.926C205.777 350.448 204.162 353.895 203.94 357.565L201.263 402.432C201.05 406.249 202.357 409.995 204.897 412.853C207.438 415.712 211.007 417.451 214.827 417.692L299.215 422.709C303.036 422.922 306.786 421.617 309.648 419.079C312.51 416.541 314.252 412.976 314.492 409.16L317.169 364.295C317.383 360.479 316.077 356.732 313.537 353.873C310.996 351.014 307.427 349.274 303.607 349.033L219.219 344.019C218.931 343.998 218.641 343.99 218.354 343.99Z" fill="#371A45"/>
<path d="M211.25 420.903C212.35 421.198 213.479 421.377 214.617 421.436L299.013 426.451C302.503 426.648 305.976 425.84 309.019 424.123C312.063 422.406 314.549 419.852 316.181 416.765C317.398 414.481 318.105 411.96 318.252 409.376L319.447 389.447L319.84 382.865L320.934 364.509C321.531 354.519 313.829 345.876 303.842 345.28L285.605 344.2C293.916 346.281 299.876 354.062 299.355 362.897L297.913 387.129L296.678 407.77C296.081 417.746 287.411 425.439 277.426 424.842L211.25 420.903Z" fill="white"/>
<g opacity="0.35">
<path opacity="0.35" d="M211.25 420.903C212.35 421.198 213.479 421.377 214.617 421.436L299.013 426.45C303.828 426.724 308.556 425.081 312.161 421.882C315.767 418.682 317.957 414.187 318.252 409.378L319.84 382.875C317.439 387.431 313.283 392.954 307.145 393.195C303.778 393.334 300.625 390.726 297.919 387.139L296.684 407.78C296.087 417.756 287.417 425.449 277.432 424.852L211.25 420.903Z" fill="#371A45"/>
</g>
<path d="M300.108 430.239C299.665 430.239 299.222 430.226 298.778 430.2L214.396 425.183C213.005 425.108 211.625 424.891 210.278 424.538L211.458 417.16L277.648 421.101C281.468 421.313 285.218 420.008 288.078 417.471C290.939 414.933 292.678 411.368 292.918 407.554L295.595 362.687C295.789 359.331 294.806 356.011 292.814 353.302C290.821 350.592 287.945 348.661 284.681 347.842L285.819 340.454L304.048 341.534C309.858 341.894 315.289 344.537 319.154 348.887C323.018 353.236 325 358.937 324.667 364.742L321.99 409.603C321.647 415.176 319.194 420.41 315.129 424.242C311.063 428.075 305.69 430.219 300.1 430.239H300.108ZM293.826 422.384L299.227 422.705C303.047 422.918 306.797 421.614 309.658 419.076C312.519 416.539 314.259 412.974 314.498 409.16L317.176 364.295C317.39 360.478 316.084 356.731 313.543 353.871C311.002 351.012 307.432 349.272 303.611 349.031L298.793 348.745C301.887 352.886 303.414 357.986 303.103 363.144L300.426 408.008C300.111 413.458 297.755 418.59 293.826 422.384Z" fill="#371A45"/>
<path d="M264.712 383.729C264.623 385.389 266.238 398.909 266.238 398.909L275.71 399.417C282.228 399.766 287.874 393.31 288.321 384.996C288.768 376.682 283.846 369.656 277.329 369.306L267.856 368.798C267.856 368.798 264.858 381.024 264.712 383.729Z" fill="#22A7F0"/>
<g opacity="0.35">
<path opacity="0.35" d="M264.712 383.729C264.623 385.389 266.238 398.909 266.238 398.909L275.71 399.417C282.228 399.766 287.874 393.31 288.321 384.996C288.768 376.682 283.846 369.656 277.329 369.306L267.856 368.798C267.856 368.798 264.858 381.024 264.712 383.729Z" fill="#371A45"/>
</g>
<path d="M276.221 402.247C275.999 402.247 275.776 402.247 275.552 402.228L266.079 401.72C265.418 401.685 264.791 401.418 264.307 400.967C263.823 400.515 263.514 399.908 263.433 399.252C262.939 395.116 261.798 385.304 261.891 383.587C262.043 380.765 264.603 370.217 265.114 368.138C265.27 367.502 265.644 366.94 266.17 366.549C266.696 366.159 267.342 365.963 267.996 365.996L277.469 366.504C281.505 366.722 285.15 368.872 287.734 372.56C290.17 376.036 291.373 380.51 291.124 385.156C290.875 389.803 289.196 394.122 286.402 397.319C283.608 400.515 280.012 402.247 276.221 402.247ZM268.76 396.224L275.855 396.607C278.12 396.728 280.362 395.661 282.162 393.604C284.133 391.352 285.317 388.24 285.5 384.844C285.683 381.448 284.839 378.229 283.122 375.779C281.552 373.539 279.44 372.239 277.172 372.118L270.047 371.735C268.952 376.338 267.613 382.342 267.527 383.871C267.504 384.825 268.097 390.523 268.76 396.224Z" fill="#371A45"/>
<path d="M278.876 384.526C279.324 376.211 274.403 369.187 267.886 368.837C261.368 368.486 255.722 374.943 255.274 383.258C254.826 391.572 259.746 398.597 266.264 398.947C272.781 399.297 278.428 392.841 278.876 384.526Z" fill="#22A7F0"/>
<g opacity="0.35">
<path opacity="0.35" d="M266.242 398.907C272.754 399.258 278.392 392.8 278.849 384.488C278.953 382.654 278.786 380.814 278.353 379.029C276.784 385.632 271.825 390.342 266.242 390.035C261.22 389.766 257.144 385.533 255.74 379.805C255.472 380.925 255.306 382.067 255.244 383.217C254.799 391.539 259.723 398.557 266.242 398.907Z" fill="#371A45"/>
</g>
<g opacity="0.7">
<path opacity="0.7" d="M255.439 387.145C256.541 379.741 261.823 374.228 267.857 374.553C273.311 374.841 277.658 379.821 278.659 386.325C278.75 385.73 278.812 385.109 278.849 384.488C279.3 376.174 274.376 369.15 267.857 368.798C261.337 368.446 255.693 374.905 255.25 383.217C255.176 384.529 255.24 385.846 255.439 387.145Z" fill="white"/>
</g>
<path d="M266.755 401.739C266.532 401.739 266.31 401.733 266.088 401.721C262.052 401.515 258.405 399.353 255.82 395.667C253.386 392.189 252.182 387.715 252.433 383.069C252.682 378.422 254.358 374.105 257.153 370.908C260.118 367.519 263.975 365.766 268.009 365.986C272.043 366.206 275.692 368.354 278.274 372.042C280.71 375.518 281.913 379.992 281.664 384.638C281.415 389.285 279.736 393.604 276.942 396.8C274.148 399.997 270.556 401.739 266.755 401.739ZM267.356 371.6C265.208 371.6 263.106 372.661 261.399 374.613C259.43 376.875 258.244 379.975 258.061 383.371C257.879 386.767 258.724 389.988 260.439 392.438C262.008 394.676 264.121 395.976 266.388 396.099C268.656 396.223 270.898 395.153 272.698 393.096C274.666 390.844 275.853 387.732 276.034 384.336C276.215 380.94 275.373 377.721 273.655 375.271C272.088 373.031 269.975 371.731 267.706 371.61C267.591 371.604 267.467 371.6 267.356 371.6Z" fill="#371A45"/>
<path d="M240.864 425.443H240.763C240.399 425.43 240.04 425.346 239.709 425.194C239.377 425.043 239.078 424.828 238.829 424.562C238.581 424.295 238.387 423.983 238.26 423.641C238.132 423.3 238.073 422.937 238.086 422.573L238.867 400.799C239.067 395.494 237.191 390.32 233.638 386.372L232.534 385.138C230.226 382.551 228.454 379.532 227.32 376.257C226.187 372.982 225.714 369.515 225.93 366.056L227.578 340.756C227.636 340.031 227.978 339.357 228.529 338.881C229.081 338.405 229.798 338.164 230.525 338.212C231.252 338.259 231.932 338.59 232.417 339.133C232.902 339.677 233.153 340.389 233.117 341.116L231.47 366.416C231.301 369.138 231.673 371.866 232.566 374.444C233.459 377.021 234.854 379.396 236.671 381.431L237.773 382.665C242.288 387.679 244.671 394.252 244.416 400.99L243.636 422.765C243.611 423.483 243.308 424.163 242.791 424.663C242.274 425.162 241.583 425.442 240.864 425.443Z" fill="#371A45"/>
<path d="M412.782 384.979C412.37 397.401 400.042 402.14 400.042 402.14C400.042 402.14 382.991 410.985 312.645 404.608C312.645 404.608 292.753 384.272 317.416 371.803C317.416 371.803 366.412 379.031 399.016 370.157C404.895 368.576 413.151 373.88 412.782 384.979Z" fill="white"/>
<g opacity="0.35">
<path opacity="0.35" d="M412.778 384.977C412.366 397.399 400.046 402.142 400.046 402.142C400.046 402.142 382.991 410.974 312.647 404.61C312.647 404.61 301.389 393.092 306.315 382.092C306.338 382.149 306.358 382.207 306.381 382.266C308.646 388.291 314.303 392.399 320.728 392.903C384.311 397.888 400.046 389.739 400.046 389.739C400.046 389.739 408.672 386.419 411.728 378.07C412.533 380.28 412.89 382.628 412.778 384.977Z" fill="#371A45"/>
</g>
<path d="M357.994 410.682C345.844 410.682 331.979 410.026 316.486 408.718C314.498 408.558 312.571 407.955 310.847 406.953C309.123 405.952 307.645 404.577 306.523 402.93C303.483 398.475 300.176 391.617 301.678 384.293C302.79 378.864 306.321 374.214 312.18 370.474C314.803 368.808 317.926 368.109 321.01 368.498C332.262 369.894 371.074 373.881 398.036 366.546C401.949 365.482 406.386 366.513 409.918 369.304C414.347 372.801 416.765 378.56 416.547 385.105L412.791 384.98L416.547 385.105C416.077 399.158 403.275 404.876 401.57 405.577C400.466 406.093 395.625 408.076 383.93 409.405C376.439 410.257 367.775 410.682 357.994 410.682ZM319.334 375.903C318.232 375.899 317.153 376.209 316.222 376.797C312.147 379.403 309.731 382.431 309.041 385.798C308.067 390.56 310.512 395.445 312.734 398.705C313.229 399.427 313.88 400.029 314.638 400.467C315.397 400.906 316.244 401.169 317.118 401.237C350.492 404.057 370.774 403.249 381.908 402.074C393.572 400.84 397.958 398.964 398.337 398.783L398.543 398.668L398.691 398.627C399.084 398.471 408.701 394.556 409.024 384.846C409.212 379.185 406.738 376.363 405.245 375.178C403.598 373.881 401.592 373.342 400.001 373.776C371.713 381.47 331.671 377.373 320.073 375.933C319.827 375.908 319.58 375.898 319.334 375.903Z" fill="#371A45"/>
<path d="M313.932 464.962C313.726 461.967 319.803 541.519 326.804 590.195C331.829 625.127 363.861 628.756 415.082 625.133C433.935 623.799 448.378 618.185 446.92 603.298C444.964 583.298 415.661 575.725 415.661 575.725C415.661 575.725 408.369 493.493 402.616 408.117" fill="white"/>
<path d="M312.682 465.044C312.673 465.008 312.665 464.971 312.66 464.935C317.725 464.595 314.078 464.898 315.215 464.84L315.26 464.996L315.349 465.303L315.518 465.92C315.631 466.331 315.724 466.743 315.839 467.154C316.045 467.977 316.241 468.796 316.428 469.612C316.805 471.258 317.138 472.903 317.458 474.549C318.089 477.84 318.635 481.135 319.095 484.434C319.566 487.735 319.939 491.043 320.318 494.35C320.697 497.658 321.037 500.969 321.364 504.283C322.017 510.906 322.532 517.544 323.094 524.175C323.37 527.491 323.672 530.805 323.975 534.118C324.278 537.432 324.626 540.739 324.98 544.047C326.389 557.277 327.902 570.492 329.679 583.646L330.363 588.572L330.54 589.794L330.723 590.948C330.781 591.335 330.863 591.713 330.929 592.094L331.036 592.665L331.162 593.231C331.78 596.209 332.747 599.104 334.045 601.856C334.685 603.195 335.422 604.486 336.25 605.718C337.075 606.939 337.993 608.094 338.997 609.172C341.034 611.342 343.378 613.203 345.953 614.697C348.61 616.236 351.425 617.485 354.349 618.422C355.83 618.909 357.341 619.337 358.879 619.716C360.418 620.094 361.968 620.413 363.544 620.697C369.839 621.822 376.346 622.283 382.884 622.445C389.422 622.608 396.022 622.445 402.626 622.128C405.921 621.975 409.226 621.784 412.541 621.557L415.012 621.384C415.815 621.322 416.621 621.262 417.42 621.178C418.219 621.094 419.016 621.009 419.81 620.923C420.605 620.837 421.396 620.717 422.179 620.596C423.75 620.359 425.305 620.076 426.824 619.724C428.344 619.372 429.839 618.973 431.28 618.49C434.149 617.519 436.84 616.227 438.9 614.528C439.902 613.723 440.774 612.769 441.486 611.7C442.154 610.66 442.636 609.512 442.913 608.308C443.198 607.026 443.299 605.71 443.214 604.4C443.144 603.031 442.908 601.675 442.51 600.362C441.723 597.738 440.288 595.27 438.391 593.056C436.494 590.843 434.176 588.871 431.639 587.139C429.051 585.396 426.319 583.877 423.472 582.599C422.03 581.949 420.572 581.346 419.094 580.797C418.355 580.524 417.609 580.262 416.866 580.018C416.493 579.896 416.122 579.777 415.752 579.664L415.202 579.501L414.703 579.362L412.129 578.642L411.903 576.058C410.676 562.088 409.49 548.121 408.347 534.157C407.203 520.194 406.082 506.223 404.984 492.246L401.78 450.321C401.479 446.824 401.123 443.342 400.804 439.851C400.484 436.36 400.252 432.858 400.122 429.361C400.062 427.608 400.011 425.864 399.998 424.099C399.986 422.335 400.025 420.584 400.108 418.823C400.19 417.063 400.314 415.296 400.519 413.527C400.701 411.739 400.98 409.962 401.355 408.204C401.416 407.93 401.564 407.682 401.777 407.499C401.99 407.315 402.256 407.205 402.537 407.185C402.817 407.165 403.096 407.236 403.333 407.387C403.57 407.538 403.752 407.762 403.851 408.025C404.461 409.715 404.98 411.437 405.406 413.183C405.838 414.909 406.207 416.639 406.53 418.371C407.181 421.835 407.603 425.315 407.972 428.797C408.728 435.762 408.909 442.768 409.329 449.759C409.535 453.256 409.817 456.742 410.074 460.235L410.859 470.708L412.473 491.652C413.562 505.614 414.682 519.573 415.834 533.53C416.986 547.487 418.169 561.438 419.384 575.386L416.584 572.095L416.956 572.195L417.29 572.29L417.939 572.483C418.367 572.613 418.789 572.749 419.209 572.895C420.049 573.169 420.881 573.46 421.705 573.767C423.352 574.377 424.976 575.046 426.577 575.772C429.818 577.23 432.928 578.961 435.875 580.947C438.928 582.99 441.698 585.428 444.112 588.196C444.721 588.912 445.303 589.656 445.856 590.43C446.401 591.211 446.922 592.013 447.398 592.853C448.365 594.543 449.139 596.337 449.705 598.201C450.275 600.081 450.614 602.024 450.716 603.987C450.841 606.008 450.678 608.036 450.23 610.011C449.755 612.061 448.929 614.014 447.789 615.783C446.658 617.498 445.269 619.029 443.671 620.322C442.163 621.544 440.527 622.599 438.793 623.469C437.138 624.301 435.426 625.013 433.669 625.6C431.946 626.176 430.216 626.643 428.486 627.04C426.756 627.437 425.027 627.752 423.299 628.013C422.436 628.153 421.573 628.256 420.71 628.371C419.847 628.486 418.987 628.577 418.126 628.647C417.265 628.717 416.407 628.799 415.548 628.867L413.031 629.042C409.683 629.265 406.328 629.458 402.966 629.622C396.24 629.936 389.486 630.105 382.69 629.945C375.895 629.784 369.05 629.303 362.201 628.081C360.49 627.77 358.781 627.415 357.075 627.001C355.37 626.588 353.672 626.1 351.983 625.545C348.55 624.441 345.245 622.97 342.127 621.16C338.925 619.297 336.012 616.978 333.479 614.277C332.21 612.913 331.05 611.453 330.007 609.91C328.975 608.376 328.056 606.768 327.258 605.099C325.704 601.819 324.544 598.367 323.8 594.815L323.658 594.161L323.532 593.505C323.454 593.067 323.361 592.628 323.294 592.19L323.088 590.876L322.908 589.625L322.217 584.652C320.423 571.385 318.905 558.118 317.491 544.837L316.428 534.881L315.322 524.932C314.585 518.299 313.846 511.665 313.286 505.015C313.003 501.691 312.746 498.365 312.538 495.035C312.33 491.705 312.126 488.375 312.025 485.035C311.924 481.694 311.9 478.352 311.982 474.999C312.031 473.321 312.093 471.642 312.188 469.962C312.242 469.12 312.304 468.279 312.375 467.438C312.415 467.016 312.45 466.597 312.497 466.175L312.565 465.542L312.604 465.227L312.625 465.07C313.757 464.968 310.104 465.196 315.166 464.836C315.166 464.813 315.166 464.867 315.153 464.883L315.098 465.089C315.028 465.363 314.869 465.605 314.644 465.777C314.42 465.949 314.144 466.04 313.861 466.036C313.578 466.032 313.305 465.932 313.086 465.754C312.867 465.575 312.714 465.328 312.653 465.052L312.682 465.044Z" fill="#371A45"/>
<path d="M350.601 535.953C339.755 535.953 329.391 534.731 319.747 532.314C319.033 532.135 318.42 531.68 318.041 531.05C317.663 530.419 317.551 529.664 317.73 528.95C317.91 528.237 318.365 527.624 318.997 527.246C319.628 526.868 320.384 526.757 321.098 526.936C343.956 532.668 366.875 530.202 382.071 527.125C398.631 523.772 409.887 518.982 410 518.932C410.674 518.654 411.431 518.651 412.106 518.926C412.782 519.2 413.323 519.729 413.611 520.398C413.899 521.067 413.913 521.823 413.648 522.501C413.383 523.18 412.861 523.727 412.195 524.025C411.722 524.231 400.4 529.056 383.314 532.53C373.59 534.536 363.705 535.669 353.779 535.918C352.713 535.94 351.654 535.952 350.601 535.953Z" fill="#371A45"/>
<path d="M414.66 578.899C414.64 578.888 414.576 578.864 414.524 578.845L414.353 578.781L413.993 578.656C413.75 578.572 413.499 578.491 413.248 578.411C412.743 578.251 412.23 578.098 411.711 577.95C410.682 577.658 409.621 577.397 408.559 577.148C406.431 576.667 404.269 576.27 402.088 575.963C397.7 575.342 393.269 575.066 388.837 575.141C388.281 575.157 387.723 575.153 387.167 575.182L385.495 575.258C384.939 575.287 384.383 575.336 383.825 575.373L382.989 575.433L382.165 575.515L380.495 575.684L378.829 575.9C378.551 575.937 378.271 575.97 378.006 576.011L377.182 576.144L375.518 576.412C371.071 577.21 366.691 578.35 362.419 579.82C374.894 573.752 388.63 570.721 402.502 570.975C404.836 571.019 407.177 571.156 409.524 571.387C410.696 571.512 411.87 571.656 413.048 571.835C413.637 571.928 414.228 572.026 414.823 572.138C415.121 572.195 415.42 572.251 415.723 572.317L416.182 572.415L416.421 572.469L416.691 572.537L417.187 572.672C418.035 572.92 418.753 573.491 419.184 574.261C419.616 575.032 419.727 575.941 419.494 576.793C419.262 577.645 418.704 578.371 417.94 578.816C417.177 579.261 416.269 579.389 415.412 579.172C415.152 579.11 414.899 579.018 414.66 578.899Z" fill="#371A45"/>
<g opacity="0.35">
<path opacity="0.35" d="M316.411 467.409C316.411 468.736 319.997 542.868 326.809 590.195C331.833 625.131 363.857 628.758 415.08 625.131C433.939 623.803 448.378 618.189 446.92 603.299C446.883 602.95 446.846 602.612 446.793 602.271C440.988 606.062 432.306 607.948 422.395 608.647C371.173 612.274 339.139 608.647 334.115 573.711C328.909 537.539 320.446 488.838 316.523 467.436L316.422 467.473C316.424 467.451 316.421 467.429 316.411 467.409Z" fill="#371A45"/>
</g>
<path d="M135.801 237.758C135.97 240.154 135.99 242.558 135.861 244.957C135.342 254.738 132.389 264.235 127.269 272.588C122.148 280.941 115.022 287.886 106.537 292.795C98.051 297.703 88.4734 300.419 78.6715 300.697C68.8696 300.976 59.1531 298.807 50.4021 294.388C64.0776 288.487 79.6166 280.031 95.4172 269.551C111.218 259.071 125.05 248.056 135.801 237.758Z" fill="#FFB200"/>
<path d="M66.9111 300.791L66.6804 299.828L66.0833 299.034L66.248 298.909L66.4539 298.86C74.2255 297.008 88.4261 289.737 102.635 280.315C116.922 270.841 128.816 260.894 133.68 254.355L135.272 255.535C130.282 262.247 118.199 272.375 103.732 281.966C89.1221 291.648 75.0142 298.868 66.9111 300.791Z" fill="#D66B09"/>
<path d="M95.4153 269.555C111.216 259.079 125.05 248.056 135.801 237.758C135.97 240.154 135.99 242.558 135.861 244.957C127.645 253.234 114.115 264.006 98.0532 274.656C82.6686 284.858 68.085 292.88 57.3686 297.362C54.9844 296.521 52.6568 295.527 50.4001 294.388C64.0756 288.491 79.6147 280.035 95.4153 269.555Z" fill="#D66B09"/>
<g opacity="0.35">
<path opacity="0.35" d="M135.801 229.606C135.97 232.002 135.99 234.407 135.861 236.805C135.342 246.586 132.389 256.083 127.269 264.437C122.148 272.79 115.022 279.735 106.537 284.643C98.051 289.552 88.4734 292.268 78.6715 292.546C68.8696 292.824 59.1531 290.656 50.4021 286.236C64.0776 280.335 79.6166 271.879 95.4172 261.4C111.218 250.92 125.05 239.905 135.801 229.606Z" fill="#371A45"/>
</g>
<g opacity="0.35">
<path opacity="0.35" d="M129.788 207.816C129.43 208.227 129.057 208.624 128.666 209.05C128.999 208.554 129.327 208.048 129.638 207.538C129.689 207.622 129.739 207.727 129.788 207.816Z" fill="#371A45"/>
</g>
<path d="M126.11 209.373C127.467 211.412 128.695 213.533 129.788 215.724C121.578 224.902 104.641 238.632 83.9679 252.337C63.2951 266.042 44.0535 276.308 32.4002 280.311C30.8051 278.451 29.3278 276.493 27.977 274.449C27.9111 274.352 27.8493 274.257 27.7855 274.159C27.1842 273.245 26.6138 272.321 26.0742 271.386C24.8162 269.227 23.6984 266.989 22.728 264.687C22.6888 264.596 22.6497 264.503 22.6127 264.409C17.4113 251.853 16.7211 237.886 20.6591 224.879C24.5971 211.872 32.9206 200.628 44.2163 193.055C55.512 185.482 69.0835 182.048 82.6264 183.335C96.1693 184.622 108.849 190.552 118.512 200.117C118.718 200.322 118.924 200.528 119.13 200.748C120.877 202.536 122.508 204.433 124.014 206.427C124.578 207.176 125.127 207.942 125.661 208.725C125.82 208.933 125.966 209.146 126.11 209.373Z" fill="#FFB200"/>
<path d="M125.674 208.721C125.82 208.926 125.966 209.146 126.11 209.365C127.467 211.404 128.695 213.525 129.788 215.716C121.578 224.894 104.641 238.624 83.9678 252.329C63.2951 266.034 44.0534 276.3 32.4002 280.302C30.8053 278.445 29.328 276.49 27.9769 274.449C27.911 274.352 27.8492 274.257 27.7854 274.159C38.9486 271.055 58.5959 260.96 79.6784 246.985C101.562 232.459 118.996 217.724 125.674 208.721Z" fill="#D66B09"/>
<path d="M19.6041 256.012L19.1696 252.071C27.1533 251.193 46.8108 241.254 66.9626 227.885C91.0002 211.942 105.93 197.977 108.251 192.42L111.916 193.948C108.844 201.299 91.6592 216.265 69.1578 231.178C48.207 245.082 28.292 255.058 19.6041 256.012Z" fill="#D66B09"/>
<path d="M19.2869 235.787L18.0802 232.009C26.7743 229.238 41.3641 221.426 56.1516 211.619C71.6453 201.334 84.7586 190.657 90.37 183.731L93.4589 186.226C87.6107 193.444 74.1576 204.44 58.3488 214.924C43.2751 224.919 28.3064 232.914 19.2869 235.787Z" fill="#D66B09"/>
<path d="M22.9112 266.369L22.2935 262.461C31.3933 261.021 51.6851 250.66 72.7903 236.663C94.9272 221.983 113.001 206.588 116.741 199.228L120.283 201.022C116.199 209.06 97.9976 224.711 74.9793 239.971C53.1142 254.464 32.6741 264.83 22.9112 266.369Z" fill="#D66B09"/>
<path d="M77.0962 304.53C67.2284 304.53 57.4986 302.214 48.691 297.769C48.0483 297.445 47.5115 296.944 47.1435 296.326C46.7755 295.707 46.5915 294.997 46.6132 294.278C46.6348 293.559 46.8611 292.861 47.2655 292.266C47.67 291.671 48.2359 291.203 48.8969 290.918C62.8586 284.893 78.2205 276.417 93.321 266.404C108.421 256.391 122.202 245.541 133.18 235.026C133.7 234.528 134.351 234.189 135.057 234.047C135.763 233.906 136.495 233.968 137.167 234.227C137.838 234.486 138.422 234.931 138.85 235.51C139.278 236.088 139.532 236.777 139.582 237.494C140.166 245.803 139.085 254.145 136.403 262.032C133.721 269.919 129.491 277.193 123.961 283.428C118.431 289.663 111.712 294.733 104.197 298.344C96.6821 301.954 88.5217 304.031 80.1933 304.454C79.1609 304.506 78.1286 304.532 77.0962 304.53ZM59.8953 294.227C67.8066 296.814 76.2017 297.577 84.4505 296.459C92.6992 295.341 100.587 292.371 107.523 287.773C114.458 283.174 120.26 277.066 124.494 269.907C128.728 262.748 131.284 254.724 131.969 246.438C121.926 255.348 110.164 264.333 97.5177 272.708C84.8719 281.084 72.0181 288.439 59.8953 294.227Z" fill="#371A45"/>
<path d="M158.568 197.854C163.34 205.035 153.962 220.371 135.801 237.758C125.05 248.057 111.216 259.08 95.4153 269.555C79.6147 280.031 64.0756 288.491 50.4001 294.392C27.3016 304.358 9.51377 307.036 4.74043 299.855C0.416015 293.335 7.73871 280.093 22.7177 264.683C23.6881 266.985 24.8059 269.223 26.0639 271.382C21.9805 275.995 20.158 279.426 21.2535 281.074C22.3696 282.752 26.3687 282.364 32.4002 280.296C44.0535 276.3 63.289 266.036 83.9679 252.323C104.647 238.609 121.578 224.884 129.788 215.71C134.034 210.963 135.945 207.433 134.829 205.753C133.736 204.107 129.862 204.451 124.024 206.417C122.519 204.422 120.887 202.525 119.14 200.738C139.176 192.936 154.234 191.326 158.568 197.854Z" fill="#FFC536"/>
<path d="M21.4944 288.66C18.6114 288.66 16.3854 287.921 15.2178 286.162C12.8661 282.625 15.5967 276.658 23.5639 267.922L25.9382 270.084C18.4529 278.291 16.8775 282.855 17.8928 284.387C19.6061 286.965 30.4336 285.34 50.1673 275.697C61.2008 270.302 73.5089 263.15 85.7614 255.031C98.0139 246.913 109.383 238.348 118.643 230.285C135.2 215.864 140.9 206.524 139.191 203.957C138.161 202.42 133.347 202.106 122.869 205.808L121.796 202.782C132.951 198.837 139.506 198.642 141.866 202.18C146.089 208.533 132.716 222.29 120.754 232.708C111.391 240.862 99.9043 249.507 87.5385 257.708C75.1728 265.908 62.737 273.134 51.5779 278.583C41.2673 283.626 29.0601 288.658 21.4944 288.66Z" fill="#FFEC90"/>
<path d="M17.8537 297.202C13.7722 297.202 10.5166 296.173 8.79297 293.606C4.36353 286.944 13.7702 274.7 22.4396 265.598L24.7686 267.811C12.0589 281.15 9.56312 288.966 11.4679 291.831C13.8196 295.363 25.2257 295.534 49.6464 284.35C62.2716 278.575 76.2456 270.68 90.0591 261.519C103.873 252.358 116.58 242.559 126.808 233.179C146.6 215.033 150.879 204.469 148.531 200.935C146.627 198.072 138.441 197.334 121.207 203.854L120.068 200.855C131.829 196.404 146.779 192.5 151.206 199.16C156.96 207.814 139.751 225.669 128.981 235.543C118.631 245.035 105.786 254.941 91.8362 264.191C77.8869 273.441 63.7604 281.421 50.9849 287.267C41.6647 291.531 27.4724 297.202 17.8537 297.202Z" fill="#FFEC90"/>
<g opacity="0.35">
<path opacity="0.35" d="M101.441 263.212C85.9736 273.395 70.7887 281.623 57.3953 287.405C34.2968 297.37 16.5069 300.048 11.7336 292.87C7.40918 286.347 14.736 273.105 29.7108 257.697C30.6841 259.999 31.8024 262.238 33.0592 264.398C28.9736 269.01 27.1512 272.439 28.2488 274.088C29.3463 275.738 33.366 275.38 39.3934 273.313C47.1279 270.668 58.1964 265.252 70.8093 257.915C70.7701 259.717 71.1738 261.292 72.0448 262.594C75.6176 267.967 86.4966 267.815 101.441 263.212Z" fill="#371A45"/>
</g>
<path d="M15.5226 307.396C9.51988 307.396 4.53032 305.857 1.82653 301.789C-1.05642 297.469 -0.52513 291.469 3.38744 283.986C6.71312 277.624 12.3719 270.314 20.2094 262.253C20.6123 261.84 21.1112 261.533 21.6616 261.36C22.212 261.186 22.7969 261.151 23.3641 261.257C23.9314 261.364 24.4635 261.609 24.9129 261.971C25.3624 262.333 25.7153 262.8 25.9403 263.331C26.8543 265.498 27.9052 267.605 29.0868 269.639C29.4543 270.275 29.6123 271.01 29.5384 271.74C29.4645 272.47 29.1624 273.159 28.675 273.708C26.6157 276.045 25.547 277.616 25.0013 278.595C26.1606 278.472 28.1128 278.081 31.2573 277.003C42.995 272.978 62.4487 262.412 82.026 249.441C101.603 236.47 118.901 222.652 127.173 213.408C129.385 210.94 130.503 209.295 131.067 208.266C129.947 208.385 128.089 208.754 125.132 209.749C124.436 209.984 123.683 209.993 122.981 209.776C122.278 209.56 121.662 209.128 121.22 208.542C119.805 206.663 118.271 204.877 116.627 203.194C116.225 202.78 115.931 202.274 115.771 201.719C115.612 201.164 115.593 200.579 115.715 200.015C115.838 199.451 116.098 198.926 116.472 198.487C116.847 198.048 117.325 197.708 117.863 197.498C128.34 193.411 137.284 191.04 144.444 190.447C152.868 189.752 158.597 191.593 161.476 195.921C169.28 207.665 150.253 228.759 138.206 240.288C126.922 251.097 112.789 262.226 97.3344 272.474C81.8798 282.721 66.1224 291.416 51.7715 297.607C41.7739 301.916 26.8484 307.396 15.5226 307.396ZM21.7497 270.812C8.9577 284.858 5.3499 294.466 7.65419 297.924C9.12655 300.139 13.7187 300.927 20.2527 300.09C27.8183 299.119 37.7563 296.04 49.0142 291.185C62.9903 285.155 78.3667 276.668 93.4815 266.645C108.596 256.621 122.391 245.761 133.382 235.236C142.236 226.764 148.929 218.804 152.761 212.215C156.07 206.526 157.125 201.993 155.644 199.777C153.34 196.309 143.083 195.906 125.167 202.231L125.278 202.365C130.165 200.939 135.383 200.275 137.743 203.827C140.527 208.015 136.349 213.624 132.389 218.045C123.617 227.848 106.237 241.754 85.8953 255.243C65.554 268.732 45.985 279.336 33.5369 283.604C27.9254 285.529 21.1258 287.199 18.3417 283.009C15.9797 279.459 18.6197 274.911 21.8321 270.964L21.7497 270.812Z" fill="#371A45"/>
<g opacity="0.35">
<path opacity="0.35" d="M136.201 209.311C127.99 218.487 111.051 232.221 90.3804 245.923C69.7097 259.626 50.4639 269.894 38.8107 273.897C37.2157 272.037 35.7351 270.082 34.3771 268.043C34.3112 267.947 34.2515 267.852 34.1856 267.753C33.587 266.839 33.0173 265.915 32.4764 264.983C31.2201 262.822 30.1018 260.585 29.1281 258.283C29.089 258.191 29.0519 258.098 29.0148 258.006C24.4482 246.968 23.3499 234.804 25.8656 223.128C28.3812 211.452 34.3919 200.816 43.1001 192.632C38.1401 203.902 36.8312 216.439 39.3564 228.489C40.1027 232.037 41.1789 235.506 42.5708 238.854C42.61 238.951 42.6491 239.041 42.6882 239.134C42.7274 239.226 42.8077 239.405 42.8941 239.58C47.443 249.097 58.8677 251.574 69.1042 248.99C88.6135 244.066 127.793 214.147 136.075 207.365C136.948 208.799 135.47 207.832 136.201 209.311Z" fill="#371A45"/>
</g>
<g opacity="0.41">
<path opacity="0.41" d="M128.394 217.131C127.433 218.201 126.362 219.328 125.18 220.513C124.389 219.073 123.532 217.654 122.608 216.263L122.171 215.621C121.637 214.836 121.088 214.07 120.524 213.324C119.019 211.328 117.388 209.431 115.641 207.643C115.435 207.437 115.229 207.231 115.023 207.013C112.438 204.443 109.615 202.123 106.593 200.084C99.4549 195.257 91.3437 192.053 82.8314 190.698C74.319 189.343 65.6127 189.87 57.3264 192.242C49.0401 194.613 41.3754 198.772 34.873 204.424C28.3706 210.076 23.1886 217.084 19.6926 224.954C22.8233 215.423 28.3418 206.85 35.7239 200.049C43.106 193.249 52.1063 188.446 61.8698 186.099C71.6333 183.752 81.8355 183.937 91.5071 186.637C101.179 189.338 109.998 194.464 117.128 201.528C117.334 201.733 117.54 201.939 117.746 202.161C119.493 203.947 121.124 205.843 122.628 207.838C123.197 208.59 123.746 209.355 124.276 210.136C124.426 210.341 124.57 210.561 124.712 210.782C126.069 212.82 127.299 214.941 128.394 217.131Z" fill="white"/>
</g>
<path d="M32.4002 284.085C31.853 284.086 31.3119 283.97 30.8143 283.742C30.3166 283.515 29.8741 283.183 29.5172 282.768C27.8175 280.792 26.2419 278.713 24.7995 276.542C24.089 275.475 23.4074 274.378 22.7732 273.282C21.437 270.985 20.2485 268.605 19.2148 266.157C7.55535 238.5 17.2853 206.361 42.3525 189.738C67.4197 173.114 100.85 176.631 121.839 198.099C123.698 200.003 125.434 202.023 127.037 204.146C127.799 205.152 128.544 206.203 129.255 207.27C130.697 209.441 132.004 211.699 133.167 214.031C133.505 214.709 133.632 215.472 133.531 216.222C133.43 216.973 133.106 217.675 132.601 218.24C123.814 228.059 106.412 241.982 86.0518 255.486C65.692 268.989 46.09 279.603 33.6172 283.871C33.2262 284.009 32.8149 284.082 32.4002 284.085ZM77.0405 186.856C66.1969 186.851 55.5938 190.047 46.5637 196.044C24.5297 210.648 15.9694 238.909 26.2183 263.218C27.1267 265.371 28.1722 267.465 29.3484 269.485C29.9085 270.452 30.5077 271.417 31.1317 272.365C31.9204 273.554 32.7585 274.716 33.6357 275.837C45.499 271.287 63.6348 261.29 81.8798 249.19C100.125 237.089 116.389 224.277 125.192 215.119C124.498 213.885 123.75 212.651 122.962 211.469C122.344 210.529 121.681 209.603 121.01 208.716C119.599 206.849 118.073 205.072 116.438 203.397C111.309 198.153 105.181 193.988 98.4141 191.147C91.6478 188.306 84.3804 186.847 77.0405 186.856Z" fill="#371A45"/>
<path d="M434.522 472.037C427.568 477.214 421.754 472.985 396.792 474.952C392.715 475.277 377.413 477.57 372.477 471.583C370.23 468.863 369.855 464.842 370.279 460.842C371.021 453.924 374.157 447.06 374.157 447.06C374.157 447.06 367.58 446.003 364.948 436.509C362.337 427.072 373.475 408.891 373.475 408.891C373.475 408.891 375.839 340.226 366.758 293.312L358.358 282.758L312.34 224.96L382.388 236.729C382.388 236.729 383.279 238.002 384.859 240.454C387.33 244.257 391.467 250.897 396.494 259.929C413.746 290.947 441.502 350.144 448.003 419.389C449.161 431.854 450.724 459.986 434.522 472.037Z" fill="white"/>
<g opacity="0.35">
<path opacity="0.35" d="M447.53 447.398C445.907 456.973 442.217 466.321 434.522 472.041C427.568 477.219 421.754 472.99 396.792 474.956C392.715 475.281 377.413 477.574 372.477 471.587C370.23 468.868 369.855 464.846 370.279 460.846C371.021 453.928 374.157 447.065 374.157 447.065C374.157 447.065 367.58 446.007 364.948 436.513C363.554 431.482 366.066 423.982 368.716 418.064C368.539 419.883 368.607 421.592 369.023 423.073C371.655 432.57 378.234 433.627 378.234 433.627C378.234 433.627 375.098 440.485 374.355 447.408C373.93 451.411 377.89 443.344 378 446.865C378.525 463.604 396.792 461.845 400.857 461.518C425.826 459.552 431.633 463.781 438.587 458.604C442.545 455.666 445.432 451.785 447.53 447.398Z" fill="#371A45"/>
</g>
<path d="M367.992 293.088C368.832 295.398 369.552 297.743 370.257 300.098L370.765 301.869C370.924 302.459 371.056 303.056 371.202 303.648C371.492 304.837 371.758 306.03 372.026 307.223C372.293 308.416 372.547 309.613 372.798 310.81C372.925 311.411 373.024 312.011 373.129 312.612L373.436 314.416C373.638 315.617 373.831 316.821 374.015 318.028L374.289 319.838C374.379 320.443 374.47 321.045 374.538 321.65C375.761 331.317 376.515 341.032 376.918 350.745L377.149 358.03L377.203 359.85L377.236 361.673L377.299 365.314L377.367 368.954L377.402 372.595L377.443 376.236C377.464 377.449 377.456 378.663 377.468 379.876C377.483 382.303 377.511 384.729 377.505 387.156C377.499 389.583 377.505 392.01 377.485 394.437L377.454 398.078L377.4 401.72C377.359 404.154 377.308 406.569 377.231 409.031C377.214 409.651 377.04 410.257 376.725 410.791L376.682 410.861L376.367 411.392L376.039 411.956C375.823 412.336 375.607 412.721 375.395 413.107C374.969 413.879 374.557 414.66 374.159 415.448C373.35 417.02 372.59 418.614 371.894 420.218C371.198 421.822 370.549 423.443 370.003 425.062C369.459 426.639 369.021 428.25 368.694 429.885C368.39 431.34 368.283 432.829 368.377 434.312C368.41 434.615 368.459 434.917 368.525 435.215L368.57 435.421C368.57 435.458 368.583 435.486 368.595 435.53L368.64 435.667L368.815 436.215C368.919 436.579 369.044 436.937 369.19 437.286L369.396 437.802C369.454 437.974 369.524 438.142 369.606 438.304C370.18 439.562 370.985 440.7 371.98 441.659C372.431 442.098 372.936 442.478 373.481 442.79L373.687 442.906C373.751 442.943 373.819 442.969 373.893 443.002L374.089 443.101C374.155 443.13 374.219 443.152 374.283 443.181C374.414 443.241 374.532 443.276 374.651 443.319C374.707 443.34 374.75 443.346 374.801 443.364C374.815 443.369 374.829 443.372 374.843 443.375H374.859H374.847H374.822H374.773L377.592 448.64L377.369 449.154L377.135 449.72C376.98 450.103 376.828 450.487 376.684 450.878C376.389 451.656 376.113 452.443 375.86 453.233C375.607 454.023 375.366 454.819 375.145 455.615C374.925 456.411 374.734 457.207 374.569 457.999C374.231 459.541 374.017 461.107 373.928 462.683C373.891 463.415 373.901 464.15 373.957 464.881C373.972 465.239 374.033 465.568 374.072 465.91C374.097 466.076 374.136 466.233 374.167 466.393L374.213 466.634C374.231 466.71 374.254 466.784 374.274 466.858C374.41 467.418 374.618 467.958 374.892 468.464C374.96 468.573 375.024 468.687 375.086 468.8C375.147 468.913 375.238 469.005 375.308 469.096C375.369 469.187 375.438 469.273 375.514 469.351C375.551 469.388 375.582 469.429 375.619 469.468L375.749 469.579C376.153 469.928 376.604 470.22 377.087 470.447C377.695 470.723 378.323 470.948 378.967 471.122C380.451 471.5 381.969 471.734 383.498 471.821C384.301 471.877 385.12 471.899 385.944 471.91C386.768 471.92 387.606 471.91 388.446 471.871C390.128 471.805 391.827 471.677 393.559 471.509L394.873 471.379L396.259 471.245L398.996 471.04C402.622 470.805 406.263 470.657 409.91 470.645C411.731 470.637 413.551 470.656 415.369 470.702C417.183 470.75 418.989 470.822 420.758 470.89C422.527 470.957 424.258 471.021 425.842 470.974C426.584 470.956 427.325 470.895 428.06 470.793C428.697 470.706 429.322 470.553 429.928 470.336C430.509 470.123 431.065 469.847 431.587 469.513L431.793 469.386L431.999 469.24C432.137 469.139 432.269 469.057 432.423 468.927L433.315 468.211L433.539 468.033L433.745 467.837L434.168 467.446C434.456 467.194 434.731 466.927 434.991 466.646L435.784 465.807L436.523 464.912C436.645 464.762 436.775 464.62 436.888 464.46L437.232 463.987L437.576 463.514C437.691 463.355 437.806 463.199 437.909 463.03L438.543 462.035C438.655 461.872 438.749 461.695 438.846 461.522L439.139 461.004L439.431 460.486C439.528 460.313 439.61 460.128 439.701 459.951L440.236 458.875C440.551 458.131 440.901 457.407 441.179 456.637C442.37 453.612 443.183 450.37 443.776 447.065C444.054 445.405 444.291 443.732 444.46 442.042C444.628 440.351 444.758 438.65 444.82 436.937C444.968 433.516 444.925 430.064 444.756 426.607C444.668 424.879 444.55 423.147 444.4 421.411C444.264 419.677 444.048 417.914 443.865 416.172L443.296 410.925L443.224 410.269L443.133 409.615L442.954 408.307L442.596 405.69L442.238 403.074L442.059 401.766L441.97 401.112L441.863 400.46L441.004 395.247C440.475 391.765 439.754 388.314 439.106 384.852L438.858 383.554L438.733 382.904L438.593 382.258L438.031 379.677L436.91 374.51C436.515 372.792 436.087 371.083 435.675 369.368L435.057 366.799L434.746 365.513L434.406 364.236L433.047 359.124C432.815 358.273 432.602 357.417 432.355 356.572L431.62 354.029L430.148 348.949L428.575 343.895L427.786 341.369L427.58 340.738L427.374 340.111L426.962 338.856L425.284 333.835C425.012 332.998 424.709 332.167 424.415 331.336L423.527 328.843C422.93 327.181 422.364 325.511 421.728 323.863L419.862 318.908C419.557 318.085 419.228 317.263 418.902 316.44L417.926 313.972C416.652 310.681 415.249 307.435 413.911 304.173C412.498 300.935 411.12 297.683 409.64 294.476C408.198 291.253 406.679 288.067 405.165 284.875L402.84 280.115C402.056 278.533 401.25 276.964 400.458 275.384C397.242 269.096 393.879 262.889 390.367 256.765C388.6 253.713 386.815 250.671 384.966 247.678C384.509 246.925 384.039 246.183 383.574 245.438C383.108 244.694 382.639 243.951 382.163 243.213C381.688 242.474 381.214 241.742 380.736 241.01C380.258 240.277 379.764 239.543 379.295 238.875L381.756 240.432L364.252 237.492C358.414 236.517 352.547 235.707 346.697 234.804C340.847 233.901 335.029 232.801 329.247 231.492C326.364 230.826 323.481 230.081 320.625 229.215C319.196 228.79 317.773 228.33 316.356 227.833C314.939 227.335 313.526 226.805 312.13 226.188C311.868 226.072 311.651 225.872 311.515 225.62C311.379 225.367 311.331 225.077 311.378 224.794C311.425 224.511 311.565 224.252 311.776 224.058C311.987 223.863 312.256 223.744 312.542 223.719C314.064 223.594 315.571 223.559 317.072 223.553C318.574 223.547 320.071 223.575 321.56 223.639C324.541 223.756 327.505 223.991 330.454 224.306C336.344 224.957 342.202 225.814 348.027 226.877C353.853 227.936 359.662 229.086 365.498 230.073L383.001 233.019H383.022C383.512 233.102 383.981 233.282 384.4 233.549C384.819 233.816 385.18 234.165 385.462 234.574C386.012 235.37 386.492 236.108 387.005 236.873C387.517 237.638 387.999 238.389 388.483 239.15C388.967 239.911 389.457 240.674 389.925 241.44C390.392 242.205 390.882 242.966 391.35 243.735C393.244 246.8 395.056 249.906 396.864 253.012C400.443 259.245 403.864 265.562 407.125 271.962C410.387 278.361 413.5 284.83 416.462 291.368C417.965 294.627 419.366 297.932 420.803 301.221C422.17 304.541 423.587 307.838 424.886 311.187L425.877 313.69C426.209 314.525 426.544 315.356 426.853 316.199L428.75 321.239C429.396 322.915 429.975 324.614 430.582 326.303L431.484 328.841C431.785 329.686 432.102 330.532 432.37 331.385L434.077 336.495L434.505 337.772L434.711 338.409L434.917 339.053L435.72 341.624L437.322 346.767L438.821 351.942L439.571 354.531C439.822 355.393 440.038 356.265 440.275 357.131L441.661 362.341L442.007 363.643L442.324 364.954L442.958 367.574C443.37 369.32 443.813 371.071 444.217 372.815L445.362 378.087L445.934 380.722L446.076 381.38L446.204 382.042L446.457 383.367C447.12 386.901 447.853 390.422 448.397 393.98L449.272 399.306L449.381 399.97L449.472 400.639L449.655 401.976L450.022 404.649L450.388 407.323L450.571 408.66L450.662 409.329L450.738 409.999L451.319 415.368C451.508 417.162 451.731 418.937 451.869 420.753C452.007 422.569 452.149 424.385 452.242 426.21C452.421 429.863 452.468 433.539 452.31 437.231C452.242 439.082 452.104 440.933 451.918 442.784C451.733 444.635 451.471 446.487 451.16 448.338C450.495 452.04 449.577 455.743 448.162 459.342C447.833 460.249 447.415 461.134 447.03 462.016L446.379 463.333C446.268 463.553 446.173 463.773 446.045 463.989L445.683 464.635L445.32 465.278C445.197 465.484 445.079 465.708 444.942 465.916L444.14 467.173C444.011 467.378 443.865 467.584 443.716 467.79L443.276 468.407L442.835 469.014C442.689 469.219 442.52 469.404 442.363 469.602C442.042 469.989 441.723 470.379 441.398 470.762L440.368 471.869C440.028 472.245 439.649 472.582 439.277 472.928L438.716 473.446L438.436 473.703L438.14 473.944L436.948 474.898C436.76 475.057 436.517 475.217 436.295 475.378L435.955 475.616L435.595 475.843C434.615 476.468 433.571 476.986 432.479 477.385C431.406 477.772 430.295 478.048 429.166 478.208C428.136 478.355 427.1 478.443 426.06 478.471C424.079 478.525 422.253 478.449 420.457 478.385C418.661 478.321 416.911 478.245 415.161 478.2C413.41 478.154 411.672 478.136 409.93 478.144C406.448 478.154 402.966 478.296 399.479 478.523L396.885 478.714L394.263 478.969C392.449 479.146 390.592 479.288 388.703 479.36C387.764 479.395 386.815 479.411 385.862 479.405C384.908 479.399 383.94 479.366 382.966 479.3C380.937 479.181 378.925 478.863 376.957 478.352C375.88 478.061 374.829 477.679 373.817 477.208C372.687 476.672 371.638 475.979 370.702 475.151L370.335 474.818C370.216 474.701 370.1 474.571 369.983 474.448C369.751 474.208 369.535 473.953 369.336 473.685C369.143 473.428 368.951 473.169 368.766 472.905C368.58 472.642 368.44 472.364 368.284 472.083C367.701 471.027 367.256 469.902 366.96 468.734C366.923 468.594 366.882 468.452 366.849 468.323L366.764 467.911C366.711 467.636 366.649 467.358 366.608 467.088C366.536 466.545 366.449 465.994 366.42 465.463C366.339 464.42 366.325 463.372 366.377 462.327C366.483 460.346 366.749 458.378 367.172 456.44C367.573 454.569 368.072 452.721 368.669 450.903C368.966 450.002 369.287 449.109 369.614 448.229C369.779 447.787 369.954 447.344 370.133 446.9L370.409 446.232L370.555 445.892L370.72 445.522L373.539 450.788L373.405 450.765L373.284 450.74L373.131 450.705C373.033 450.683 372.925 450.656 372.839 450.633C372.668 450.584 372.487 450.537 372.326 450.483C372.009 450.376 371.69 450.267 371.4 450.142C371.251 450.08 371.101 450.02 370.955 449.954L370.531 449.749C370.391 449.679 370.248 449.611 370.119 449.543L369.717 449.313C368.665 448.708 367.69 447.978 366.814 447.139C365.142 445.544 363.784 443.651 362.81 441.556C362.685 441.311 362.572 441.059 362.473 440.801L362.16 440.042C361.954 439.542 361.775 439.031 361.622 438.512L361.379 437.743L361.32 437.552C361.299 437.484 361.282 437.399 361.264 437.325L361.157 436.862C361.023 436.263 360.925 435.655 360.862 435.044C360.84 434.75 360.823 434.462 360.807 434.17L360.784 433.734V433.31L360.794 432.465L360.848 431.642L360.877 431.231L360.922 430.832L361.017 430.036C361.097 429.515 361.177 428.997 361.274 428.487C361.667 426.512 362.193 424.566 362.848 422.662C363.478 420.794 364.198 418.99 364.971 417.223C365.743 415.456 366.569 413.727 367.442 412.025C367.878 411.174 368.327 410.329 368.788 409.491C369.021 409.08 369.256 408.654 369.495 408.235L369.859 407.605L370.25 406.949L369.701 408.78C369.773 406.412 369.824 403.995 369.865 401.599L369.917 397.993L369.948 394.388C369.973 391.983 369.97 389.579 369.968 387.172C369.966 384.766 369.944 382.363 369.919 379.959C369.789 370.339 369.379 360.727 368.85 351.133L368.426 343.945L368.327 342.147C368.298 341.546 368.265 340.948 368.22 340.349L367.989 336.76C367.827 334.368 367.73 331.965 367.541 329.579C367.351 327.193 367.213 324.797 367.059 322.403C367.03 321.802 366.97 321.208 366.927 320.611L366.791 318.82C366.707 317.625 366.624 316.43 366.554 315.232L366.451 313.435C366.414 312.836 366.4 312.233 366.346 311.639C366.262 310.444 366.177 309.249 366.107 308.05C366.037 306.851 365.973 305.649 365.926 304.446L365.85 302.638L365.739 300.838C365.607 298.434 365.5 296.019 365.512 293.569V293.52C365.514 293.223 365.62 292.935 365.812 292.708C366.005 292.481 366.271 292.329 366.564 292.278C366.858 292.227 367.159 292.281 367.417 292.431C367.675 292.58 367.871 292.815 367.973 293.094L367.992 293.088Z" fill="#371A45"/>
<g opacity="0.35">
<path opacity="0.35" d="M396.485 259.933C394.733 261.435 392.943 262.878 391.113 264.281C366.76 282.946 336.73 292.693 306.045 291.893C275.36 291.092 245.881 279.793 222.537 259.884C224.596 252.571 226.505 245.28 228.235 237.988C248.827 190.569 373.218 209.679 379.441 224.964C381.309 229.559 383.121 234.757 384.851 240.458C387.315 244.262 391.459 250.901 396.485 259.933Z" fill="#371A45"/>
</g>
<path d="M440.337 176.257C439.613 176.275 438.912 176.006 438.387 175.508C437.863 175.01 437.557 174.324 437.538 173.601L435.522 95.0859C435.504 94.3637 435.774 93.6639 436.272 93.1401C436.77 92.6163 437.456 92.3115 438.179 92.2927C441.939 92.1961 445.68 92.8402 449.191 94.1882C452.701 95.5362 455.911 97.5617 458.638 100.149C461.365 102.736 463.554 105.835 465.082 109.268C466.61 112.7 467.446 116.4 467.542 120.155L468.229 146.93C468.424 154.513 465.594 161.863 460.363 167.363C455.133 172.863 447.929 176.062 440.337 176.257Z" fill="white"/>
<path d="M440.265 176.933C439.378 176.932 438.526 176.585 437.891 175.966C437.255 175.348 436.887 174.506 436.863 173.62L434.847 95.1042C434.834 94.6569 434.91 94.2113 435.07 93.7932C435.23 93.3751 435.471 92.9927 435.779 92.6678C436.087 92.3429 436.456 92.082 436.866 91.9001C437.275 91.7181 437.717 91.6187 438.165 91.6075C442.014 91.5077 445.845 92.1662 449.439 93.5456C453.033 94.925 456.32 96.9982 459.112 99.6467C461.904 102.295 464.146 105.467 465.711 108.982C467.275 112.496 468.131 116.284 468.23 120.128L468.917 146.901C469.018 150.746 468.359 154.573 466.978 158.163C465.597 161.753 463.522 165.037 460.87 167.826C458.218 170.615 455.043 172.854 451.524 174.417C448.005 175.979 444.213 176.834 440.364 176.931H440.275L440.265 176.933ZM440.318 175.584L440.337 176.259L440.318 175.584C443.99 175.49 447.606 174.675 450.962 173.185C454.317 171.695 457.346 169.559 459.876 166.9C462.405 164.241 464.385 161.11 465.703 157.686C467.021 154.262 467.65 150.613 467.556 146.946L466.87 120.172C466.776 116.505 465.96 112.892 464.469 109.54C462.977 106.189 460.839 103.163 458.176 100.637C455.514 98.1105 452.38 96.1327 448.952 94.8163C445.524 93.5 441.871 92.8709 438.2 92.9651C437.655 92.9802 437.139 93.21 436.764 93.6044C436.389 93.9987 436.185 94.5254 436.198 95.0693L438.212 173.585C438.227 174.129 438.457 174.644 438.852 175.019C439.247 175.394 439.774 175.597 440.318 175.584Z" fill="#371A45"/>
<g opacity="0.35">
<path opacity="0.35" d="M467.91 134.375L468.234 146.922C468.427 154.507 465.597 161.858 460.365 167.359C455.134 172.86 447.929 176.061 440.335 176.257C439.611 176.275 438.909 176.004 438.384 175.505C437.859 175.006 437.554 174.319 437.536 173.595L436.993 152.724C437.22 153.198 437.578 153.596 438.026 153.872C438.474 154.147 438.992 154.288 439.517 154.277L441.381 154.226C447.318 154.075 453.062 152.083 457.815 148.526C462.569 144.969 466.097 140.024 467.91 134.375Z" fill="#371A45"/>
</g>
<path d="M440.265 180.013C438.574 180.01 436.95 179.349 435.74 178.17C434.529 176.991 433.826 175.387 433.78 173.698L431.766 95.1845C431.722 93.4665 432.363 91.8012 433.548 90.5549C434.732 89.3087 436.364 88.5834 438.084 88.5387C446.674 88.3188 454.999 91.516 461.228 97.4271C467.458 103.338 471.081 111.479 471.302 120.058L471.988 146.833C472.208 155.41 469.009 163.724 463.094 169.946C457.179 176.168 449.031 179.788 440.444 180.011H440.275L440.265 180.013ZM439.307 96.0381L441.268 172.458C447.674 172.029 453.667 169.143 457.992 164.402C462.317 159.662 464.64 153.436 464.475 147.024L463.788 120.252C463.623 113.841 460.983 107.742 456.421 103.229C451.859 98.7165 445.727 96.14 439.307 96.0381Z" fill="#371A45"/>
<path d="M178.724 98.9362C179.448 98.9174 180.15 99.1866 180.675 99.6846C181.2 100.183 181.506 100.869 181.525 101.592L183.539 180.107C183.548 180.465 183.486 180.821 183.358 181.156C183.229 181.49 183.036 181.795 182.789 182.055C182.542 182.315 182.247 182.523 181.919 182.669C181.591 182.814 181.238 182.893 180.88 182.903C177.12 182.999 173.379 182.355 169.868 181.006C166.358 179.658 163.148 177.633 160.421 175.046C157.695 172.458 155.505 169.36 153.977 165.927C152.45 162.495 151.614 158.795 151.517 155.04L150.829 128.265C150.733 124.51 151.378 120.773 152.728 117.266C154.077 113.76 156.105 110.554 158.695 107.83C161.286 105.107 164.388 102.92 167.824 101.394C171.261 99.8675 174.964 99.0325 178.724 98.9362Z" fill="white"/>
<path d="M180.126 183.585C172.485 183.581 165.148 180.596 159.678 175.267C154.208 169.938 151.037 162.686 150.842 155.056L150.154 128.282C149.742 112.144 162.549 98.6751 178.708 98.2513C179.155 98.2388 179.601 98.3145 180.02 98.4743C180.438 98.6342 180.821 98.8749 181.146 99.1827C181.471 99.4905 181.733 99.8594 181.915 100.268C182.097 100.677 182.197 101.118 182.208 101.565L184.224 180.078C184.236 180.526 184.16 180.971 184 181.389C183.84 181.806 183.599 182.188 183.291 182.513C182.983 182.838 182.614 183.099 182.205 183.281C181.796 183.463 181.355 183.563 180.907 183.575C180.641 183.583 180.382 183.585 180.126 183.585ZM178.724 98.9363L178.743 99.6089C163.329 100.004 151.11 112.851 151.505 128.247L152.193 155.021C152.384 162.426 155.512 169.451 160.889 174.552C166.266 179.653 173.451 182.412 180.864 182.222C181.408 182.206 181.923 181.976 182.298 181.582C182.673 181.187 182.876 180.661 182.863 180.118L180.849 101.602C180.834 101.058 180.604 100.543 180.209 100.168C179.814 99.7932 179.287 99.59 178.743 99.6027L178.724 98.9363Z" fill="#371A45"/>
<g opacity="0.35">
<path opacity="0.35" d="M182.987 158.325L183.543 180.107C183.56 180.831 183.289 181.532 182.789 182.056C182.29 182.58 181.602 182.884 180.878 182.903C177.119 183 173.377 182.357 169.866 181.01C166.356 179.662 163.146 177.637 160.419 175.05C157.693 172.463 155.504 169.364 153.976 165.932C152.449 162.499 151.614 158.799 151.519 155.044L151.229 143.762C153.63 148.711 157.407 152.863 162.109 155.723C166.811 158.584 172.238 160.03 177.742 159.89L180.61 159.816C181.104 159.802 181.584 159.657 182.002 159.395C182.42 159.132 182.76 158.763 182.987 158.325Z" fill="#371A45"/>
</g>
<path d="M180.124 186.667C171.68 186.66 163.571 183.361 157.526 177.471C151.48 171.581 147.976 163.567 147.759 155.135L147.073 128.362C146.614 110.525 160.772 95.6411 178.629 95.1824C180.349 95.1399 182.015 95.7807 183.263 96.9643C184.51 98.1478 185.235 99.7773 185.281 101.495L187.297 180.011C187.339 181.728 186.697 183.392 185.512 184.638C184.327 185.883 182.696 186.608 180.977 186.654C180.693 186.663 180.409 186.667 180.124 186.667ZM177.793 102.746C171.391 103.184 165.404 106.073 161.081 110.811C156.758 115.549 154.432 121.77 154.588 128.179L155.273 154.954C155.438 161.365 158.078 167.464 162.641 171.976C167.204 176.488 173.336 179.064 179.756 179.165L177.793 102.746ZM178.724 98.9465L178.821 102.698L178.724 98.9465Z" fill="#371A45"/>
<path d="M309.546 271.437C383.548 271.437 443.539 211.515 443.539 137.598C443.539 63.6801 383.548 3.75806 309.546 3.75806C235.544 3.75806 175.553 63.6801 175.553 137.598C175.553 211.515 235.544 271.437 309.546 271.437Z" fill="white"/>
<path d="M309.703 272.108C307.62 272.108 305.533 272.06 303.44 271.966C276.811 270.773 251.134 261.718 229.659 245.946C208.183 230.174 191.873 208.394 182.792 183.361C173.712 158.328 172.269 131.167 178.646 105.315C185.023 79.4626 198.933 56.0804 218.617 38.1265C238.301 20.1726 262.874 8.45379 289.227 4.45258C315.58 0.451371 342.53 4.34761 366.665 15.6484C390.801 26.9491 411.039 45.1465 424.819 67.9385C438.598 90.7304 445.3 117.093 444.077 143.69L443.403 143.659L444.077 143.69C442.535 178.257 427.706 210.899 402.676 234.82C377.646 258.74 344.344 272.096 309.703 272.108ZM309.402 4.42225C276.079 4.42225 244.416 16.6648 219.648 39.2556C193.353 63.241 177.981 96.0257 176.366 131.552C174.752 167.079 187.087 201.12 211.1 227.387C235.112 253.653 267.935 269.006 303.502 270.618C305.57 270.713 307.633 270.76 309.692 270.758C343.015 270.758 374.678 258.518 399.447 235.925C425.743 211.94 441.113 179.155 442.728 143.628C444.342 108.102 432.001 74.0664 407.994 47.7999C383.988 21.5335 351.159 6.18088 315.592 4.56828C313.524 4.47366 311.461 4.42704 309.402 4.42841V4.42225Z" fill="#371A45"/>
<g opacity="0.35">
<path opacity="0.35" d="M442.961 125.1C443.542 131.271 443.691 137.475 443.405 143.667C440.04 217.51 377.394 274.648 303.469 271.303C229.544 267.959 172.33 205.368 175.687 131.528C175.781 129.405 175.928 127.282 176.125 125.194C182.192 190.688 235.823 243.332 303.463 246.401C375.261 249.651 436.41 195.847 442.961 125.1Z" fill="#371A45"/>
</g>
<path d="M309.704 275.193C307.575 275.193 305.44 275.145 303.3 275.049C276.062 273.829 249.798 264.566 227.832 248.433C205.865 232.3 189.182 210.021 179.895 184.416C170.607 158.81 169.131 131.028 175.654 104.585C182.177 78.1413 196.405 54.2245 216.539 35.86C236.673 17.4955 261.808 5.50866 288.764 1.41585C315.72 -2.67697 343.286 1.3082 367.974 12.8672C392.662 24.4261 413.362 43.0395 427.457 66.3525C441.552 89.6655 448.408 116.63 447.157 143.836L443.403 143.665L447.157 143.836C445.58 179.195 430.411 212.584 404.807 237.052C379.204 261.52 345.139 275.182 309.704 275.193ZM309.406 7.50763C276.853 7.50763 245.923 19.4664 221.727 41.5347C196.038 64.9668 181.022 96.9864 179.447 131.698C177.872 166.41 189.918 199.658 213.377 225.316C236.836 250.973 268.89 265.974 303.642 267.55C305.66 267.64 307.68 267.685 309.688 267.685C342.241 267.685 373.17 255.727 397.367 233.658C423.056 210.226 438.072 178.207 439.647 143.495C441.222 108.783 429.176 75.5371 405.719 49.8775C382.262 24.2178 350.204 9.22101 315.448 7.64544C313.434 7.55288 311.414 7.50763 309.406 7.50763Z" fill="#371A45"/>
<path d="M309.704 275.193C307.575 275.193 305.44 275.145 303.3 275.049C276.062 273.829 249.798 264.566 227.832 248.433C205.865 232.3 189.182 210.021 179.895 184.416C170.607 158.81 169.131 131.028 175.654 104.585C182.177 78.1413 196.405 54.2245 216.539 35.86C236.673 17.4955 261.808 5.50866 288.764 1.41585C315.72 -2.67697 343.286 1.3082 367.974 12.8672C392.662 24.4261 413.362 43.0395 427.457 66.3525C441.552 89.6655 448.408 116.63 447.157 143.836L443.403 143.665L447.157 143.836C445.58 179.195 430.411 212.584 404.807 237.052C379.204 261.52 345.139 275.182 309.704 275.193ZM309.406 7.50763C276.853 7.50763 245.923 19.4664 221.727 41.5347C196.038 64.9668 181.022 96.9864 179.447 131.698C177.872 166.41 189.918 199.658 213.377 225.316C236.836 250.973 268.89 265.974 303.642 267.55C305.66 267.64 307.68 267.685 309.688 267.685C342.241 267.685 373.17 255.727 397.367 233.658C423.056 210.226 438.072 178.207 439.647 143.495C441.222 108.783 429.176 75.5371 405.719 49.8775C382.262 24.2178 350.204 9.22101 315.448 7.64544C313.434 7.55288 311.414 7.50763 309.406 7.50763Z" fill="#371A45"/>
<path d="M443.364 145.068C442.571 171.246 433.327 195.293 418.167 214.963C406.802 229.709 361.163 254.737 305.776 253.561C254.42 252.471 208.536 223.715 198.077 208.309C184.136 187.761 176.364 163.2 177.157 137.02C179.255 67.7437 239.713 40.8272 313.226 43.0487C386.739 45.2701 445.462 75.7923 443.364 145.068Z" fill="#7855DC"/>
<path d="M309.046 258.386C307.763 258.386 306.474 258.372 305.17 258.345C275.818 257.728 250.724 248.472 234.839 240.812C216.818 232.128 201.273 220.77 195.241 211.878C180.458 190.087 173.061 164.87 173.846 138.949C174.367 121.745 178.467 106.425 186.028 93.4197C193.147 81.1792 203.371 70.9009 216.419 62.8749C240.238 48.2237 273.559 41.1069 312.771 42.2916C351.983 43.4764 384.813 52.5946 407.702 68.6568C420.241 77.4562 429.824 88.333 436.188 100.981C442.95 114.421 446.113 129.958 445.592 147.164C444.808 173.081 435.895 197.809 419.821 218.666C413.132 227.344 397.48 237.363 378.971 244.815C363.393 251.088 338.855 258.386 309.046 258.386ZM304.416 47.7013C269.854 47.7013 240.565 54.5281 219.328 67.5914C193.794 83.2998 180.355 107.363 179.393 139.111C178.644 163.858 185.713 187.944 199.835 208.762C204.03 214.945 216.346 225.739 237.252 235.812C252.639 243.217 276.934 252.193 305.289 252.796C335.908 253.446 361.13 246.008 376.896 239.666C398.009 231.167 410.846 221.216 415.424 215.278C430.78 195.351 439.295 171.738 440.044 146.989L442.818 147.074L440.044 146.989C441.006 115.241 429.05 90.4105 404.512 73.1881C382.513 57.7491 350.733 48.9786 312.604 47.8267C309.845 47.7431 307.115 47.7013 304.416 47.7013Z" fill="#371A45"/>
<g opacity="0.5">
<path opacity="0.5" d="M416.621 139.907C419.344 127.112 414.027 115.142 404.745 113.172C395.462 111.201 385.73 119.976 383.008 132.771C380.285 145.566 385.602 157.536 394.884 159.507C404.167 161.477 413.899 152.702 416.621 139.907Z" fill="white"/>
</g>
<g opacity="0.5">
<path opacity="0.5" d="M386.191 185.836C388.242 180.193 385.973 174.193 381.124 172.435C376.275 170.677 370.682 173.826 368.631 179.47C366.58 185.113 368.848 191.113 373.698 192.871C378.547 194.63 384.14 191.48 386.191 185.836Z" fill="white"/>
</g>
<g opacity="0.35">
<path opacity="0.35" d="M418.89 81.6687C434.691 97.6692 443.657 119.252 442.816 147.078C442.024 173.262 432.775 197.307 417.626 216.977C406.259 231.723 360.613 256.751 305.228 255.579C285.665 255.167 266.913 250.741 250.596 244.558C318.71 244.558 374.313 213.818 388.407 195.528C407.649 170.565 419.38 140.041 420.381 106.822C420.668 98.4098 420.169 89.9887 418.89 81.6687Z" fill="#111A28"/>
</g>
<path d="M433.212 89.3101C432.396 89.3117 431.609 89.0129 431 88.4709L430.671 88.1829L430.426 87.8168C408.804 55.5237 365.737 36.0593 312.262 34.4426C258.489 32.8177 214.345 50.2251 191.15 82.1974L191.059 82.3228L190.925 82.475C190.351 83.1259 189.545 83.527 188.68 83.593C187.814 83.6589 186.956 83.3844 186.29 82.828C185.624 82.2716 185.202 81.4773 185.114 80.6144C185.026 79.7516 185.278 78.8885 185.818 78.2091C192.087 69.5866 199.821 61.8712 208.814 55.2768C217.568 48.8552 227.582 43.4436 238.576 39.1899C249.344 35.0247 261.121 31.9435 273.583 30.0347C285.939 28.1403 299.013 27.3854 312.466 27.7927C339.03 28.597 364.135 33.9284 385.087 43.2194C395.861 47.9955 405.602 53.8206 414.036 60.5342C422.704 67.4351 430.045 75.3171 435.864 83.9663C436.242 84.459 436.474 85.0473 436.534 85.6649C436.595 86.2825 436.481 86.9046 436.206 87.4609C435.931 88.0173 435.505 88.4857 434.978 88.8132C434.45 89.1407 433.841 89.3142 433.22 89.3142L433.212 89.3101ZM188.256 80.1055L188.438 80.2639L188.256 80.1055Z" fill="#371A45"/>
<g opacity="0.5">
<path opacity="0.5" d="M205.262 181.148C205.262 181.148 185.853 112.158 223.552 86.0396C261.25 59.9213 314.297 61.6347 312.952 64.9956C312.952 64.9956 253.792 77.4213 229.408 123.103C210.603 158.331 205.262 181.148 205.262 181.148Z" fill="white"/>
</g>
<path d="M372.81 351.95C372.168 351.95 371.545 351.727 371.049 351.32C370.553 350.912 370.213 350.346 370.088 349.716C369.963 349.087 370.061 348.433 370.364 347.868C370.668 347.302 371.158 346.859 371.752 346.614C372.139 346.456 381.358 342.696 393.666 340.444C400.935 339.113 407.776 338.592 413.993 338.897C421.905 339.284 428.846 341.015 434.623 344.039C435.259 344.389 435.732 344.974 435.941 345.669C436.15 346.364 436.078 347.113 435.741 347.755C435.403 348.397 434.827 348.882 434.136 349.105C433.445 349.329 432.694 349.272 432.044 348.949C420.513 342.902 405.408 343.938 394.772 345.874C387.635 347.174 380.634 349.137 373.863 351.738C373.529 351.876 373.171 351.948 372.81 351.95Z" fill="#371A45"/>
<path d="M379.328 432.012C379.385 432.399 379.429 432.74 379.472 433.1C379.515 433.46 379.552 433.812 379.583 434.166C379.651 434.878 379.698 435.589 379.731 436.303C379.795 437.733 379.797 439.183 379.717 440.622C379.628 442.106 379.44 443.582 379.155 445.041C378.829 446.588 378.337 448.096 377.686 449.537C377.526 449.888 377.294 450.202 377.006 450.459C376.718 450.715 376.379 450.909 376.012 451.028C375.644 451.148 375.256 451.189 374.872 451.15C374.488 451.111 374.116 450.993 373.779 450.803C373.443 450.613 373.15 450.355 372.919 450.046C372.688 449.737 372.524 449.383 372.437 449.007C372.35 448.631 372.343 448.241 372.415 447.862C372.487 447.483 372.637 447.123 372.855 446.805C373.51 445.828 374.058 444.783 374.491 443.689C374.938 442.501 375.308 441.285 375.596 440.049C375.883 438.782 376.103 437.484 376.266 436.169C376.348 435.513 376.414 434.851 376.472 434.188C376.498 433.857 376.517 433.526 376.535 433.195C376.554 432.864 376.564 432.524 376.572 432.226V432.171C376.579 431.822 376.716 431.488 376.958 431.236C377.199 430.984 377.527 430.832 377.875 430.81C378.224 430.788 378.568 430.898 378.839 431.119C379.11 431.339 379.288 431.653 379.338 431.998L379.328 432.012Z" fill="#371A45"/>
<path d="M125.96 375.633C125.169 375.307 124.338 375.089 123.489 374.983C122.629 374.869 121.762 374.808 120.894 374.802C120.023 374.79 119.144 374.837 118.267 374.901C117.389 374.964 116.51 375.059 115.635 375.174C113.88 375.398 112.134 375.732 110.398 376.087C109.529 376.268 108.664 376.465 107.802 376.676C107.37 376.78 106.942 376.888 106.517 377.001C106.105 377.112 105.656 377.231 105.267 377.348C104.761 377.497 104.218 377.439 103.754 377.188C103.291 376.937 102.947 376.513 102.795 376.009C102.731 375.797 102.703 375.575 102.713 375.353L102.73 375.038L102.754 374.5L102.775 373.938L102.804 372.811C102.818 372.058 102.818 371.305 102.804 370.548C102.777 369.077 102.668 367.608 102.476 366.149C102.377 365.439 102.25 364.746 102.095 364.092C101.959 363.478 101.77 362.877 101.529 362.296C101.374 361.886 101.139 361.511 100.839 361.192C100.744 361.107 100.681 361.089 100.666 361.097C100.652 361.105 100.685 361.138 100.652 361.15C100.636 361.153 100.62 361.153 100.604 361.15C100.576 361.156 100.547 361.161 100.518 361.163C100.483 361.165 100.449 361.171 100.415 361.179C100.375 361.184 100.335 361.191 100.296 361.2C100.205 361.222 100.116 361.237 100.011 361.272C99.9064 361.307 99.8055 361.34 99.6922 361.377C99.1966 361.564 98.7234 361.806 98.2816 362.099C97.2681 362.764 96.3648 363.584 95.6046 364.528C94.8048 365.514 94.1272 366.592 93.5865 367.741C93.0382 368.92 92.6138 370.153 92.3201 371.42C92.2501 371.743 92.1677 372.06 92.1142 372.389L92.0256 372.877C91.9989 373.041 91.9783 373.208 91.9536 373.372C91.9289 373.537 91.9041 373.699 91.8856 373.866L91.8362 374.366L91.8094 374.617L91.795 374.74V374.841L91.7826 375.252C91.7608 376.32 91.9346 377.382 92.2954 378.387C92.4004 378.642 92.5013 378.899 92.6105 379.154L92.7999 379.535C92.8607 379.665 92.9295 379.791 93.0058 379.913C93.1582 380.162 93.2797 380.421 93.4568 380.666L93.7019 381.04C93.7801 381.166 93.881 381.285 93.9696 381.409C94.7386 382.432 95.6048 383.378 96.556 384.235C98.63 386.069 100.91 387.657 103.351 388.966C103.66 389.137 103.969 389.302 104.278 389.459C104.585 389.618 104.896 389.772 105.186 389.906L105.285 389.953L105.308 389.963H105.293H105.269L105.528 390.068L106.055 390.274L107.116 390.685C107.82 390.965 108.528 391.236 109.227 391.498C109.925 391.759 110.617 392.016 111.261 392.246L111.329 392.271C112.223 392.6 112.958 393.255 113.387 394.104C113.816 394.953 113.907 395.933 113.641 396.847C113.375 397.76 112.772 398.539 111.954 399.025C111.136 399.512 110.163 399.671 109.233 399.47C108.372 399.264 107.585 399.048 106.786 398.826C105.987 398.604 105.23 398.353 104.463 398.108C104.078 397.985 103.695 397.864 103.314 397.732L102.742 397.526L102.454 397.426L102.291 397.364L102.163 397.312L101.992 397.243C101.562 397.066 101.169 396.891 100.769 396.708C100.37 396.525 99.9846 396.342 99.5996 396.148C98.8294 395.768 98.0757 395.356 97.3344 394.914C96.5931 394.472 95.8579 394.024 95.1372 393.54C93.6697 392.563 92.2784 391.476 90.9754 390.288C89.6107 389.04 88.3814 387.651 87.3079 386.146C86.1582 384.539 85.2636 382.765 84.6556 380.886C84.0347 378.915 83.7963 376.844 83.9534 374.783L84.0234 374.018L84.0419 373.829L84.0687 373.662L84.1202 373.331L84.2293 372.671C84.2685 372.451 84.3158 372.231 84.3611 372.011C84.4064 371.791 84.4476 371.571 84.4991 371.352L84.6597 370.694C84.7606 370.258 84.8965 369.824 85.0221 369.39C86.0826 365.931 87.8701 362.603 90.4833 359.883C91.8115 358.49 93.3524 357.315 95.0486 356.403C95.9619 355.916 96.9296 355.538 97.9315 355.278C98.1992 355.214 98.4649 355.148 98.7552 355.105C99.0456 355.062 99.3298 355.021 99.6284 354.992C99.7725 354.976 99.9393 354.976 100.094 354.971C100.254 354.963 100.415 354.963 100.576 354.971C100.742 354.971 100.911 354.99 101.078 355.002C101.245 355.015 101.432 355.052 101.609 355.08C102.384 355.217 103.124 355.506 103.786 355.93C104.39 356.318 104.925 356.805 105.367 357.37C106.053 358.27 106.569 359.288 106.887 360.373C107.466 362.273 107.612 364.009 107.67 365.708C107.71 367.367 107.656 369.026 107.507 370.678C107.44 371.49 107.354 372.299 107.25 373.105C107.198 373.516 107.147 373.909 107.083 374.312L106.986 374.917L106.877 375.534L104.33 373.224C104.826 373.142 105.273 373.078 105.74 373.019C106.208 372.959 106.665 372.897 107.126 372.844C108.049 372.734 108.973 372.641 109.898 372.566C110.823 372.491 111.75 372.434 112.68 372.397C113.609 372.365 114.533 372.344 115.472 372.354C117.348 372.354 119.22 372.499 121.073 372.788C122.013 372.936 122.94 373.153 123.847 373.436C124.776 373.716 125.66 374.126 126.475 374.652C126.585 374.727 126.664 374.841 126.695 374.97C126.726 375.1 126.708 375.237 126.644 375.354C126.581 375.471 126.475 375.561 126.349 375.605C126.223 375.649 126.085 375.645 125.962 375.594L125.96 375.633Z" fill="#371A45"/>
</g>
<defs>
<clipPath id="clip0">
<rect width="472" height="630" fill="white"/>
</clipPath>
</defs>
</svg>
