<svg id="Layer_1" data-name="Layer 1" xmlns="http://www.w3.org/2000/svg" viewBox="0 0 64.7 30.98"><defs><style>.cls-1{fill:#f4f4f4;}.cls-2{fill:#f2f4f3;}</style></defs><title>php-ar21</title><path class="cls-1" d="M38.4,34.7a7.32,7.32,0,0,0,4.42-1.08A5.8,5.8,0,0,0,44.73,30c.31-1.6.19-2.71-.36-3.31s-1.78-.93-3.61-.93H37.58l-1.76,9ZM28,45.72a.53.53,0,0,1-.39-.18.48.48,0,0,1-.1-.4l4.67-23.71a.49.49,0,0,1,.49-.39H42.74c3.17,0,5.52.84,7,2.52s1.95,4,1.37,7a10.71,10.71,0,0,1-3.44,6.07A9.71,9.71,0,0,1,44,38.78a17,17,0,0,1-5,.63H34.89l-1.16,5.91a.5.5,0,0,1-.49.4Z" transform="translate(-27.51 -14.74)"/><path class="cls-1" d="M63.11,39.41a.49.49,0,0,1-.38-.17.5.5,0,0,1-.1-.41l2.06-10.48c.2-1,.15-1.72-.13-2s-.7-.5-2.25-.5H58.57L56,39a.48.48,0,0,1-.48.39h-5.2a.48.48,0,0,1-.49-.48.34.34,0,0,1,0-.1l4.67-23.7a.48.48,0,0,1,.48-.39h5.2a.48.48,0,0,1,.49.48.34.34,0,0,1,0,.1L59.52,21h4c3.07,0,5.15.53,6.36,1.63s1.62,2.91,1.15,5.32L68.87,39a.48.48,0,0,1-.48.39Z" transform="translate(-27.51 -14.74)"/><path class="cls-2" d="M79.26,34.7a7.32,7.32,0,0,0,4.42-1.08A5.8,5.8,0,0,0,85.59,30c.31-1.6.19-2.71-.36-3.31s-1.77-.93-3.61-.93H78.44l-1.76,9Zm-10.39,11a.49.49,0,0,1-.38-.18.46.46,0,0,1-.11-.4l4.67-23.71a.49.49,0,0,1,.49-.39H83.6c3.17,0,5.52.84,7,2.52s2,4,1.37,7a11.06,11.06,0,0,1-1.21,3.32,11.32,11.32,0,0,1-2.23,2.75,9.71,9.71,0,0,1-3.67,2.17,16.9,16.9,0,0,1-5,.63H75.75l-1.16,5.91a.5.5,0,0,1-.49.4Z" transform="translate(-27.51 -14.74)"/></svg>