<svg id="Layer_1" data-name="Layer 1" xmlns="http://www.w3.org/2000/svg" xmlns:xlink="http://www.w3.org/1999/xlink" viewBox="0 0 65.69 31.96"><defs><style>.cls-1{fill:none;}.cls-2{clip-path:url(#clip-path);}.cls-3{fill:#f4f4f4;}.cls-4{fill:#fff;}.cls-5{fill:#f2f4f3;}</style><clipPath id="clip-path" transform="translate(-27.02 -14.25)"><rect class="cls-1" x="11.74" y="5.64" width="94.97" height="52.69"/></clipPath></defs><title>php</title><g class="cls-2"><path class="cls-3" d="M38.4,34.7a7.32,7.32,0,0,0,4.42-1.08A5.8,5.8,0,0,0,44.73,30c.31-1.6.19-2.71-.36-3.31s-1.78-.93-3.61-.93H37.58l-1.76,9ZM28,45.72a.53.53,0,0,1-.39-.18.48.48,0,0,1-.1-.4l4.67-23.71a.49.49,0,0,1,.49-.39H42.74c3.17,0,5.52.84,7,2.52s1.95,4,1.37,7a10.71,10.71,0,0,1-3.44,6.07A9.71,9.71,0,0,1,44,38.78a17,17,0,0,1-5,.63H34.89l-1.16,5.91a.5.5,0,0,1-.49.4Z" transform="translate(-27.02 -14.25)"/><path class="cls-4" d="M38,26.24h2.77c2.21,0,3,.48,3.24.77.44.47.52,1.47.24,2.89a5.34,5.34,0,0,1-1.72,3.34,7,7,0,0,1-4.12,1h-2l1.57-8Zm4.75-5.69H32.68a1,1,0,0,0-1,.79L27,45a1,1,0,0,0,.78,1.15h5.42a1,1,0,0,0,1-.78L35.3,39.9H39a17.34,17.34,0,0,0,5.19-.66A10.38,10.38,0,0,0,48,37a11.66,11.66,0,0,0,2.32-2.88,11.35,11.35,0,0,0,1.26-3.46c.62-3.11.12-5.6-1.47-7.39s-4.06-2.69-7.38-2.69M35.22,35.19H38.4A7.79,7.79,0,0,0,43.12,34a6.21,6.21,0,0,0,2.09-3.93c.35-1.76.19-3-.47-3.73s-2-1.08-4-1.08H37.18l-2,9.92m7.52-13.66q4.55,0,6.63,2.35t1.25,6.56a10.4,10.4,0,0,1-1.15,3.18,11,11,0,0,1-2.13,2.63,9.38,9.38,0,0,1-3.49,2.06,16.24,16.24,0,0,1-4.88.62H34.48l-1.24,6.3H28l4.67-23.7H42.74" transform="translate(-27.02 -14.25)"/><path class="cls-3" d="M63.11,39.41a.49.49,0,0,1-.38-.17.5.5,0,0,1-.1-.41l2.06-10.48c.2-1,.15-1.72-.13-2s-.7-.5-2.25-.5H58.57L56,39a.48.48,0,0,1-.48.39h-5.2a.48.48,0,0,1-.49-.48.34.34,0,0,1,0-.1l4.67-23.7a.48.48,0,0,1,.48-.39h5.2a.48.48,0,0,1,.49.48.34.34,0,0,1,0,.1L59.52,21h4c3.07,0,5.15.53,6.36,1.63s1.62,2.91,1.15,5.32L68.87,39a.48.48,0,0,1-.48.39Z" transform="translate(-27.02 -14.25)"/><path class="cls-4" d="M60.16,14.25H55A1,1,0,0,0,54,15l-4.67,23.7a1,1,0,0,0,.78,1.14.65.65,0,0,0,.19,0h5.2a1,1,0,0,0,1-.79L59,26.32h3.33c1.55,0,1.87.33,1.88.34s.22.56,0,1.59L62.14,38.74a1,1,0,0,0,.78,1.14.65.65,0,0,0,.19,0h5.28a1,1,0,0,0,1-.79l2.17-11c.51-2.59.08-4.53-1.29-5.77s-3.5-1.76-6.7-1.76H60.12l1-5.14a1,1,0,0,0-.78-1.14.65.65,0,0,0-.19,0m0,1-1.24,6.3h4.62c2.91,0,4.92.51,6,1.51s1.43,2.62,1,4.87l-2.17,11H63.11l2.07-10.49c.23-1.19.15-2-.26-2.44a3.67,3.67,0,0,0-2.61-.65H58.16L55.49,38.93h-5.2L55,15.22h5.2" transform="translate(-27.02 -14.25)"/><path class="cls-5" d="M79.26,34.7a7.32,7.32,0,0,0,4.42-1.08A5.8,5.8,0,0,0,85.59,30c.31-1.6.19-2.71-.36-3.31s-1.77-.93-3.61-.93H78.44l-1.76,9Zm-10.39,11a.49.49,0,0,1-.38-.18.46.46,0,0,1-.11-.4l4.67-23.71a.49.49,0,0,1,.49-.39H83.6c3.17,0,5.52.84,7,2.52s2,4,1.37,7a11.06,11.06,0,0,1-1.21,3.32,11.32,11.32,0,0,1-2.23,2.75,9.71,9.71,0,0,1-3.67,2.17,16.9,16.9,0,0,1-5,.63H75.75l-1.16,5.91a.5.5,0,0,1-.49.4Z" transform="translate(-27.02 -14.25)"/><path class="cls-4" d="M78.85,26.24h2.77c2.22,0,3,.48,3.25.77.43.47.51,1.47.23,2.89a5.34,5.34,0,0,1-1.72,3.34,7,7,0,0,1-4.11,1h-2l1.57-8Zm4.75-5.69H73.54a1,1,0,0,0-1,.79L67.9,45a1,1,0,0,0,.78,1.15H74.1a1,1,0,0,0,1-.78l1.09-5.52h3.67A17.34,17.34,0,0,0,85,39.24,10.38,10.38,0,0,0,88.87,37a11.36,11.36,0,0,0,3.59-6.34c.61-3.11.11-5.6-1.48-7.39s-4.06-2.69-7.38-2.69M76.08,35.19h3.19A7.77,7.77,0,0,0,84,34a6.21,6.21,0,0,0,2.09-3.93c.35-1.76.19-3-.47-3.73s-2-1.08-4-1.08H78l-2,9.92m7.53-13.66q4.53,0,6.62,2.35t1.25,6.56a10.4,10.4,0,0,1-1.15,3.18,11,11,0,0,1-2.13,2.63,9.38,9.38,0,0,1-3.49,2.06,16.24,16.24,0,0,1-4.88.62H75.34l-1.24,6.3H68.87l4.67-23.7H83.61" transform="translate(-27.02 -14.25)"/></g></svg>