<svg width="98" height="87" viewBox="0 0 98 87" fill="none" xmlns="http://www.w3.org/2000/svg">
<g clip-path="url(#clip0)">
<path d="M98 43.5096C98 37.0379 89.8706 30.9047 77.4053 27.1012C80.2818 14.4367 79.0035 4.36056 73.37 1.13499C72.0715 0.378024 70.556 0.0195769 68.8957 0.0195769V4.4603C69.8145 4.4603 70.5537 4.63841 71.1737 4.97816C73.8904 6.53127 75.0692 12.4454 74.1499 20.052C73.9306 21.9222 73.5692 23.8952 73.1315 25.9065C69.216 24.951 64.9413 24.2145 60.446 23.7362C57.7494 20.052 54.9519 16.7067 52.1379 13.7795C58.6481 7.7442 64.7608 4.44026 68.9158 4.44026V-1.52588e-05C63.4217 -1.52588e-05 56.2303 3.90282 48.9602 10.6732C41.6889 3.94245 34.4979 0.0792436 29.0047 0.0792436V4.51997C33.1395 4.51997 39.2719 7.80565 45.784 13.7995C42.809 16.9196 40.0525 20.2396 37.5339 23.7362C33.0194 24.214 28.7447 24.9509 24.8296 25.9265C24.37 23.9353 24.0305 22.0037 23.7907 20.1518C22.8527 12.5452 24.0104 6.63101 26.7075 5.05697C27.3064 4.69852 28.0854 4.53911 29.0047 4.53911V0.0992815C27.3265 0.0992815 25.8083 0.457728 24.4902 1.21247C18.8768 4.43848 17.6186 14.4946 20.5148 27.1194C8.09014 30.943 0 37.058 0 43.5096C0 49.9816 8.12944 56.1148 20.5947 59.9179C17.7182 72.5829 18.9965 82.6585 24.63 85.8846C25.9285 86.6415 27.4463 86.9977 29.1244 86.9977C34.6185 86.9977 41.8099 83.0949 49.08 76.3245C56.3509 83.0553 63.5423 86.9185 69.0355 86.9185C70.7137 86.9185 72.2314 86.5623 73.55 85.8053C79.1629 82.5793 80.4216 72.5232 77.5254 59.8988C89.9103 56.0952 98.0004 49.962 98.0004 43.51L98 43.5096ZM71.992 30.2279C71.2528 32.7967 70.334 35.4447 69.295 38.0932C68.4763 36.5005 67.6173 34.9073 66.6784 33.3141C65.7596 31.7214 64.7805 30.1678 63.8018 28.6547C66.6382 29.0729 69.375 29.5898 71.992 30.2279ZM62.8428 51.435C61.2848 54.1236 59.6871 56.6723 58.029 59.0421C55.0524 59.3008 52.0374 59.4406 49 59.4406C45.9836 59.4406 42.9672 59.3012 40.0112 59.0621C38.3531 56.6926 36.7417 54.1703 35.1768 51.4951C33.6581 48.8867 32.2806 46.2382 31.0228 43.5692C32.2614 40.9007 33.6581 38.2322 35.1581 35.6237C36.7165 32.9361 38.3129 30.3869 39.971 28.0176C42.9476 27.7584 45.9635 27.619 49 27.619C52.0164 27.619 55.0328 27.7584 57.9888 27.9975C59.6469 30.3673 61.2583 32.8896 62.8232 35.5645C64.3419 38.1729 65.7194 40.8214 66.9772 43.4904C65.7185 46.1585 64.3419 48.827 62.8419 51.4354L62.8428 51.435ZM69.295 48.8466C70.3737 51.5147 71.2925 54.1832 72.0519 56.7725C69.4348 57.4097 66.6784 57.9476 63.8219 58.3657C64.8006 56.8326 65.7793 55.2595 66.6985 53.6458C67.6173 52.053 68.4763 50.4398 69.295 48.8471V48.8466ZM49.0398 70.0938C47.0804 68.0659 45.227 65.939 43.4867 63.7215C45.2846 63.8012 47.1222 63.8608 48.9808 63.8608C50.8568 63.8608 52.7163 63.8212 54.5343 63.7215C52.8193 65.9427 50.9851 68.0699 49.0398 70.0938ZM34.1781 58.3648C31.3417 57.9467 28.6049 57.4297 25.9883 56.7916C26.7271 54.2229 27.6464 51.5744 28.6849 48.9259C29.5041 50.5191 30.363 52.1123 31.3015 53.705C32.2399 55.2978 33.1994 56.8513 34.1781 58.3648ZM48.9401 16.9258C50.9 18.9534 52.7537 21.0803 54.4941 23.2981C52.6962 23.2184 50.8586 23.1587 49 23.1587C47.124 23.1587 45.2645 23.1983 43.447 23.2981C45.1613 21.0767 46.995 18.9494 48.9401 16.9258ZM34.158 28.6547C33.1793 30.1878 32.2006 31.761 31.2818 33.3747C30.363 34.9678 29.5041 36.561 28.6849 38.1538C27.6062 35.4857 26.6874 32.8172 25.9285 30.2279C28.5451 29.6103 31.3015 29.0729 34.158 28.6547ZM16.0802 53.5857C9.00894 50.5796 4.43457 46.6363 4.43457 43.5096C4.43457 40.3828 9.00894 36.4199 16.0802 33.4339C17.7981 32.6969 19.6759 32.0397 21.6136 31.4226C22.7522 35.3254 24.249 39.3876 26.108 43.5496C24.2704 47.6907 22.7919 51.7338 21.6735 55.6166C19.696 54.999 17.8182 54.3222 16.0802 53.5852V53.5857ZM26.8272 82.0414C24.1105 80.4883 22.9317 74.5741 23.851 66.9671C24.0703 65.0969 24.4317 63.1239 24.8694 61.113C28.7849 62.0686 33.0596 62.8051 37.5549 63.2833C40.2515 66.9671 43.049 70.3124 45.863 73.2396C39.3519 79.2736 33.2392 82.5788 29.0842 82.5788C28.1855 82.5592 27.4266 82.3798 26.8272 82.0414ZM74.2093 66.8678C75.1473 74.4744 73.9895 80.3885 71.2925 81.9626C70.6936 82.3188 69.9146 82.4804 68.9953 82.4804C64.8605 82.4804 58.7281 79.1948 52.216 73.2009C55.191 70.0808 57.9475 66.7608 60.4661 63.2642C64.9806 62.7864 69.2553 62.0495 73.1704 61.0739C73.63 63.0843 73.9896 65.0159 74.2093 66.8678ZM81.8997 53.5857C80.1818 54.3226 78.304 54.9798 76.3663 55.597C75.2277 51.6941 73.7309 47.6319 71.8719 43.4699C73.7099 39.3289 75.188 35.2858 76.3064 31.403C78.2843 32.0201 80.1617 32.6974 81.9198 33.4343C88.9911 36.4408 93.5654 40.3837 93.5654 43.51C93.5453 46.6367 88.971 50.5992 81.8997 53.5861V53.5857Z" fill="white"/>
<path d="M48.9797 52.6101C54.0214 52.6101 58.1084 48.5359 58.1084 43.51C58.1084 38.4842 54.0214 34.4099 48.9797 34.4099C43.9381 34.4099 39.8511 38.4842 39.8511 43.51C39.8511 48.5359 43.9381 52.6101 48.9797 52.6101Z" fill="white"/>
</g>
<defs>
<clipPath id="clip0">
<rect width="98" height="87" fill="white"/>
</clipPath>
</defs>
</svg>
