<svg id="Layer_1" data-name="Layer 1" xmlns="http://www.w3.org/2000/svg" viewBox="0 0 2194 1953.85"><defs><style>.cls-1{fill:#edf1f2;}</style></defs><title>reactjs</title><path class="cls-1" d="M2194,1250.22c0-145.34-182-283.08-461.07-368.5,64.4-284.42,35.78-510.71-90.34-583.15-29.07-17-63-25.05-100.17-25.05v99.73c20.57,0,37.12,4,51,11.63,60.82,34.88,87.21,167.7,66.63,338.53-4.91,42-13,86.31-22.8,131.48-87.66-21.46-183.36-38-284-48.74-60.37-82.74-123-157.87-186-223.61C1313,447,1449.85,372.8,1542.87,372.8V273.08c-123,0-284,87.65-446.76,239.7C933.32,361.62,772.33,274.86,649.35,274.86v99.73c92.57,0,229.86,73.79,375.65,208.4A2111.73,2111.73,0,0,0,840.3,806.15c-101.07,10.73-196.77,27.28-284.42,49.19-10.29-44.72-17.89-88.1-23.26-129.69-21-170.83,4.92-303.65,65.3-339,13.41-8.05,30.85-11.63,51.43-11.63V275.31c-37.57,0-71.56,8.05-101.07,25-125.67,72.45-153.84,298.29-89,581.82C181.12,968,0,1105.33,0,1250.22c0,145.35,182,283.09,461.07,368.5-64.4,284.43-35.78,510.71,90.34,583.16,29.07,17,63.05,25,100.62,25,123,0,284-87.65,446.76-239.7,162.78,151.16,323.78,237.92,446.76,237.92,37.57,0,71.55-8,101.07-25,125.66-72.45,153.84-298.29,89-581.81,277.27-85.42,458.39-223.16,458.39-368.06ZM1611.74,951.94c-16.55,57.69-37.12,117.16-60.38,176.64-18.33-35.77-37.56-71.55-58.58-107.33-20.57-35.77-42.49-70.66-64.4-104.64,63.5,9.39,124.77,21,183.36,35.33Zm-204.83,476.27c-34.88,60.38-70.65,117.62-107.77,170.84C1232.5,1604.86,1165,1608,1097,1608c-67.53,0-135.06-3.13-201.24-8.5q-55.68-79.82-108.23-169.94c-34-58.58-64.84-118.06-93-178,27.73-59.93,59-119.86,92.58-178.44C822,1012.76,857.74,955.51,894.86,902.3c66.64-5.82,134.16-8.95,202.14-8.95,67.53,0,135.06,3.13,201.24,8.5q55.68,79.83,108.23,169.94c34,58.58,64.84,118.06,93,178-28.18,59.92-59,119.85-92.58,178.43Zm144.45-58.13c24.15,59.92,44.72,119.85,61.72,178-58.59,14.31-120.3,26.39-184.25,35.78,21.91-34.43,43.82-69.76,64.4-106,20.57-35.77,39.8-72,58.13-107.77Zm-453.47,477.17a1845.26,1845.26,0,0,1-124.32-143.11c40.25,1.79,81.39,3.13,123,3.13,42,0,83.63-.89,124.33-3.13A1746.5,1746.5,0,0,1,1097.89,1847.25ZM765.17,1583.84c-63.5-9.39-124.77-21-183.35-35.33,16.54-57.69,37.12-117.17,60.37-176.65,18.34,35.78,37.57,71.56,58.58,107.33S743.26,1549.85,765.17,1583.84ZM1095.66,653.2A1841.54,1841.54,0,0,1,1220,796.31c-40.25-1.79-81.39-3.13-123-3.13-42,0-83.63.89-124.32,3.13A1743.1,1743.1,0,0,1,1095.66,653.2ZM764.72,916.61c-21.91,34.43-43.82,69.76-64.39,106-20.57,35.78-39.8,71.56-58.14,107.33-24.15-59.92-44.72-119.85-61.71-178,58.58-13.87,120.29-25.94,184.24-35.33ZM360,1476.51C201.69,1409,99.28,1320.44,99.28,1250.22S201.69,1091,360,1023.94c38.46-16.55,80.5-31.31,123.88-45.17,25.49,87.65,59,178.88,100.62,272.35-41.14,93-74.24,183.8-99.28,271-44.27-13.87-86.31-29.07-125.22-45.62Zm240.6,639.06c-60.82-34.88-87.21-167.7-66.63-338.54,4.91-42,13-86.31,22.8-131.47,87.66,21.46,183.36,38,284,48.74,60.37,82.73,123,157.86,186,223.6C881,2053.41,744.15,2127.64,651.13,2127.64c-20.12-.44-37.11-4.47-50.53-12.07ZM1661.38,1774.8c21,170.83-4.92,303.65-65.3,339-13.41,8-30.85,11.63-51.43,11.63-92.57,0-229.86-73.79-375.65-208.4a2111.73,2111.73,0,0,0,184.7-223.16c101.07-10.73,196.77-27.28,284.42-49.19C1648.41,1689.83,1656.46,1733.21,1661.38,1774.8Zm172.17-298.29c-38.46,16.55-80.5,31.31-123.88,45.17-25.49-87.65-59-178.88-100.62-272.35,41.15-93,74.24-183.8,99.28-271,44.28,13.86,86.31,29.07,125.67,45.62,158.31,67.52,260.72,156.07,260.72,226.28-.45,70.22-102.86,159.21-261.17,226.29Z" transform="translate(0 -273.08)"/><circle class="cls-1" cx="1096.55" cy="977.15" r="204.37"/></svg>