<svg id="Layer_1" data-name="Layer 1" xmlns="http://www.w3.org/2000/svg" viewBox="0 0 246.84 90.46"><defs><style>.cls-1{fill:#eaecef;}</style></defs><title>redis</title><path class="cls-1" d="M150.06,58a6.89,6.89,0,0,1-6.85,6.85,12.33,12.33,0,0,0-7.75,2.45,19.51,19.51,0,0,0-6,6.21,39.74,39.74,0,0,0-5.3,10.85V109a7,7,0,0,1-7.1,6.85,6.9,6.9,0,0,1-6.85-6.85V58a6.78,6.78,0,0,1,6.85-6.72,6.93,6.93,0,0,1,7.1,6.72v.9a17.34,17.34,0,0,1,2.72-2.58,28.34,28.34,0,0,1,16.28-5A6.7,6.7,0,0,1,150.06,58Z" transform="translate(-110.26 -25.35)"/><path class="cls-1" d="M146.27,83.5c.13-17.58,13.83-32.31,31.53-32.31,16.8,0,30.11,12.54,31.15,30v.65a3.54,3.54,0,0,1-.13,1.16c-.39,3.1-3.1,5.17-6.72,5.17H161a16.94,16.94,0,0,0,4.4,8.53c2.71,3.1,7.88,5.43,12.4,5.82s10.21-.78,13.44-3.23c2.71-2.85,8-2.46,9.69-.39,1.68,1.81,3,5.68,0,8.4-6.33,5.81-14,8.53-23.13,8.53-17.7-.13-31.4-14.73-31.53-32.31Zm14.09-6.33h36.57C195.64,72,189,64.37,177.8,63.47,166.82,64,161.39,71.87,160.36,77.17Z" transform="translate(-110.26 -25.35)"/><path class="cls-1" d="M274.78,108.83A7,7,0,0,1,261,110.25a31.52,31.52,0,0,1-17.57,5.56c-17.45,0-31.4-14.73-31.4-32.18,0-17.7,14-32.44,31.4-32.44a30.57,30.57,0,0,1,17.31,5.43V32.33a7,7,0,0,1,14.09,0v76.5Zm-31.4-43.55a16.74,16.74,0,0,0-12.15,5.3,18.73,18.73,0,0,0,0,25.84,16.74,16.74,0,0,0,12.15,5.3,16.53,16.53,0,0,0,12.15-5.3,18.73,18.73,0,0,0,0-25.84A16.53,16.53,0,0,0,243.38,65.28Z" transform="translate(-110.26 -25.35)"/><path class="cls-1" d="M299.37,35a7,7,0,0,1-7,7.11,7.07,7.07,0,0,1-7-7.11V32.33a7,7,0,0,1,7-7,6.87,6.87,0,0,1,7,7V35Zm0,23.39v50.4a6.87,6.87,0,0,1-7,7,7,7,0,0,1-7-7V58.43a6.9,6.9,0,0,1,7-7.11A6.82,6.82,0,0,1,299.37,58.43Z" transform="translate(-110.26 -25.35)"/><path class="cls-1" d="M308.25,97.32a6.72,6.72,0,0,1,9.69-1c3.36,2.84,9.18,5.81,14.22,5.68A17.28,17.28,0,0,0,341,99.52c1.81-1.55,2.32-2.84,2.32-3.88a1.93,1.93,0,0,0-.39-1.29c-.13-.39-.64-.91-1.68-1.55-1.81-1.29-5.68-2.72-10.33-3.62h-.13a49.37,49.37,0,0,1-11.25-3.36,21.59,21.59,0,0,1-8.91-7.49,15.7,15.7,0,0,1-2.2-8.15c0-5.94,3.36-11,7.62-14.21a27.85,27.85,0,0,1,15.9-4.78c8.92,0,15.25,4.26,19.38,7.1a7.14,7.14,0,0,1,2.07,9.57,6.84,6.84,0,0,1-9.56,1.81C339.65,67,336,64.88,331.9,64.88a13.17,13.17,0,0,0-7.75,2.33c-1.68,1.16-2.07,2.33-2.07,3a1.4,1.4,0,0,0,.26,1,3.52,3.52,0,0,0,1.42,1.29c1.68,1.16,5,2.32,9.43,3.1l.13.13h.13a46.26,46.26,0,0,1,12,3.75,20.08,20.08,0,0,1,9.18,7.62,16.76,16.76,0,0,1,2.45,8.53,18.65,18.65,0,0,1-8.14,15,29.41,29.41,0,0,1-16.8,5.17c-10.08-.13-17.83-4.78-23-8.92a6.89,6.89,0,0,1-.91-9.56Z" transform="translate(-110.26 -25.35)"/></svg>