<svg width="132" height="165" viewBox="0 0 132 165" fill="none" xmlns="http://www.w3.org/2000/svg">
<g clip-path="url(#clip0)">
<path d="M46.9773 150.211C43.9417 154.04 40.1981 157.253 35.9492 159.677C33.55 161.046 31.0201 162.174 28.397 163.044C27.6996 163.277 26.983 163.498 26.2251 163.695C25.4672 163.892 24.7316 164.095 23.9259 164.258C22.2228 164.642 20.4919 164.89 18.7494 165C18.1969 163.348 17.7774 161.654 17.4947 159.936C17.3434 159.131 17.2447 158.362 17.1555 157.598C17.0663 156.834 16.9963 156.08 16.9437 155.346C16.7663 152.596 16.8634 149.834 17.2335 147.103C17.8912 142.265 19.471 137.598 21.8878 133.353C24.2118 129.174 27.4734 125.587 31.4175 122.872C32.3872 122.219 33.3895 121.615 34.4206 121.063L36.9905 122.79C34.5981 123.6 32.2726 124.596 30.0354 125.767C30.7902 125.431 35.5065 123.411 30.8841 127.46C26.4258 131.367 24.4879 139.143 24.1185 140.8C25.0293 137.93 34.2916 131.748 29.7472 138.346C25.0882 145.126 25.0166 158.541 25.0214 158.861C25.1599 158.578 29.6533 149.194 33.9381 149.34C38.2229 149.486 32.3618 154.641 32.1691 154.814C32.4446 154.673 43.452 148.938 44.9073 141.656C46.1398 135.481 49.4406 139.485 48.6396 143.261C49.6794 140.868 51.1968 136.814 51.4739 132.961C51.4835 132.817 51.4898 132.672 51.493 132.529L53.6872 134.014C53.5615 135.174 53.376 136.327 53.1315 137.468C52.0924 142.132 49.9861 146.493 46.9773 150.211Z" fill="url(#paint0_linear)"/>
<path d="M39.092 124.205C38.0567 124.512 37.0415 124.883 36.0523 125.316C36.3708 125.197 39.3054 124.165 36.659 126.29C34.1766 128.289 33.355 132.561 33.2037 133.474C33.6273 131.907 38.8691 128.834 36.4504 132.343C33.9664 135.94 34.503 143.452 34.5158 143.631C34.5874 143.472 36.858 138.414 39.4152 138.68C41.9724 138.945 38.7035 141.579 38.6 141.67C38.7592 141.6 45.0614 138.861 45.6172 134.841C46.0869 131.44 48.2205 133.82 47.9084 135.904C48.3702 134.748 48.996 132.867 49.1297 130.951L39.092 124.205Z" fill="url(#paint1_linear)"/>
<path d="M33.9537 118.064C33.9222 118.336 33.9617 118.611 34.0686 118.864C34.1755 119.116 34.346 119.337 34.5636 119.504L54.3508 132.99C54.5863 133.131 54.8545 133.21 55.1294 133.217C55.4042 133.225 55.6763 133.161 55.9192 133.033L64.8885 127.646L35.7259 107.773L33.9537 118.064Z" fill="url(#paint2_linear)"/>
<path d="M34.7211 104.819C34.7052 105.148 34.6925 105.48 34.6845 105.812L2.29435 99.7677L1.80711 99.6772C-0.235781 99.296 -0.602003 97.8969 0.993462 96.5662L33.6877 69.3422C35.28 68.0114 38.264 66.6155 40.3068 66.2376L46.4212 65.1085C39.2848 77.1751 35.2645 90.8204 34.7211 104.819Z" fill="url(#paint3_linear)"/>
<path d="M84.2473 156.201L83.9893 155.783L66.729 127.782C67.0363 127.652 67.342 127.525 67.635 127.397C80.55 121.877 91.8879 113.244 100.63 102.274L101.764 108.373C102.143 110.412 101.901 113.689 101.229 115.65L87.4509 155.845C86.7774 157.808 85.3364 157.968 84.2473 156.201Z" fill="url(#paint4_linear)"/>
<path d="M111.31 83.2774L111.681 82.6088L111.999 82.0196C118.283 70.6603 123.395 58.4974 126.967 45.2769C127.51 43.2654 128.016 41.2231 128.484 39.1502C122.624 38.0222 117.015 35.8534 111.925 32.7472C111.117 32.256 110.321 31.7419 109.536 31.2052C103.884 27.3506 99.0849 22.3808 95.4349 16.6031C93.6898 17.7613 91.985 18.946 90.3205 20.1571C89.8794 20.4747 89.4432 20.8003 89.0021 21.1274C88.7298 21.3259 88.456 21.5308 88.1837 21.7372C87.8652 21.9786 87.5468 22.2216 87.2283 22.4661C86.9465 22.6805 86.6694 22.8949 86.3876 23.1141C85.9927 23.419 85.5999 23.7265 85.2093 24.0367C84.8765 24.2988 84.5437 24.564 84.2125 24.8308C83.9116 25.0721 83.6138 25.3151 83.3145 25.5565C82.9419 25.863 82.5725 26.1663 82.1999 26.4728C81.9372 26.6872 81.6824 26.9016 81.426 27.1191C81.3528 27.1779 81.2795 27.2382 81.2079 27.3018C80.907 27.5558 80.6076 27.8099 80.3083 28.0672C80.0535 28.2848 79.7971 28.5039 79.5456 28.7231L78.8672 29.3122C78.6491 29.5044 78.4278 29.6997 78.2112 29.8935C77.9618 30.1126 77.715 30.3328 77.4708 30.5541L76.5807 31.3592C76.5553 31.383 76.5266 31.4053 76.5043 31.4307C76.2543 31.6562 76.0059 31.8849 75.7575 32.1136L75.5282 32.3264C75.2528 32.5836 74.9805 32.8345 74.7082 33.0918C74.4057 33.3776 74.1047 33.6603 73.8038 33.9478C73.5029 34.2352 73.2035 34.5226 72.9057 34.8117C72.608 35.1007 72.3134 35.3881 72.0173 35.6787C71.6861 36.009 71.3549 36.3436 71.0237 36.6824C70.7737 36.9301 70.5269 37.1778 70.2801 37.4272C69.9903 37.7225 69.7021 38.0163 69.4155 38.3117C69.1289 38.6071 68.8677 38.8771 68.597 39.1613C68.5509 39.2058 68.5063 39.2518 68.4633 39.2979C68.2117 39.5599 67.9649 39.8235 67.7181 40.0919C67.1958 40.6414 66.6815 41.1908 66.172 41.7467C65.8981 42.042 65.6258 42.3406 65.3583 42.6391C65.1545 42.8599 64.9523 43.0854 64.7517 43.3109C64.0797 44.0583 63.4168 44.8095 62.7629 45.5643C62.2295 46.1821 61.6961 46.803 61.1706 47.4271C60.9063 47.7368 60.6484 48.0465 60.3888 48.3593C58.2393 50.9457 56.1693 53.5861 54.1789 56.2805C52.1886 58.9802 50.238 61.7037 48.4897 64.5638C44.9011 70.3744 42.0473 76.6056 39.9933 83.1154C37.7736 90.1746 36.4988 97.4953 36.2021 104.888C36.1846 105.285 36.1719 105.682 36.1607 106.087L57.8587 120.963L65.9475 126.51C66.3153 126.352 66.6895 126.202 67.0541 126.044C73.8672 123.118 80.2638 119.31 86.0787 114.718C91.4388 110.477 96.2522 105.591 100.409 100.171C102.463 97.5158 104.317 94.724 106.127 91.9036C107.937 89.0833 109.657 86.1978 111.31 83.2774ZM108.974 56.2551C107.447 58.4703 105.297 60.1843 102.793 61.1802C100.29 62.1762 97.5467 62.4095 94.9105 61.8506C92.2743 61.2916 89.8634 59.9655 87.9829 58.0401C86.1023 56.1146 84.8365 53.6762 84.3454 51.0332C83.8544 48.3902 84.1602 45.6613 85.2242 43.1917C86.2882 40.7221 88.0626 38.6226 90.3231 37.1587C92.5835 35.6949 95.2284 34.9324 97.9233 34.9677C100.618 35.0031 103.242 35.8347 105.463 37.3573C108.441 39.399 110.484 42.537 111.143 46.081C111.801 49.625 111.021 53.2847 108.974 56.2551ZM128.771 37.9211C128.899 37.3388 129.024 36.7533 129.143 36.1647C129.969 32.1416 130.632 28.0063 131.132 23.7588C131.268 22.5837 131.392 21.3974 131.495 20.2032C131.708 17.8137 131.855 15.3787 131.938 12.8981C131.937 12.8913 131.937 12.8844 131.938 12.8775C131.947 12.6314 131.952 12.3916 131.96 12.1438C132.069 8.52367 131.963 4.90025 131.642 1.29268C131.622 1.08588 131.558 0.88583 131.453 0.706463C131.347 0.527097 131.204 0.372723 131.034 0.254091C131.015 0.243619 130.997 0.234078 130.978 0.225506C130.81 0.121261 130.623 0.0532615 130.427 0.0259058C130.231 -0.00144984 130.032 0.0124482 129.842 0.0667012C126.351 1.06221 122.922 2.2633 119.574 3.66364C118.883 3.94843 118.199 4.23692 117.523 4.52912C117.523 4.52912 117.523 4.52912 117.512 4.52912C115.32 5.48195 113.189 6.47448 111.12 7.50672C110.407 7.86403 109.697 8.22451 108.998 8.59135C105.141 10.6018 101.471 12.7314 97.9571 14.9753C97.4677 15.2855 96.9826 15.5989 96.5017 15.9154C100.062 21.5573 104.745 26.4101 110.262 30.173C115.827 34.0066 122.13 36.6451 128.771 37.9211Z" fill="url(#paint5_linear)"/>
<path d="M107.665 49.4376C107.804 47.8014 107.54 46.1562 106.896 44.6449C105.811 42.3033 103.855 40.4745 101.442 39.5451C99.0295 38.6157 96.3489 38.6586 93.9672 39.6647C91.5856 40.6707 89.6895 42.5611 88.6801 44.9362C87.6706 47.3112 87.6268 49.9847 88.558 52.3914C88.6408 52.5883 88.7299 52.7852 88.827 52.9774C89.3487 54.0326 90.0563 54.9858 90.9161 55.7914C91.2863 56.1397 91.6835 56.4583 92.104 56.7442C93.5381 57.7281 95.2057 58.3202 96.9406 58.4615C98.6755 58.6027 100.417 58.2882 101.992 57.5493C103.568 56.8104 104.921 55.6729 105.918 54.25C106.916 52.827 107.522 51.1684 107.676 49.4392L107.665 49.4376Z" fill="url(#paint6_linear)"/>
</g>
<defs>
<linearGradient id="paint0_linear" x1="35.2724" y1="121.063" x2="35.2724" y2="165" gradientUnits="userSpaceOnUse">
<stop stop-color="#7758E0"/>
<stop offset="1" stop-color="#333333" stop-opacity="0.33"/>
</linearGradient>
<linearGradient id="paint1_linear" x1="41.1667" y1="124.205" x2="41.1667" y2="143.631" gradientUnits="userSpaceOnUse">
<stop stop-color="#7758E0"/>
<stop offset="1" stop-color="#333333" stop-opacity="0.33"/>
</linearGradient>
<linearGradient id="paint2_linear" x1="49.4159" y1="107.773" x2="49.4159" y2="133.218" gradientUnits="userSpaceOnUse">
<stop stop-color="#7758E0"/>
<stop offset="1" stop-color="#333333" stop-opacity="0.33"/>
</linearGradient>
<linearGradient id="paint3_linear" x1="23.2107" y1="65.1085" x2="23.2107" y2="105.812" gradientUnits="userSpaceOnUse">
<stop stop-color="#7758E0"/>
<stop offset="1" stop-color="#333333" stop-opacity="0.33"/>
</linearGradient>
<linearGradient id="paint4_linear" x1="84.3361" y1="102.274" x2="84.3361" y2="157.428" gradientUnits="userSpaceOnUse">
<stop stop-color="#7758E0"/>
<stop offset="1" stop-color="#333333" stop-opacity="0.33"/>
</linearGradient>
<linearGradient id="paint5_linear" x1="84.0812" y1="0.0122681" x2="84.0812" y2="126.51" gradientUnits="userSpaceOnUse">
<stop stop-color="#7758E0"/>
<stop offset="1" stop-color="#333333" stop-opacity="0.33"/>
</linearGradient>
<linearGradient id="paint6_linear" x1="97.7956" y1="38.8778" x2="97.7956" y2="58.4944" gradientUnits="userSpaceOnUse">
<stop stop-color="#7758E0"/>
<stop offset="1" stop-color="#333333" stop-opacity="0.33"/>
</linearGradient>
<clipPath id="clip0">
<rect width="132" height="165" fill="white"/>
</clipPath>
</defs>
</svg>
