<svg width="120" height="111" viewBox="0 0 120 111" fill="none" xmlns="http://www.w3.org/2000/svg">
<g clip-path="url(#clip0)">
<path d="M47.4353 42.4823C46.3075 42.6099 28.4599 42.8473 13.8774 60.2584C13.8774 60.2584 26.9933 54.7169 39.058 61.6603C39.0934 61.3621 39.1524 61.0416 39.2103 60.716C40.0536 55.9036 42.2213 49.4861 47.4353 42.4823Z" fill="#DB3A2C"/>
<path d="M69.9239 70.0301C69.5731 71.1095 65.7679 88.5483 45.7902 99.3504C45.7902 99.3504 53.845 87.6093 49.4571 74.3988C49.7564 74.4239 50.0823 74.4302 50.4129 74.4387C55.2967 74.5758 62.0181 73.7366 69.9239 70.0301Z" fill="#DB3A2C"/>
<path d="M40.4998 85.4311C43.4749 83.0024 44.1896 78.7229 44.3618 76.7418C43.9734 78.66 43.1659 81.034 41.4733 82.4158C40.3491 83.3335 38.3715 84.8581 33.7872 85.5688C37.8367 82.6461 38.706 78.7102 38.706 78.7102C38.706 78.7102 36.8815 78.9756 35.5411 79.7975C33.8183 80.8448 33.6939 81.3055 32.5553 82.235C30.8258 83.6229 27.0704 84.6954 23.8135 84.1609C25.9449 82.4209 26.4873 79.6707 28.4207 77.0748C30.4006 74.4111 31.9074 74.3182 33.0299 73.0128C33.6557 72.2924 34.0323 70.6682 34.0323 70.6682C34.0323 70.6682 32.3739 72.022 30.465 71.7398C28.3145 71.6758 27.1842 72.7182 27.1859 72.7019C27.2754 71.1923 28.681 69.1469 30.1002 67.9884C31.5193 66.8299 33.2921 66.2146 34.7989 65.9124C32.9643 66.0333 29.9075 66.5775 27.3012 68.7051C25.1427 70.4672 24.2785 72.669 23.5018 73.9646C22.8419 75.0509 22.1027 75.3791 22.1027 75.3791C22.1027 75.3791 25.246 77.3202 29.0492 75.2928C28.9533 75.9098 26.2433 75.689 22.0064 80.9853C17.7921 86.2543 17.364 91.6047 17.364 91.6047C19.8861 89.1866 25.1926 90.8402 28.462 87.9019C32.3486 84.4088 31.5234 84.4151 33.4664 83.3437C28.8892 87.1401 29.8133 91.6501 29.8133 91.6501C29.8133 91.6501 31.476 89.5745 33.5204 88.6238C35.4591 87.7235 38.5033 87.061 40.4998 85.4311Z" fill="#DB3A2C"/>
<path d="M99.2614 35.8781C102.651 27.0358 102.711 20.2767 102.711 20.2767C102.711 20.2767 96.0804 18.9799 86.735 20.5337C86.9014 24.0978 88.2084 27.5126 90.4635 30.2751C92.7186 33.0376 95.8027 35.0017 99.2614 35.8781Z" fill="#DB3A2C"/>
<path d="M46.5385 66.1421C44.9838 64.2347 43.0235 62.6976 40.7998 61.6421C40.6036 62.6282 40.4613 63.5554 40.3626 64.4112C43.2843 66.4578 45.5822 69.2727 47.0026 72.545C47.8575 72.6192 48.7912 72.665 49.7943 72.6602C49.2065 70.2722 48.0944 68.0457 46.5385 66.1421Z" fill="#DB3A2C"/>
<path d="M48.1213 64.85C49.9669 67.1058 51.2562 69.7642 51.8853 72.6111C59.3828 72.2157 70.0108 69.3875 82.1538 59.4746C89.2908 53.6901 94.9011 46.2451 98.4924 37.7927C94.7163 36.7745 91.3561 34.5984 88.8842 31.5703C86.4122 28.5422 84.9528 24.8145 84.711 20.911C75.7105 22.739 67.2927 26.7458 60.1956 32.5802C48.0541 42.4949 43.1636 52.3441 41.2693 59.6068C43.9325 60.7947 46.2793 62.5904 48.1213 64.85ZM80.2246 38.6425C81.3573 40.0309 82.0524 41.7245 82.2218 43.5091C82.3912 45.2938 82.0274 47.0894 81.1763 48.6689C80.3253 50.2484 79.0252 51.5409 77.4406 52.383C75.8559 53.225 74.0578 53.5787 72.2735 53.3995C70.4893 53.2202 68.7991 52.516 67.4166 51.3759C66.0341 50.2358 65.0215 48.711 64.5067 46.9943C63.992 45.2776 63.9982 43.446 64.5246 41.7313C65.0511 40.0165 66.074 38.4955 67.4642 37.3606C68.3873 36.6055 69.45 36.0395 70.5915 35.6949C71.7329 35.3503 72.9308 35.2339 74.1166 35.3524C75.3024 35.471 76.4528 35.822 77.5021 36.3856C78.5514 36.9491 79.479 37.714 80.2318 38.6367L80.2246 38.6425Z" fill="#DB3A2C"/>
</g>
<defs>
<clipPath id="clip0">
<rect width="52.4113" height="111.214" fill="white" transform="translate(86.1523) rotate(50.7736)"/>
</clipPath>
</defs>
</svg>
