<svg width="360" height="431" viewBox="0 0 360 431" fill="none" xmlns="http://www.w3.org/2000/svg">
<g clip-path="url(#clip0)">
<path d="M358.639 42.2013C358.577 41.1378 358.29 40.0998 357.795 39.1566C357.301 38.2135 356.611 37.3868 355.771 36.732C354.932 36.0771 353.963 35.6091 352.929 35.3593C351.894 35.1094 350.818 35.0835 349.773 35.2831C347.362 35.7397 344.936 36.1617 342.511 36.5492C327.894 38.9589 313.098 40.1161 298.285 40.0082C285.858 39.9021 273.463 38.724 261.238 36.4869C251.04 34.6047 241.014 31.886 231.261 28.3581C223.339 25.4728 215.64 22.0043 208.229 17.9809C202.608 14.9204 197.193 11.4956 192.018 7.7282C190.131 6.34457 188.251 4.9056 186.448 3.40436C184.644 1.90313 182.993 0.138998 180.588 0.00755367C178.328 -0.0962184 176.317 1.25974 174.659 2.60878C171.708 4.99554 168.737 7.32695 165.627 9.52692C160.089 13.3671 154.301 16.8338 148.303 19.9041C140.548 23.865 132.504 27.2322 124.241 29.9769C114.154 33.3229 103.805 35.822 93.3037 37.4485C80.7578 39.3975 68.0665 40.2517 55.373 40.0013C40.2556 39.7002 25.1905 38.1219 10.3384 35.2831C9.29249 35.0836 8.2161 35.1095 7.18099 35.3593C6.14587 35.609 5.17583 36.0768 4.33554 36.7315C3.49525 37.3861 2.80403 38.2126 2.30795 39.1558C1.81187 40.099 1.52234 41.1372 1.45866 42.2013C-0.939219 81.4202 -7.15159 245.401 50.4252 317.543C111.015 393.394 163.43 423.557 176.815 430.219C177.837 430.722 178.961 430.984 180.101 430.984C181.24 430.984 182.364 430.722 183.387 430.219C196.827 423.654 249.56 393.816 309.728 317.453C366.849 245.013 360.954 81.3925 358.639 42.2013ZM275.453 173.134L168.737 291.683C165.135 295.692 160.17 298.211 154.811 298.749C149.452 299.286 144.086 297.803 139.762 294.589L98.8389 264.218C94.2268 260.796 91.1615 255.68 90.3172 249.996C89.4729 244.311 90.9188 238.524 94.3368 233.906C97.7548 229.289 102.865 226.22 108.543 225.375C114.221 224.53 120.002 225.977 124.614 229.399L149.74 248.078L243.292 144.126C247.135 139.857 252.514 137.29 258.246 136.991C263.979 136.692 269.595 138.685 273.86 142.532C278.125 146.378 280.688 151.763 280.987 157.503C281.286 163.242 279.295 168.864 275.453 173.134Z" fill="#04D361"/>
</g>
<defs>
<clipPath id="clip0">
<rect width="360" height="431" fill="white"/>
</clipPath>
</defs>
</svg>
