<svg id="Layer_1" data-name="Layer 1" xmlns="http://www.w3.org/2000/svg" viewBox="0 0 1744.17 560.84"><defs><style>.cls-1{fill:#f7f5f5;}</style></defs><title>shopify</title><path class="cls-1" d="M204.36,400.15c-20.94-11.38-31.72-20.95-31.72-34.13,0-16.76,15-27.53,38.33-27.53,27.19,0,51.46,11.37,51.46,11.37l19.15-58.67S264,277.42,212.15,277.42C140,277.42,90,318.72,90,376.78c0,32.93,23.33,58.07,54.48,76,25.14,14.35,34.12,24.54,34.12,39.49,0,15.56-12.57,28.14-35.91,28.14-34.78,0-67.63-18-67.63-18L54.75,561.13s30.35,20.35,81.4,20.35c74.22,0,127.5-36.51,127.5-102.35,0-35.29-26.94-60.44-59.29-79ZM500.07,276.84c-36.51,0-65.25,17.36-87.39,43.68l-1.19-.6,31.72-165.8H360.6l-80.21,422H363l27.55-144.25c10.76-54.49,38.9-88,65.23-88,18.56,0,25.75,12.56,25.75,30.52a188.93,188.93,0,0,1-3.59,36.52l-31.11,165.2h82.6l32.32-170.59c3.59-18,6-39.49,6-53.88,0-46.7-24.58-74.82-67.67-74.82Zm254.38,0c-99.37,0-165.19,89.78-165.19,189.73,0,64.05,39.49,115.51,113.72,115.51,97.56,0,163.41-87.37,163.41-189.73,0-59.25-34.73-115.52-111.94-115.52Zm-40.7,241.83c-28.14,0-40.11-23.95-40.11-53.89,0-47.27,24.55-124.49,69.44-124.49,29.33,0,38.89,25.16,38.89,49.68,0,50.88-24.52,128.7-68.22,128.7Zm363.93-241.83c-55.76,0-87.4,49.08-87.4,49.08h-1.19l4.79-44.29h-73c-3.59,29.94-10.19,75.41-16.75,109.53L846.64,693.42h82.61L952,571.32h1.81s16.94,10.76,48.48,10.76c97,0,160.4-99.35,160.4-199.91,0-55.65-24.55-105.33-85-105.33Zm-79,243c-21.44,0-34.13-12-34.13-12l13.77-77.22c9.59-51.46,36.51-85.59,65.25-85.59,25.15,0,32.92,23.34,32.92,45.5,0,53.26-31.72,129.28-77.81,129.28Zm281.93-361.52c-26.33,0-47.28,21-47.28,47.88,0,24.55,15.56,41.31,38.9,41.31h1.19c25.75,0,47.89-17.37,48.49-47.88,0-23.95-16.16-41.32-41.3-41.32ZM1165.07,576.11h82.59l56.28-292.68h-83.21Zm349-293.28h-57.46l3-13.77c4.79-28.14,21.56-53.27,49.09-53.27A86,86,0,0,1,1535,220l16.16-64.65s-14.37-7.17-44.9-7.17c-29.33,0-58.64,8.38-80.8,27.52-28.14,23.95-41.31,58.65-47.88,93.38l-2.38,13.77h-38.32l-12,62.25h38.32L1319.5,576.13h82.61l43.69-231h56.86Zm198.72.61s-51.64,130.09-74.83,201.1h-1.2c-1.57-22.87-20.35-201.11-20.35-201.11h-86.8l49.7,268.73c1.21,6,.61,9.6-1.79,13.77-9.6,18.56-25.75,36.53-44.91,49.7C1517,627,1499.66,634.18,1485.9,639l22.74,70c16.76-3.59,51.47-17.37,80.8-44.89,37.72-35.32,72.42-89.79,108.33-164l101.16-216.69h-86.18Z" transform="translate(-54.75 -148.16)"/></svg>