<svg id="Layer_1" data-name="Layer 1" xmlns="http://www.w3.org/2000/svg" viewBox="0 0 499.8 499.82"><defs><style>.cls-1{fill:#fff;}</style></defs><title>swift</title><path class="cls-1" d="M553.49,165.49q0-7.55-.22-15.08a220.26,220.26,0,0,0-2.89-32.82,111,111,0,0,0-10.29-31.22,105,105,0,0,0-45.87-45.89A111.22,111.22,0,0,0,463,30.2a218.11,218.11,0,0,0-32.84-2.88c-5-.15-10.06-.21-15.09-.24-6,0-11.93,0-17.91,0H210.06c-6,0-11.94,0-17.91,0-5,0-10.06.1-15.09.24-2.73.07-5.48.17-8.23.3a190.14,190.14,0,0,0-24.61,2.58A114.63,114.63,0,0,0,120.57,37,105,105,0,0,0,67.14,86.36a110.53,110.53,0,0,0-10.28,31.22A217.86,217.86,0,0,0,54,150.4c-.14,5-.2,10.07-.23,15.09,0,6,0,11.94,0,17.91V370.51c0,6,0,11.95,0,17.92,0,5,.1,10.06.23,15.08a218.94,218.94,0,0,0,2.89,32.82,110.39,110.39,0,0,0,10.28,31.23A104.71,104.71,0,0,0,113,513.45a110.51,110.51,0,0,0,31.2,10.28,218,218,0,0,0,32.83,2.89c5,.13,10.06.19,15.09.23,6,0,11.93,0,17.91,0H397.17c6,0,11.93,0,17.9,0,5,0,10.05-.1,15.08-.23A219.08,219.08,0,0,0,463,523.73a110.58,110.58,0,0,0,31.21-10.28,104.84,104.84,0,0,0,45.88-45.89,110.81,110.81,0,0,0,10.29-31.21,217.75,217.75,0,0,0,2.88-32.83c.14-5,.2-10,.23-15.08,0-6,0-11.94,0-17.92V183.4c0-6,0-11.93,0-17.91Z" transform="translate(-53.7 -27.05)"/><path class="cls-1" d="M449.75,335.57l0,0c.55-1.89,1.11-3.75,1.61-5.68,20.74-82.65-29.9-180.37-115.56-231.81,37.54,50.9,54.14,112.54,39.38,166.45a140,140,0,0,1-4.63,13.91q-3.66-2.36-7.5-4.43s-85.23-52.62-177.6-145.7c-2.42-2.44,49.26,73.87,107.91,135.83C265.7,248.61,188.69,192.57,139.94,148a222.32,222.32,0,0,0,20.94,28.87c40.71,51.62,93.81,115.33,157.42,164.25-44.69,27.34-107.84,29.47-170.72,0A258,258,0,0,1,103.88,315,261.73,261.73,0,0,0,221.37,415.77c59.5,25.57,118.66,23.83,162.72.42l0,.05c.2-.13.45-.26.67-.4,1.8-1,3.6-2,5.35-3,21.18-11,63-22.14,85.43,21.53,5.51,10.69,17.19-45.95-25.75-98.79Z" transform="translate(-53.7 -27.05)"/></svg>