<svg width="434" height="556" viewBox="0 0 434 556" fill="none" xmlns="http://www.w3.org/2000/svg">
<g clip-path="url(#clip0)">
<path d="M345.546 358.682C347.619 364.315 349.34 370.072 350.699 375.918C325.886 393.134 277.662 416.249 220.548 437.189C163.434 458.129 111.684 471.665 81.6109 474.572C78.8572 469.237 76.4387 463.736 74.3694 458.101C74.27 457.832 74.1739 457.569 74.0796 457.298C73.1651 454.779 72.3294 452.252 71.5727 449.718C69.8068 443.854 68.4168 437.884 67.4109 431.843C67.3698 431.602 67.3286 431.359 67.2926 431.116C63.235 405.855 66.0091 379.971 75.328 356.139C89.8349 318.917 119.667 287.856 160.175 273.006C200.35 258.282 242.857 262.489 277.874 281.105C292.369 288.803 305.444 298.913 316.535 311C322.577 317.583 327.986 324.717 332.692 332.309C333.081 332.926 333.458 333.546 333.832 334.172C336.981 339.427 339.79 344.877 342.243 350.489C343.168 352.595 344.044 354.733 344.872 356.903C345.102 357.489 345.328 358.084 345.546 358.682Z" fill="#04D361"/>
<path d="M352.486 431.891C350.157 445.859 345.79 459.411 339.526 472.115C323.712 504.188 296.001 530.475 259.738 543.77C223.397 557.094 185.145 554.92 152.251 540.606C139.323 534.973 127.284 527.493 116.514 518.399C152.496 512.102 194.379 500.763 238.039 484.76C281.699 468.756 320.979 450.338 352.486 431.891Z" fill="#04D361"/>
<path d="M238.039 484.762C281.693 468.758 320.97 450.338 352.486 431.891C351.521 437.704 350.198 443.451 348.525 449.1C324.208 464.167 285.802 482.161 241.421 498.431C198.91 514.012 159.554 524.854 131.441 529.451C126.233 526.091 121.247 522.4 116.514 518.401C152.496 512.103 194.379 500.767 238.039 484.762Z" fill="#FF3939"/>
<path d="M344.872 356.898C345.102 357.489 345.325 358.083 345.546 358.682C347.619 364.316 349.34 370.072 350.699 375.918C325.886 393.134 277.662 416.249 220.548 437.189C163.435 458.129 111.685 471.665 81.6113 474.572C78.8577 469.237 76.4392 463.736 74.3699 458.101C74.2704 457.832 74.1744 457.569 74.0801 457.298C102.473 456.243 155.089 443.334 213.319 421.988C273.833 399.798 323.836 374.574 344.872 356.898Z" fill="#FF3939"/>
<path d="M64.9209 409.39L66.1212 399.743C85.6695 402.19 138.224 389.641 193.9 369.231C260.322 344.878 303.887 320.06 312.591 308.133L320.462 313.859C308.944 329.642 259.432 355.562 197.258 378.356C139.385 399.579 86.1908 412.052 64.9209 409.39Z" fill="#FF3939"/>
<path d="M75.688 360.995L74.9609 351.299C97.282 349.635 136.521 339.295 177.389 324.315C220.201 308.62 257.566 290.585 274.901 277.263L280.841 284.968C262.777 298.855 224.425 317.431 180.746 333.443C139.098 348.7 98.8424 359.259 75.688 360.995Z" fill="#FF3939"/>
<path d="M66.9102 435.963L67.6681 426.268C90.1915 428.02 144.502 414.833 202.816 393.455C263.983 371.025 315.865 344.589 328.981 329.157L336.406 335.448C322.086 352.292 269.75 379.271 206.173 402.58C145.729 424.738 91.0729 437.841 66.9102 435.963Z" fill="#FF3939"/>
<path d="M152.245 543.037V540.614L151.271 538.38L151.736 538.178H152.251C171.837 538.197 209.867 528.91 249.119 514.517C288.595 500.044 322.635 483.085 337.958 470.256L341.086 473.982C325.361 487.147 290.766 504.426 250.798 519.08C210.436 533.877 172.673 543.058 152.245 543.037Z" fill="#FF3939"/>
<path d="M210.077 556C175.542 556 141.434 543.953 114.297 521.015L108.709 516.289L115.921 515.026C152.993 508.537 194.811 496.959 236.855 481.546C278.899 466.133 318.284 447.939 350.75 428.934L357.067 425.238L355.866 432.449C347.164 484.816 310.782 528.704 260.918 546.985C244.634 552.952 227.423 556.004 210.077 556ZM124.511 520.423C162.652 549.358 213.335 557.137 258.552 540.558C303.769 523.979 337.371 485.306 347.692 438.601C316.19 456.442 278.863 473.441 239.216 487.975C199.569 502.51 160.095 513.672 124.514 520.423H124.511Z" fill="#371A45"/>
<path d="M429.523 349.66C436.815 369.493 405.71 400.735 352.482 431.891C320.966 450.338 281.689 468.758 238.035 484.761C194.38 500.765 152.492 512.103 116.51 518.401C55.7366 529.04 11.7803 525.318 4.48741 505.484C-2.13672 487.472 22.9005 460.063 67.4038 431.843C68.4097 437.884 69.7997 443.854 71.5656 449.718C59.1987 458.397 52.8986 465.539 54.5722 470.093C56.2784 474.73 66.0389 476.074 81.6038 474.572C111.677 471.662 163.429 458.135 220.541 437.189C277.653 416.242 325.882 393.134 350.691 375.918C363.526 367.015 370.097 359.678 368.391 355.04C366.719 350.493 357.286 349.113 342.236 350.484C339.783 344.872 336.974 339.422 333.825 334.167C386.052 326.923 422.904 331.648 429.523 349.66Z" fill="#FF3939"/>
<path d="M67.5807 440.039L68.6867 441.669C57.6042 448.962 48.9669 455.583 42.4062 461.486C47.4477 455.149 55.8226 448.03 67.5807 440.039Z" fill="#FF9100"/>
<path d="M69.796 443.287L68.6865 441.669C68.8734 441.532 69.0895 441.401 69.3039 441.269L69.796 443.287Z" fill="#FF9100"/>
<path d="M387.227 350.489C385.392 345.524 380.438 342.236 372.207 340.6C364.245 339.026 353.218 339.006 339.013 340.524L339.224 342.476L339.85 348.359C366.955 345.462 378.26 348.96 379.833 353.208C382.441 360.308 363.529 379.344 315.812 404.323C289.139 418.283 257.138 432.232 223.287 444.647C203.37 451.948 183.59 458.435 164.702 463.854C151.486 467.677 138.706 470.973 126.615 473.685C74.0491 485.479 47.2953 483.19 44.6786 476.072C43.1456 471.918 49.2622 462.204 70.8648 447.308C71.2369 447.046 71.6244 446.794 72.0119 446.525L69.7948 443.272L68.687 441.654L67.581 440.026C55.8229 448.015 47.4479 455.134 42.4065 461.471C37.1216 468.059 35.4566 473.79 37.2845 478.776C39.0747 483.626 43.9275 486.641 50.8415 488.289C68.8756 492.584 100.873 487.515 128.335 481.349C140.769 478.563 153.913 475.158 167.509 471.227C186.39 465.779 206.125 459.295 225.996 452.011C260.17 439.485 292.489 425.392 319.478 411.282C353.943 393.247 393.685 368.044 387.227 350.489Z" fill="#04D361"/>
<path d="M411.252 348.606C404.487 330.215 366.594 331.022 336.013 334.949L337.013 342.754C337.755 342.663 338.496 342.57 339.223 342.476C352.447 340.865 363.353 340.336 372.206 340.593C392.336 341.204 401.863 345.911 403.859 351.316C407.44 361.076 391.221 383.836 333.667 415.853C303.921 432.407 268.036 448.556 229.872 462.537C212.416 468.931 195.03 474.678 178.124 479.659C158.025 485.592 138.597 490.43 120.472 494.016C55.8478 506.795 28.7323 499.928 25.1398 490.169C23.1473 484.749 27.3862 474.982 42.4058 461.486C48.9665 455.583 57.6037 448.962 68.6863 441.669C68.8749 441.532 69.0892 441.401 69.3036 441.267C69.7066 440.998 70.1232 440.731 70.5434 440.45L68.4068 437.166L66.2513 433.848C40.3892 450.628 10.9707 474.48 17.7492 492.874C20.3659 499.991 27.5388 504.279 37.2838 506.6C60.2205 512.05 97.3143 506.616 121.993 501.734C143.657 497.454 167.143 491.4 191.357 483.885C204.933 479.68 218.73 475.021 232.571 469.937C271.123 455.805 307.402 439.485 337.493 422.733C368.82 405.301 420.045 372.508 411.252 348.606Z" fill="#04D361"/>
<path d="M58.0931 527.679C26.3339 527.679 6.37407 520.542 1.27093 506.665C-5.83162 487.348 17.0022 459.752 65.5746 428.953L69.9473 426.179L70.8047 431.282C71.7873 437.179 73.1447 443.007 74.8686 448.732L75.5803 451.098L73.5551 452.519C56.4469 464.527 57.7947 468.871 57.8102 468.912C57.8256 468.953 59.6638 473.25 81.2904 471.163C111.985 468.194 164.904 453.944 219.377 433.975C273.85 414.006 323.427 390.681 348.756 373.107C366.59 360.725 365.218 356.264 365.194 356.222C365.17 356.179 363.39 351.998 342.569 353.895L340.105 354.121L339.114 351.856C336.718 346.379 333.976 341.061 330.904 335.932L328.244 331.494L333.375 330.782C390.363 322.88 425.656 329.169 432.761 348.486C440.529 369.614 411.907 401.093 354.224 434.852C321.412 454.059 281.645 472.43 239.225 487.982C196.806 503.534 154.578 515.223 117.112 521.78C94.5078 525.73 74.6886 527.679 58.0931 527.679ZM64.9642 437.487C23.5303 464.479 2.19176 489.3 7.70987 504.304C14.0322 521.496 55.497 525.605 115.922 515.027C152.993 508.538 194.811 496.961 236.856 481.548C278.9 466.135 318.285 447.941 350.75 428.936C403.678 397.958 432.63 368.032 426.308 350.84C420.79 335.836 388.434 330.7 339.354 336.891C341.154 340.144 342.837 343.49 344.383 346.871C360.746 345.647 369.419 347.887 371.617 353.861C373.958 360.223 367.932 368.125 352.657 378.732C326.49 396.881 277.55 419.94 221.728 440.404C165.905 460.868 113.653 474.915 81.9403 477.981C63.4209 479.765 53.6999 477.639 51.3609 471.273C49.1643 465.297 54.3309 457.983 67.5998 448.345C66.5846 444.765 65.7032 441.133 64.9642 437.487Z" fill="#371A45"/>
<g opacity="0.41">
<path opacity="0.41" d="M350.699 376.413C347.811 378.417 344.615 380.495 341.11 382.649C340.043 378.767 338.802 374.893 337.392 371.052C337.169 370.455 336.943 369.864 336.718 369.273C335.893 367.105 335.017 364.966 334.091 362.856C331.638 357.245 328.831 351.794 325.689 346.536C325.315 345.913 324.931 345.294 324.547 344.678C319.841 337.083 314.43 329.947 308.385 323.365C297.295 311.28 284.221 301.174 269.726 293.481C234.703 274.862 192.194 270.645 152.021 285.379C125.202 295.212 103.059 312.154 86.9473 333.29C103.908 305.688 129.714 284.619 160.176 273.503C200.348 258.778 242.859 262.989 277.871 281.605C292.369 289.302 305.446 299.412 316.539 311.5C322.58 318.08 327.988 325.212 332.694 332.802C333.086 333.421 333.46 334.045 333.832 334.669C336.982 339.921 339.791 345.369 342.243 350.981C343.169 353.091 344.045 355.23 344.87 357.398C345.105 357.99 345.33 358.579 345.544 359.185C347.617 364.816 349.339 370.57 350.699 376.413Z" fill="white"/>
</g>
<path d="M79.6231 478.204L78.5582 476.149C75.7414 470.687 73.2657 465.055 71.1453 459.288C70.101 456.449 69.139 453.562 68.2834 450.706C66.477 444.704 65.0543 438.594 64.0239 432.412C52.4287 362.611 92.3672 294.224 158.989 269.8C225.611 245.375 300.38 271.709 336.774 332.415C339.996 337.796 342.873 343.376 345.386 349.121C346.586 351.85 347.721 354.674 348.764 357.511C350.886 363.278 352.648 369.17 354.04 375.155L354.565 377.417L352.656 378.74C326.489 396.889 277.55 419.949 221.727 440.413C165.905 460.877 113.653 474.915 81.9398 477.981L79.6231 478.204ZM209.913 267.584C193.343 267.586 176.904 270.509 161.352 276.22C97.8202 299.506 59.7336 364.726 70.7904 431.282C71.773 437.179 73.1305 443.007 74.8544 448.732C75.6706 451.46 76.588 454.211 77.5842 456.921C79.3382 461.692 81.3468 466.366 83.6013 470.922C114.604 467.484 166.243 453.449 219.363 433.975C272.483 414.501 320.949 391.835 346.812 374.425C345.578 369.495 344.08 364.634 342.325 359.863C341.332 357.158 340.247 354.467 339.103 351.861C336.706 346.381 333.962 341.058 330.889 335.925C304.888 292.556 258.341 267.584 209.913 267.584Z" fill="#371A45"/>
<g opacity="0.3">
<path opacity="0.3" d="M173.023 453.329C135.482 465.029 103.039 472.506 81.6076 474.574C66.0444 476.076 56.2839 474.732 54.5777 470.095C52.9041 465.541 59.2076 458.399 71.571 449.72C70.5422 446.315 69.6694 442.895 68.9063 439.473C28.7551 466.09 6.62777 491.573 12.8987 508.628C14.7146 513.567 18.8077 517.505 24.8643 520.472C24.2916 520.31 23.7343 520.13 23.1821 519.959C42.8573 526.188 75.9231 525.498 116.513 518.392C152.496 512.095 194.379 500.757 238.039 484.753C241.424 483.512 244.778 482.257 248.101 480.986C125.56 507.295 173.023 453.329 173.023 453.329Z" fill="#371A45"/>
</g>
<g opacity="0.3">
<path opacity="0.3" d="M176.453 433.449C219.766 432.874 310.225 394.992 347.64 377.987C348.691 377.288 349.72 376.596 350.699 375.918C349.778 371.97 352.774 375.121 351.505 371.205C327.913 382.676 217.384 431.746 168.044 432.4C165.887 432.427 163.731 432.36 161.586 432.211C166.49 433.104 171.469 433.518 176.453 433.449Z" fill="#371A45"/>
</g>
<g opacity="0.3">
<path opacity="0.3" d="M351.501 371.205C327.909 382.676 217.38 431.746 168.04 432.4C142.147 432.742 116.314 420.346 110.883 395.074C110.784 394.61 110.712 394.218 110.654 393.895C110.612 393.653 110.573 393.41 110.533 393.16C109.119 384.388 108.528 375.503 108.771 366.621C109.471 341.495 116.715 316.985 129.789 295.505C109.316 311.339 93.4906 332.384 83.9731 356.432C74.4556 380.479 71.5972 406.641 75.698 432.172C75.7289 432.413 75.7701 432.655 75.8095 432.896C76.8186 438.938 78.2104 444.909 79.9764 450.775C80.7297 453.309 81.5631 455.835 82.4765 458.355C82.576 458.625 82.6668 458.885 82.7663 459.156C84.6007 464.111 86.6986 468.965 89.0509 473.697C87.8243 473.863 86.624 474.016 85.4499 474.158C115.973 470.53 165.787 457.266 220.539 437.194C277.653 416.256 325.882 393.136 350.69 375.924C349.786 371.97 352.773 375.121 351.501 371.205Z" fill="#371A45"/>
</g>
<g opacity="0.3">
<path opacity="0.3" d="M132.272 526.306C138.893 530.583 145.853 534.314 153.082 537.462C185.971 551.776 224.226 553.951 260.569 540.626C296.832 527.331 324.541 501.046 340.357 468.972C344.009 461.57 347.019 453.87 349.354 445.955C350.11 443.409 350.784 440.837 351.395 438.25C320.208 456.326 281.65 474.331 238.868 490.014C198.683 504.739 160.015 515.51 126.056 522.042C128.095 523.513 130.161 524.945 132.272 526.306Z" fill="#371A45"/>
</g>
<path d="M167.087 269.274H250.923C265.654 269.274 277.595 257.351 277.595 242.643V167.571C277.595 152.863 265.654 140.94 250.923 140.94H167.087C152.357 140.94 140.415 152.863 140.415 167.571V242.643C140.415 257.351 152.357 269.274 167.087 269.274Z" fill="white"/>
<path d="M277.594 167.131V243.086C277.594 257.487 265.394 269.282 250.474 269.282H167.534C152.615 269.282 140.413 257.494 140.413 243.086V167.131C140.411 163.1 141.377 159.129 143.229 155.548C144.566 152.957 146.323 150.605 148.428 148.586C153.225 143.994 159.526 141.293 166.164 140.981C166.62 140.958 167.078 140.946 167.536 140.946H250.484C261.4 140.946 270.852 147.261 275.144 156.289C275.626 157.305 276.041 158.351 276.387 159.421C277.188 161.912 277.596 164.514 277.594 167.131Z" fill="white"/>
<path d="M250.923 140.939C265.593 140.939 277.594 152.925 277.594 167.571V242.643C277.594 257.29 265.591 269.274 250.923 269.274H167.086C152.417 269.274 140.413 257.289 140.413 242.643V167.571C140.413 152.923 152.417 140.939 167.086 140.939H250.923ZM250.923 135.46H167.086C149.349 135.46 134.921 149.868 134.921 167.577V242.65C134.921 260.359 149.349 274.765 167.086 274.765H250.923C268.659 274.765 283.089 260.359 283.089 242.65V167.571C283.089 149.862 268.659 135.454 250.923 135.454V135.46Z" fill="#371A45"/>
<g opacity="0.3">
<path opacity="0.3" d="M274.628 170.988L274.273 171.171C274.273 171 274.273 170.829 274.273 170.666C274.287 170.436 274.315 170.208 274.358 169.981C274.368 169.92 274.38 169.863 274.395 169.81C274.398 169.786 274.403 169.762 274.409 169.738C274.424 169.668 274.443 169.601 274.464 169.536C274.484 169.471 274.495 169.422 274.512 169.365C274.519 169.337 274.528 169.308 274.539 169.281C274.56 169.218 274.582 169.154 274.604 169.095C274.627 169.035 274.661 168.947 274.69 168.875C274.673 168.954 274.658 169.033 274.644 169.112C274.613 169.283 274.591 169.454 274.575 169.625C274.539 170.08 274.556 170.538 274.628 170.988Z" fill="#6B184E"/>
</g>
<path d="M171.368 145.668L169.125 151.55L167.222 156.539L165.567 160.881L155.815 186.444C154.236 186.882 152.621 187.279 150.961 187.61C130.127 191.89 102.605 187.369 65.0512 145.319C59.1764 138.744 45.0004 134.759 51.1804 119.808C57.5011 104.515 66.3956 106.424 66.3956 106.424C66.3956 106.424 64.0652 98.8439 69.0895 95.0069C76.18 89.5862 84.5875 97.6163 92.7532 103.342C93.9141 104.157 93.3945 93.1732 101.066 93.5036C112.041 93.9762 111.453 118.986 111.453 118.986C111.453 118.986 126.255 135.216 149.236 142.364C155.384 144.298 161.765 145.398 168.206 145.634C169.247 145.668 170.309 145.682 171.368 145.668Z" fill="white"/>
<g opacity="0.35">
<path opacity="0.35" d="M155.814 186.442C134.45 192.368 105.602 190.723 65.0534 145.319C59.1803 138.744 45.0044 134.764 51.1844 119.808C54.9774 110.62 59.705 107.651 62.867 106.727C61.7936 108.353 61.0271 110.48 59.741 112.743C52.5099 125.46 72.3085 137.801 77.7649 135.544C81.1121 134.159 82.2902 132.819 84.2227 126.429C86.2804 119.637 89.4768 116.406 89.8523 116.829C91.567 118.746 91.6065 142.412 95.5436 150.73C105.582 171.961 132.615 182.388 152.23 181.479C152.838 181.45 153.444 181.574 153.992 181.838C154.54 182.102 155.013 182.498 155.369 182.991C155.725 183.484 155.952 184.058 156.03 184.66C156.107 185.263 156.033 185.875 155.814 186.442Z" fill="#371A45"/>
</g>
<path d="M138.68 191.616C120.005 191.616 94.988 182.884 63.0368 147.117C61.7439 145.668 59.8714 144.275 57.8925 142.801C51.7194 138.205 43.2604 131.911 48.686 118.78C53.2661 107.699 59.3552 104.636 63.222 103.885C62.9579 100.707 63.3935 95.9657 67.4506 92.865C75.1259 87.0025 83.4477 93.1543 90.7903 98.5802L91.4762 99.0939C92.5051 95.6901 94.8886 90.533 101.187 90.8138C113.317 91.3274 114.164 112.249 114.171 117.916C118.408 122.172 141.052 143.384 171.338 142.975H171.374C172.09 142.971 172.779 143.251 173.288 143.754C173.798 144.256 174.087 144.94 174.091 145.656C174.095 146.371 173.815 147.058 173.311 147.567C172.808 148.076 172.123 148.364 171.407 148.369C135.431 148.821 110.505 121.955 109.461 120.803C108.992 120.288 108.741 119.614 108.758 118.919C108.929 111.62 107.23 96.4588 100.954 96.1883C98.2684 96.077 97.2172 98.2172 96.2244 102.213C95.8111 103.874 95.4544 105.309 93.8769 105.898C93.4363 106.06 92.9629 106.112 92.4975 106.051C92.0321 105.989 91.5886 105.816 91.2053 105.545C90.0049 104.7 88.7874 103.804 87.5751 102.907C79.8587 97.207 74.8859 93.9727 70.7327 97.142C67.2843 99.7753 68.9648 105.581 68.9819 105.64C69.1181 106.089 69.1345 106.567 69.0295 107.025C68.9246 107.482 68.7018 107.905 68.3832 108.251C68.0647 108.597 67.6613 108.853 67.213 108.996C66.7647 109.139 66.2869 109.162 65.8268 109.064C65.6055 109.031 58.954 108.078 53.6793 120.839C49.8537 130.093 55.0752 133.978 61.1197 138.474C63.2306 140.044 65.4066 141.667 67.0717 143.525C108.61 190.031 137.206 188.807 155.094 183.841C155.436 183.747 155.793 183.72 156.145 183.763C156.497 183.806 156.837 183.918 157.146 184.092C157.455 184.267 157.726 184.5 157.945 184.779C158.164 185.058 158.325 185.378 158.42 185.719C158.515 186.06 158.541 186.417 158.498 186.768C158.455 187.12 158.343 187.46 158.168 187.768C157.994 188.076 157.76 188.347 157.481 188.566C157.201 188.784 156.881 188.945 156.54 189.04C151.404 190.462 145.459 191.616 138.68 191.616Z" fill="#371A45"/>
<path d="M96.0493 102.754L95.4422 111.315C95.4071 111.821 95.2379 112.308 94.9518 112.726L94.8781 112.834C94.6765 113.058 94.4882 113.292 94.3139 113.538C94.115 113.812 93.9212 114.094 93.7395 114.394C93.3717 114.982 93.0418 115.594 92.7518 116.224C92.1744 117.478 91.7932 118.813 91.6217 120.183C91.5085 120.868 91.5463 121.552 91.5377 122.237C91.6406 122.912 91.6594 123.617 91.8807 124.292C92.1704 125.662 92.8615 126.949 93.5954 128.22L93.6657 128.341C93.84 128.635 93.8961 128.983 93.8224 129.317C93.7488 129.65 93.551 129.942 93.2692 130.135C92.9874 130.328 92.6427 130.407 92.3049 130.356C91.9671 130.304 91.6616 130.126 91.4502 129.858C90.3699 128.512 89.3102 127.064 88.6741 125.364C88.2831 124.542 88.1013 123.652 87.8561 122.765C87.7224 121.864 87.5594 120.951 87.5697 120.035C87.5344 118.206 87.7813 116.381 88.3019 114.627C88.5599 113.755 88.8738 112.9 89.2416 112.069C89.4234 111.651 89.624 111.238 89.8401 110.829C90.0718 110.385 90.3277 109.953 90.6066 109.536L90.0424 111.055L90.6666 102.253C90.7226 101.543 91.0571 100.885 91.5973 100.421C92.1374 99.9566 92.8394 99.7245 93.5502 99.7748C94.261 99.8252 94.9231 100.154 95.3922 100.69C95.8613 101.225 96.0993 101.924 96.0544 102.635L96.0493 102.754Z" fill="#371A45"/>
<path d="M114.16 185.927C113.732 185.927 113.314 185.799 112.96 185.56C112.605 185.321 112.33 184.982 112.171 184.586C112.011 184.189 111.974 183.754 112.064 183.337C112.153 182.919 112.366 182.538 112.675 182.242C127.196 168.329 129.416 134.74 129.437 134.402C129.471 133.835 129.73 133.304 130.157 132.927C130.583 132.55 131.142 132.358 131.711 132.392C132.279 132.427 132.811 132.685 133.188 133.111C133.566 133.537 133.758 134.095 133.724 134.663C133.636 136.109 131.383 170.257 115.652 185.331C115.252 185.716 114.716 185.93 114.16 185.927Z" fill="#371A45"/>
<path d="M301.69 256.248C300.536 281.737 292.73 292.08 283.093 295.344C281.02 296.049 278.839 296.389 276.649 296.349C269.83 296.112 264.879 293.239 264.879 293.239C264.879 293.239 262.367 294.292 260.064 294.07C242.243 292.342 246.308 281.783 249.928 264.865C250.967 259.997 251.974 254.602 252.406 248.743C254.464 221.062 246.713 194.894 246.713 194.894L249.698 170.058L253.022 142.379C253.022 142.379 254.764 143.956 257.593 146.958C260.071 149.581 263.38 153.283 267.074 157.969C282.147 177.051 303.689 212.33 301.69 256.248Z" fill="white"/>
<path d="M277.124 299.054C276.932 299.054 276.743 299.054 276.555 299.043C272.443 298.88 268.405 297.902 264.676 296.165C263.495 296.52 261.646 296.931 259.803 296.751C253.081 296.102 248.811 294.229 246.364 290.861C242.539 285.594 244.226 278.038 246.364 268.473C247.676 262.601 249.161 255.946 249.713 248.539C251.711 221.708 244.204 195.912 244.128 195.655C243.925 194.969 244.003 194.231 244.346 193.603C244.688 192.974 245.266 192.507 245.953 192.305C246.64 192.102 247.379 192.18 248.009 192.522C248.638 192.863 249.106 193.441 249.309 194.126C249.631 195.215 257.174 221.093 255.101 248.94C254.52 256.737 252.989 263.596 251.639 269.647C249.799 277.886 248.345 284.394 250.742 287.693C252.193 289.691 255.327 290.899 260.328 291.383C261.64 291.512 263.315 290.967 263.853 290.748L265.083 290.245L266.242 290.909C266.28 290.929 270.745 293.446 276.745 293.648C278.61 293.684 280.467 293.394 282.232 292.792C292.414 289.344 298.058 277.008 299.004 256.128C300.548 222.283 287.515 193.746 276.304 175.765C264.097 156.176 251.342 144.492 251.214 144.377C250.683 143.896 250.366 143.225 250.332 142.51C250.298 141.795 250.549 141.096 251.031 140.567C251.513 140.038 252.186 139.721 252.901 139.687C253.617 139.652 254.317 139.904 254.847 140.385C255.386 140.873 268.198 152.589 280.799 172.769C292.45 191.431 306.006 221.078 304.402 256.373C303.329 280.023 296.645 293.607 283.967 297.9C281.762 298.643 279.452 299.033 277.124 299.054Z" fill="#371A45"/>
<path d="M251.895 225.105C251.391 225.104 250.904 224.926 250.518 224.602C250.133 224.278 249.874 223.83 249.786 223.334C249.699 222.839 249.789 222.329 250.041 221.893C250.292 221.457 250.69 221.124 251.163 220.951C252.631 220.42 287.216 208.077 299.785 219.362C300.208 219.742 300.462 220.274 300.492 220.84C300.522 221.407 300.325 221.963 299.945 222.385C299.565 222.807 299.033 223.061 298.465 223.091C297.897 223.121 297.341 222.925 296.918 222.545C288.066 214.597 261.937 221.605 252.625 224.976C252.391 225.061 252.144 225.105 251.895 225.105Z" fill="#371A45"/>
<path d="M271.491 264.865H145.847C145.516 254.69 145.599 244.892 145.983 235.527C146.341 226.855 146.969 218.554 147.792 210.671C148.543 203.463 149.46 196.606 150.487 190.125C150.623 189.269 150.784 188.433 150.961 187.617C153.505 176.121 160.347 168.158 165.047 160.457C165.843 159.148 166.58 157.854 167.222 156.546C167.958 155.074 168.561 153.54 169.024 151.961C169.065 151.828 169.099 151.693 169.125 151.557C169.451 149.877 168.978 147.807 168.208 145.643C166.519 140.888 163.406 135.663 164.284 133.081C165.73 128.826 166.985 125.48 167.918 123.121C168.978 120.424 169.612 119.012 169.612 119.012H247.727C247.727 119.012 248.375 120.402 249.462 123.078C250.59 125.85 252.183 129.997 254.006 135.438C255.134 138.796 256.35 142.646 257.593 146.963C258.504 150.118 259.437 153.524 260.361 157.164C260.8 158.897 261.239 160.684 261.664 162.518C263.705 171.11 265.656 180.838 267.29 191.647C268.216 197.703 269.033 204.083 269.701 210.784C270.505 218.701 271.099 227.05 271.43 235.808C271.781 245.048 271.829 254.758 271.491 264.865Z" fill="white"/>
<path d="M156.248 168.375C156.358 170.492 156.236 172.534 156.133 174.573C156.03 176.613 155.833 178.623 155.651 180.635C155.47 182.646 155.168 184.626 154.895 186.615C154.583 188.598 154.173 190.564 153.822 192.543L153.285 195.51C153.124 196.503 152.99 197.5 152.851 198.496C152.575 200.487 152.32 202.484 152.097 204.489C151.874 206.494 151.635 208.488 151.44 210.495C151.244 212.502 151.039 214.503 150.871 216.513C150.135 224.545 149.921 232.621 149.626 240.693C149.444 244.726 149.269 248.762 148.969 252.798C148.741 256.837 148.508 260.871 146.266 264.884C146.206 264.992 146.105 265.072 145.986 265.106C145.867 265.14 145.739 265.125 145.63 265.065C145.548 265.021 145.481 264.952 145.438 264.868C143.362 260.771 143.31 256.696 143.329 252.628C143.283 248.557 143.391 244.488 143.585 240.42C144.023 232.286 144.807 224.168 145.49 216.041C145.66 214.01 145.852 211.979 146.066 209.949C146.262 207.918 146.484 205.889 146.731 203.86C146.96 201.831 147.215 199.804 147.498 197.779L148.264 191.692C148.492 189.656 148.779 187.627 149.168 185.614C149.557 183.6 150.082 181.612 150.654 179.638C151.843 175.7 153.342 171.827 155.446 168.167C155.491 168.086 155.562 168.023 155.647 167.986C155.732 167.949 155.826 167.94 155.917 167.961C156.007 167.983 156.088 168.032 156.147 168.103C156.207 168.174 156.241 168.263 156.246 168.355L156.248 168.375Z" fill="#371A45"/>
<path d="M271.079 264.875C268.85 261.254 268.634 257.602 268.445 253.953C268.179 250.308 268.039 246.665 267.9 243.028C267.678 235.753 267.497 228.487 266.727 221.268C266.367 217.657 265.924 214.055 265.424 210.459C264.923 206.863 264.417 203.268 263.64 199.71C263.282 197.928 262.889 196.152 262.586 194.359C262.308 192.562 262.087 190.752 261.908 188.93C261.73 187.108 261.649 185.268 261.591 183.413C261.527 181.531 261.584 179.647 261.763 177.772V177.762C261.769 177.705 261.786 177.65 261.813 177.6C261.84 177.551 261.877 177.507 261.921 177.471C261.965 177.435 262.016 177.409 262.071 177.393C262.125 177.377 262.183 177.372 262.239 177.378C262.308 177.386 262.373 177.41 262.431 177.447C262.488 177.485 262.536 177.536 262.57 177.595C264.456 180.933 265.811 184.407 266.909 187.942C268.006 191.47 268.767 195.093 269.182 198.763C269.657 202.422 270.285 206.06 270.777 209.721C271.269 213.382 271.737 217.046 272.103 220.722C272.826 228.072 273.577 235.428 273.944 242.787C274.093 246.468 274.169 250.149 274.087 253.818C274.068 257.491 273.999 261.16 271.907 264.862C271.844 264.972 271.74 265.053 271.618 265.087C271.496 265.121 271.365 265.105 271.254 265.043C271.182 265.003 271.122 264.945 271.079 264.875Z" fill="#371A45"/>
<g opacity="0.35">
<path opacity="0.35" d="M271.432 241.71C263.716 242.463 254.103 242.737 246.635 240.78V244.91C246.628 247.671 245.526 250.317 243.57 252.269C241.614 254.221 238.963 255.321 236.197 255.326H179.247C176.483 255.318 173.835 254.217 171.881 252.266C169.927 250.314 168.826 247.669 168.819 244.91V241.602C161.375 242.732 152.711 242.244 145.985 241.485C146.339 234.575 146.97 227.959 147.794 221.681C153.968 221.939 161.936 222.05 168.819 221.456V214.036C168.825 211.276 169.926 208.631 171.88 206.68C173.834 204.729 176.483 203.63 179.247 203.624H236.197C237.807 203.627 239.393 204.002 240.833 204.719C242.274 205.435 243.529 206.475 244.5 207.755C245.885 209.559 246.635 211.768 246.633 214.041V220.997C253.564 222.004 262.531 222.004 269.704 221.768C270.506 228.079 271.101 234.734 271.432 241.71Z" fill="#371A45"/>
</g>
<path d="M179.837 230.808C172.006 233.972 159.888 233.311 151.626 232.313C150.449 232.17 149.313 231.794 148.284 231.205C147.256 230.616 146.356 229.828 145.638 228.886C144.92 227.945 144.398 226.869 144.103 225.722C143.808 224.576 143.746 223.382 143.921 222.211C144.241 220.039 145.358 218.062 147.054 216.665C148.751 215.269 150.907 214.551 153.104 214.652C160.831 215.013 172.423 215.183 179.763 213.558" fill="white"/>
<g opacity="0.35">
<path opacity="0.35" d="M179.84 230.806C172.007 233.976 159.887 233.308 151.627 232.315C150.202 232.14 148.842 231.622 147.661 230.808C146.481 229.993 145.516 228.905 144.848 227.636C144.181 226.368 143.831 224.957 143.829 223.524C143.827 222.091 144.173 220.679 144.836 219.408C145.502 220.682 146.468 221.774 147.651 222.59C148.834 223.407 150.199 223.923 151.627 224.095C159.873 225.093 171.972 225.755 179.805 222.605L179.84 230.806Z" fill="#371A45"/>
</g>
<path d="M164.257 235.835C159.925 235.81 155.598 235.528 151.3 234.991C148.328 234.627 145.613 233.129 143.725 230.809C141.836 228.49 140.92 225.53 141.17 222.551C141.42 219.573 142.816 216.806 145.065 214.833C147.313 212.859 150.24 211.832 153.231 211.967C164.56 212.496 173.775 212.139 179.179 210.94C180.163 210.721 183.52 210.461 185.329 216.267C187.029 221.725 186.78 230.919 180.85 233.316C176.174 235.198 170.188 235.835 164.257 235.835ZM152.682 217.344C151.105 217.338 149.585 217.936 148.435 219.014C147.286 220.092 146.593 221.569 146.499 223.141C146.405 224.713 146.918 226.262 147.932 227.468C148.945 228.675 150.383 229.449 151.95 229.63C163.662 231.046 173.213 230.575 178.824 228.305C180.024 227.822 180.494 225.822 180.643 224.987C181.25 221.595 180.365 217.691 179.563 216.359C172.055 217.849 161.043 217.729 152.984 217.35C152.878 217.344 152.78 217.344 152.682 217.344Z" fill="#371A45"/>
<path d="M239.732 230.808C247.564 233.972 259.682 233.311 267.945 232.313C269.122 232.17 270.258 231.793 271.286 231.205C272.315 230.616 273.214 229.827 273.932 228.886C274.65 227.944 275.172 226.868 275.467 225.722C275.762 224.576 275.823 223.382 275.648 222.211C275.329 220.039 274.212 218.062 272.515 216.665C270.818 215.269 268.662 214.551 266.466 214.652C258.739 215.013 247.147 215.183 239.806 213.558" fill="white"/>
<g opacity="0.35">
<path opacity="0.35" d="M267.944 232.315C259.682 233.308 247.564 233.976 239.73 230.806L239.765 222.53C247.598 225.679 259.696 225.018 267.944 224.019C269.365 223.85 270.724 223.337 271.903 222.527C273.082 221.717 274.047 220.632 274.713 219.367C275.188 220.257 275.506 221.222 275.651 222.22C275.824 223.39 275.761 224.583 275.465 225.728C275.169 226.874 274.646 227.949 273.928 228.889C273.21 229.83 272.31 230.618 271.283 231.206C270.255 231.794 269.119 232.171 267.944 232.315Z" fill="#371A45"/>
</g>
<path d="M255.313 235.835C249.382 235.835 243.396 235.2 238.72 233.31C232.79 230.913 232.546 221.718 234.241 216.26C236.05 210.454 239.407 210.714 240.391 210.933C245.795 212.132 255.008 212.496 266.341 211.961C269.331 211.826 272.258 212.854 274.506 214.827C276.754 216.801 278.149 219.567 278.399 222.546C278.648 225.524 277.733 228.483 275.844 230.803C273.956 233.122 271.241 234.62 268.27 234.984C263.972 235.524 259.645 235.808 255.313 235.835ZM240.746 228.301C246.366 230.572 255.908 231.041 267.622 229.627C269.218 229.447 270.682 228.653 271.702 227.414C272.722 226.174 273.217 224.586 273.083 222.988C272.949 221.389 272.196 219.906 270.984 218.852C269.773 217.799 268.197 217.259 266.593 217.347C258.534 217.724 247.515 217.845 240.014 216.356C239.212 217.688 238.327 221.591 238.934 224.983C239.083 225.819 239.561 227.819 240.753 228.301H240.746Z" fill="#371A45"/>
<path d="M242.759 207.867V235.493C242.751 237.963 241.765 240.33 240.016 242.076C238.266 243.823 235.896 244.808 233.422 244.815H182.454C179.981 244.806 177.612 243.821 175.864 242.074C174.116 240.328 173.131 237.962 173.124 235.493V207.867C173.131 205.398 174.117 203.033 175.865 201.287C177.613 199.541 179.982 198.557 182.454 198.549H233.422C235.896 198.554 238.268 199.537 240.017 201.283C241.767 203.029 242.753 205.396 242.759 207.867Z" fill="white"/>
<g opacity="0.35">
<path opacity="0.35" d="M242.76 207.867V235.493C242.752 237.963 241.767 240.329 240.017 242.076C238.268 243.822 235.898 244.806 233.424 244.814H182.458C179.985 244.806 177.614 243.822 175.865 242.076C174.116 240.329 173.13 237.963 173.123 235.493V225.158C180.778 232.95 195.83 237.842 209.637 237.915C214.073 237.938 217.652 234.434 217.968 230.015C217.968 229.973 217.968 229.928 217.98 229.884C218.159 227.894 219.075 226.042 220.547 224.69C222.02 223.337 223.944 222.581 225.944 222.567C227.945 222.554 229.879 223.285 231.369 224.618C232.86 225.951 233.8 227.79 234.006 229.777C240.693 221.54 238.732 207.221 240.856 202.237C242.094 203.853 242.763 205.832 242.76 207.867Z" fill="#371A45"/>
</g>
<path d="M233.426 247.519H182.456C179.266 247.515 176.208 246.248 173.952 243.995C171.696 241.742 170.427 238.688 170.424 235.503V207.865C170.427 204.68 171.696 201.626 173.952 199.374C176.208 197.121 179.266 195.854 182.456 195.851H233.426C236.616 195.854 239.675 197.121 241.93 199.374C244.186 201.626 245.455 204.68 245.458 207.865V235.503C245.455 238.688 244.186 241.742 241.93 243.995C239.675 246.248 236.616 247.515 233.426 247.519ZM182.456 201.249C180.698 201.251 179.013 201.95 177.77 203.191C176.527 204.432 175.828 206.115 175.825 207.87V235.508C175.828 237.263 176.527 238.946 177.77 240.187C179.013 241.429 180.698 242.127 182.456 242.129H233.426C235.184 242.127 236.869 241.429 238.112 240.187C239.355 238.946 240.055 237.263 240.057 235.508V207.865C240.055 206.11 239.355 204.427 238.112 203.186C236.869 201.945 235.184 201.246 233.426 201.244L182.456 201.249Z" fill="#371A45"/>
<path d="M231.688 227.366C234.831 224.227 234.831 219.139 231.688 216C228.545 212.861 223.448 212.861 220.305 216C217.162 219.139 217.161 224.227 220.305 227.366C223.448 230.505 228.545 230.505 231.688 227.366Z" fill="#22A7F0"/>
<g opacity="0.7">
<path opacity="0.7" d="M234.04 221.684C234.041 222.223 233.989 222.761 233.884 223.29C233.509 221.476 232.519 219.847 231.081 218.678C229.643 217.508 227.845 216.869 225.991 216.869C224.136 216.869 222.338 217.508 220.9 218.678C219.462 219.847 218.472 221.476 218.097 223.29C217.993 222.761 217.941 222.223 217.941 221.684C217.941 219.552 218.789 217.508 220.299 216.001C221.808 214.494 223.856 213.647 225.991 213.647C228.125 213.647 230.173 214.494 231.682 216.001C233.192 217.508 234.04 219.552 234.04 221.684Z" fill="white"/>
</g>
<g opacity="0.35">
<path opacity="0.35" d="M234.04 221.682C234.04 223.813 233.192 225.857 231.683 227.364C230.174 228.871 228.127 229.717 225.993 229.717C223.858 229.717 221.812 228.871 220.302 227.364C218.793 225.857 217.945 223.813 217.945 221.682C217.943 220.686 218.13 219.698 218.498 218.771C219.085 220.279 220.115 221.575 221.452 222.488C222.79 223.402 224.372 223.891 225.993 223.891C227.613 223.891 229.196 223.402 230.533 222.488C231.871 221.575 232.901 220.279 233.488 218.771C233.855 219.698 234.043 220.686 234.04 221.682Z" fill="#371A45"/>
</g>
<path d="M225.997 231.743C224.005 231.743 222.057 231.153 220.4 230.048C218.743 228.942 217.452 227.371 216.69 225.533C215.927 223.695 215.728 221.673 216.116 219.722C216.505 217.77 217.465 215.978 218.874 214.571C220.282 213.164 222.078 212.206 224.032 211.818C225.986 211.43 228.012 211.629 229.852 212.391C231.693 213.152 233.267 214.441 234.374 216.096C235.48 217.75 236.071 219.695 236.071 221.684C236.069 224.351 235.006 226.908 233.118 228.794C231.229 230.68 228.668 231.74 225.997 231.743ZM225.997 215.671C224.806 215.671 223.642 216.024 222.651 216.684C221.661 217.345 220.889 218.284 220.433 219.383C219.977 220.482 219.858 221.691 220.091 222.857C220.323 224.024 220.896 225.095 221.739 225.936C222.581 226.777 223.654 227.35 224.822 227.582C225.99 227.814 227.201 227.695 228.302 227.239C229.402 226.784 230.343 226.014 231.004 225.025C231.666 224.036 232.019 222.873 232.019 221.684C232.018 220.09 231.382 218.561 230.253 217.434C229.124 216.307 227.594 215.673 225.997 215.671Z" fill="#371A45"/>
<path d="M203.19 246.844C202.653 246.844 202.137 246.631 201.757 246.252C201.377 245.872 201.163 245.357 201.163 244.821V230.14C201.16 228.894 200.868 227.665 200.311 226.549C199.754 225.434 198.947 224.462 197.952 223.709L195.798 222.091C194.302 220.961 193.088 219.501 192.251 217.825C191.414 216.149 190.976 214.303 190.971 212.43V198.547C190.986 198.021 191.206 197.521 191.584 197.154C191.963 196.788 192.469 196.582 192.997 196.582C193.524 196.582 194.031 196.788 194.409 197.154C194.787 197.521 195.007 198.021 195.023 198.547V212.43C195.026 213.676 195.317 214.905 195.874 216.02C196.432 217.135 197.239 218.107 198.234 218.859L200.388 220.479C201.884 221.609 203.098 223.069 203.935 224.745C204.772 226.421 205.21 228.267 205.215 230.14V244.821C205.215 245.357 205.002 245.872 204.622 246.251C204.242 246.63 203.727 246.844 203.19 246.844Z" fill="#371A45"/>
<g opacity="0.35">
<path opacity="0.35" d="M269.707 160.624C267.86 162.336 265.934 163.958 263.929 165.478C259.923 168.546 255.644 171.244 251.148 173.538C236.835 180.801 220.713 183.742 204.753 182.001C188.793 180.26 173.686 173.913 161.282 163.735C161.093 163.592 160.906 163.432 160.726 163.275C154.126 157.752 148.43 151.234 143.843 143.956C150.41 146.024 157.225 147.199 164.106 147.451C162.302 142.373 158.984 136.791 159.915 134.033C161.459 129.487 162.799 125.915 163.796 123.393C164.928 120.513 165.607 119.006 165.607 119.006H249.044C249.044 119.006 249.73 120.491 250.897 123.35C252.098 126.311 253.812 130.74 255.752 136.553C256.952 140.14 258.255 144.258 259.583 148.862C262.23 151.665 265.763 155.618 269.707 160.624Z" fill="#371A45"/>
</g>
<path d="M292.57 123.915C292.122 123.85 291.718 123.612 291.446 123.251C291.174 122.89 291.056 122.437 291.117 121.989L297.976 73.3633C298.007 73.1416 298.082 72.9282 298.195 72.7352C298.309 72.5423 298.46 72.3737 298.639 72.2389C298.818 72.1042 299.022 72.0061 299.239 71.9502C299.456 71.8943 299.682 71.8817 299.904 71.9131C304.608 72.5743 308.857 75.0743 311.715 78.8632C314.573 82.6521 315.807 87.4196 315.145 92.1168L312.806 108.697C312.478 111.023 311.694 113.262 310.5 115.286C309.305 117.309 307.724 119.078 305.844 120.491C303.965 121.904 301.826 122.934 299.548 123.522C297.27 124.109 294.899 124.243 292.57 123.915Z" fill="white"/>
<path d="M295.085 124.616C294.221 124.616 293.358 124.556 292.503 124.436C292.212 124.396 291.932 124.298 291.679 124.15C291.426 124.001 291.205 123.804 291.028 123.57C290.852 123.336 290.723 123.069 290.65 122.785C290.577 122.501 290.561 122.206 290.603 121.916L297.462 73.2897C297.502 72.9996 297.599 72.7202 297.748 72.4677C297.897 72.2152 298.094 71.9945 298.328 71.8183C298.563 71.642 298.83 71.5137 299.114 71.4407C299.398 71.3676 299.694 71.3513 299.984 71.3926C304.823 72.0763 309.193 74.65 312.132 78.5484C315.072 82.4468 316.342 87.351 315.662 92.1836L313.323 108.764C312.7 113.154 310.513 117.173 307.163 120.085C303.814 122.996 299.526 124.604 295.085 124.616ZM299.669 72.4216C299.384 72.4214 299.11 72.524 298.895 72.7103C298.681 72.8966 298.541 73.1542 298.503 73.4352L291.643 122.061C291.622 122.214 291.63 122.37 291.669 122.52C291.708 122.67 291.775 122.811 291.869 122.935C291.962 123.058 292.078 123.163 292.212 123.241C292.345 123.32 292.493 123.371 292.647 123.393C297.212 124.029 301.843 122.83 305.524 120.061C309.205 117.291 311.635 113.177 312.282 108.62L314.621 92.038C315.259 87.4798 314.059 82.8552 311.287 79.1787C308.514 75.5022 304.393 73.074 299.83 72.4268C299.774 72.4217 299.718 72.4199 299.662 72.4216H299.669Z" fill="#371A45"/>
<g opacity="0.35">
<path opacity="0.35" d="M313.899 100.916L312.805 108.692C312.141 113.389 309.637 117.63 305.843 120.483C302.049 123.337 297.275 124.569 292.571 123.91C292.123 123.845 291.719 123.606 291.447 123.245C291.175 122.884 291.057 122.43 291.119 121.982L292.936 109.054C293.027 109.369 293.208 109.652 293.456 109.868C293.703 110.084 294.008 110.225 294.334 110.273L295.49 110.432C299.168 110.949 302.916 110.311 306.215 108.606C309.513 106.901 312.199 104.213 313.899 100.916Z" fill="#371A45"/>
</g>
<path d="M295.086 127.016C294.111 127.016 293.136 126.947 292.171 126.811C290.953 126.639 289.854 125.991 289.114 125.01C288.375 124.03 288.056 122.796 288.227 121.58L295.086 72.9541C295.258 71.7384 295.907 70.6408 296.889 69.9023C297.871 69.1639 299.107 68.8451 300.325 69.0161C305.796 69.7896 310.735 72.7004 314.058 77.1089C317.38 81.5173 318.814 87.0626 318.043 92.526L315.704 109.108C314.997 114.069 312.524 118.61 308.737 121.899C304.951 125.188 300.105 127.004 295.086 127.016ZM294.199 121.14C297.953 121.355 301.651 120.154 304.561 117.776C307.47 115.398 309.379 112.015 309.91 108.299L312.247 91.7178C312.768 87.9986 311.87 84.2199 309.732 81.1304C307.594 78.0408 304.372 75.8657 300.703 75.0361L294.199 121.14Z" fill="#371A45"/>
<path d="M139.156 49.3124C139.378 49.3433 139.592 49.4176 139.785 49.5311C139.978 49.6446 140.147 49.795 140.282 49.9738C140.417 50.1525 140.515 50.3561 140.571 50.5729C140.627 50.7896 140.64 51.0152 140.608 51.2369L133.749 99.8626C133.685 100.31 133.446 100.713 133.085 100.985C132.724 101.257 132.27 101.375 131.822 101.315C127.118 100.653 122.869 98.1528 120.011 94.364C117.153 90.5752 115.919 85.808 116.581 81.1109L118.92 64.5302C119.248 62.2041 120.031 59.9653 121.225 57.9416C122.42 55.9179 124.002 54.1489 125.881 52.7357C127.76 51.3226 129.899 50.2929 132.177 49.7055C134.455 49.1181 136.826 48.9845 139.156 49.3124Z" fill="white"/>
<path d="M132.062 101.856C131.957 101.856 131.853 101.849 131.75 101.835C129.352 101.498 127.044 100.693 124.958 99.4651C122.872 98.2375 121.049 96.6116 119.592 94.6803C118.136 92.749 117.074 90.5502 116.469 88.2093C115.863 85.8684 115.725 83.4313 116.063 81.0373L118.4 64.4548C118.738 62.0607 119.544 59.7565 120.774 57.6736C122.003 55.5907 123.632 53.7701 125.566 52.3157C127.5 50.8612 129.702 49.8014 132.047 49.1968C134.391 48.5921 136.832 48.4546 139.23 48.7918C139.52 48.8322 139.8 48.9294 140.053 49.0779C140.306 49.2264 140.527 49.4233 140.703 49.6573C140.88 49.8913 141.008 50.1578 141.081 50.4414C141.155 50.7251 141.171 51.0204 141.13 51.3105L134.27 99.9363C134.196 100.468 133.932 100.956 133.526 101.309C133.12 101.662 132.6 101.856 132.062 101.856ZM136.621 49.6582C132.437 49.6688 128.396 51.1857 125.24 53.9306C122.085 56.6755 120.027 60.4643 119.443 64.6021L117.104 81.1828C116.786 83.4402 116.916 85.7382 117.487 87.9455C118.058 90.1528 119.058 92.2262 120.432 94.0473C121.805 95.8683 123.525 97.4015 125.492 98.5591C127.459 99.7167 129.635 100.476 131.896 100.794C132.049 100.816 132.206 100.807 132.356 100.769C132.506 100.73 132.647 100.662 132.771 100.569C132.895 100.476 133 100.359 133.078 100.226C133.157 100.092 133.208 99.9442 133.23 99.7907L140.089 51.1649C140.111 51.0116 140.103 50.8554 140.064 50.7053C140.026 50.5553 139.958 50.4143 139.865 50.2905C139.771 50.1666 139.655 50.0625 139.521 49.9839C139.387 49.9054 139.239 49.8541 139.086 49.8328C138.269 49.7169 137.446 49.6586 136.621 49.6582Z" fill="#371A45"/>
<g opacity="0.35">
<path opacity="0.35" d="M135.657 86.3741L133.754 99.8643C133.689 100.312 133.449 100.716 133.087 100.987C132.725 101.259 132.27 101.377 131.821 101.315C129.492 100.988 127.25 100.206 125.223 99.0132C123.197 97.8208 121.425 96.2413 120.01 94.3651C118.595 92.4888 117.564 90.3526 116.976 88.0784C116.389 85.8042 116.255 83.4366 116.584 81.1109L117.57 74.1235C118.541 77.4213 120.443 80.3699 123.048 82.6168C125.653 84.8638 128.852 86.3138 132.26 86.7936L134.039 87.0419C134.344 87.0852 134.655 87.0461 134.939 86.9286C135.224 86.8112 135.472 86.6197 135.657 86.3741Z" fill="#371A45"/>
</g>
<path d="M132.065 104.256C131.847 104.256 131.63 104.24 131.415 104.21C125.942 103.44 120.999 100.531 117.674 96.1223C114.348 91.7137 112.913 86.1668 113.684 80.7018L116.023 64.121C116.405 61.4149 117.316 58.8103 118.706 56.4559C120.096 54.1016 121.936 52.0436 124.122 50.3994C126.309 48.7553 128.798 47.5572 131.448 46.8737C134.098 46.1901 136.857 46.0344 139.567 46.4154C140.17 46.4995 140.751 46.7015 141.275 47.0099C141.8 47.3184 142.259 47.7272 142.625 48.2129C142.992 48.6986 143.259 49.2517 143.41 49.8406C143.562 50.4294 143.597 51.0424 143.511 51.6444L136.652 100.27C136.495 101.374 135.945 102.385 135.102 103.117C134.26 103.849 133.182 104.253 132.065 104.256ZM136.628 52.0588C133.021 52.0683 129.539 53.3755 126.82 55.7407C124.101 58.1059 122.326 61.3705 121.822 64.936L119.494 81.5168C118.969 85.2368 119.865 89.0179 122.004 92.1088C124.142 95.1997 127.367 97.3741 131.038 98.2002L137.542 52.0862C137.231 52.0673 136.93 52.0588 136.628 52.0588Z" fill="#371A45"/>
<path d="M215.873 170.295C262.158 170.295 299.68 132.83 299.68 86.6139C299.68 40.3982 262.158 2.93298 215.873 2.93298C169.587 2.93298 132.065 40.3982 132.065 86.6139C132.065 132.83 169.587 170.295 215.873 170.295Z" fill="white"/>
<path d="M215.891 170.829C209.954 170.826 204.033 170.198 198.229 168.954C152.758 159.236 123.684 114.39 133.41 68.9887C143.137 23.5869 188.053 -5.44642 233.527 4.26846C279.001 13.9833 308.073 58.8338 298.345 104.236C289.872 143.72 254.799 170.829 215.891 170.829ZM215.856 3.45004C177.43 3.45004 142.807 30.2131 134.438 69.2079C124.826 114.045 153.538 158.328 198.441 167.927C243.344 177.525 287.696 148.857 297.315 104.02C306.933 59.1831 278.214 14.8994 233.311 5.30091C227.576 4.07356 221.728 3.45318 215.863 3.45004H215.856Z" fill="#371A45"/>
<g opacity="0.35">
<path opacity="0.35" d="M299.467 92.6355C299.189 96.5009 298.64 100.342 297.826 104.131C288.13 149.321 243.588 178.113 198.33 168.444C153.072 158.775 124.237 114.289 133.92 69.0983C134.198 67.7987 134.506 66.5043 134.844 65.2373C131.83 106.249 159.484 144.234 200.895 153.086C244.852 162.479 288.125 135.591 299.467 92.6355Z" fill="#371A45"/>
</g>
<path d="M215.892 173.229C209.782 173.227 203.689 172.58 197.715 171.3C150.949 161.304 121.046 115.183 131.057 68.487C141.068 21.7909 187.262 -8.06777 234.027 1.92791C280.792 11.9236 310.696 58.0462 300.685 104.742C291.981 145.353 255.908 173.229 215.892 173.229ZM215.863 5.85051C178.546 5.85051 144.913 31.8396 136.793 69.7147C127.46 113.257 155.342 156.263 198.95 165.584C242.558 174.906 285.631 147.064 294.966 103.522C304.302 59.9792 276.411 16.9694 232.803 7.64829C227.235 6.45579 221.557 5.85319 215.863 5.85051Z" fill="#371A45"/>
<path d="M297.111 106.175C293.921 122.239 285.737 136.116 274.356 146.685C265.823 154.609 235.088 165.348 201.037 158.924C169.469 152.967 144.13 130.512 139.272 119.938C132.791 105.831 130.526 89.884 133.721 73.8221C142.164 31.3173 182.237 20.9381 227.352 29.874C272.468 38.8098 305.546 63.6706 297.111 106.175Z" fill="#7758E0"/>
<g opacity="0.5">
<path opacity="0.5" d="M281.718 99.0867C284.719 91.4767 282.674 83.5476 277.152 81.3766C271.629 79.2057 264.72 83.6149 261.719 91.2249C258.719 98.8349 260.763 106.764 266.285 108.935C271.808 111.106 278.717 106.697 281.718 99.0867Z" fill="white"/>
</g>
<g opacity="0.5">
<path opacity="0.5" d="M258.169 124.232C260.016 120.962 259.236 117.028 256.426 115.445C253.616 113.862 249.84 115.23 247.992 118.499C246.145 121.769 246.926 125.703 249.736 127.286C252.546 128.869 256.322 127.501 258.169 124.232Z" fill="white"/>
</g>
<g opacity="0.35">
<path opacity="0.35" d="M289.098 63.3762C297.195 74.8701 300.499 89.1017 297.111 106.181C293.919 122.246 285.733 136.123 274.357 146.694C265.823 154.616 235.089 165.357 201.036 158.933C189.014 156.668 177.9 152.007 168.471 146.516C210.491 153.519 247.965 140.289 258.546 130.459C272.992 117.046 283.379 99.4295 287.424 79.0461C288.468 73.886 289.028 68.6401 289.098 63.3762Z" fill="#111A28"/>
</g>
<path d="M297.486 70.1101C297.104 70.1106 296.725 70.0267 296.379 69.8646C296.032 69.7024 295.726 69.4658 295.482 69.1719L295.255 68.9099L295.101 68.5675C285.167 46.5763 260.742 30.2558 228.086 23.7889C195.25 17.2827 166.394 23.4294 148.912 40.6367L148.711 40.808C148.188 41.2589 147.507 41.4839 146.818 41.4335C146.129 41.3831 145.488 41.0614 145.037 40.5391C144.585 40.0169 144.36 39.337 144.41 38.6489C144.461 37.9608 144.783 37.3209 145.306 36.87C164.041 18.4709 194.578 11.838 229.1 18.6747C263.366 25.4617 289.116 42.8163 299.791 66.2868C300.003 66.6835 300.108 67.1283 300.097 67.5778C300.085 68.0273 299.957 68.4661 299.725 68.8514C299.493 69.2366 299.164 69.5551 298.772 69.7757C298.379 69.9964 297.936 70.1116 297.486 70.1101Z" fill="#371A45"/>
<g opacity="0.5">
<path opacity="0.5" d="M147.046 102.741C147.046 102.741 142.19 58.2002 168.137 45.9719C194.085 33.7435 226.64 40.2583 225.465 42.188C225.465 42.188 187.687 43.7632 167.932 69.4253C152.696 89.2197 147.046 102.741 147.046 102.741Z" fill="white"/>
</g>
<path d="M276.831 359.946C277.975 359.946 278.903 359.02 278.903 357.877C278.903 356.735 277.975 355.809 276.831 355.809C275.687 355.809 274.76 356.735 274.76 357.877C274.76 359.02 275.687 359.946 276.831 359.946Z" fill="#371A45"/>
<g opacity="0.3">
<path opacity="0.3" d="M231.145 263.059C231.145 263.059 259.979 253.02 283.835 277.227C305.758 299.473 280.133 321.423 280.133 321.423C280.133 321.423 288.021 351.737 267.528 355.626C250.128 358.927 234.403 342.134 236.413 321.358C238.066 304.274 241.823 305.866 240.439 296.496C238.872 285.88 216.224 283.499 216.224 283.499H207.705C207.705 283.499 185.056 285.896 183.489 296.496C182.105 305.866 185.862 304.274 187.515 321.358C189.525 342.134 173.797 358.927 156.401 355.626C135.899 351.737 143.795 321.423 143.795 321.423C143.795 321.423 118.17 299.473 140.093 277.227C163.949 253.012 192.783 263.059 192.783 263.059H231.145Z" fill="#371A45"/>
</g>
<path d="M235.206 254.279C235.206 254.279 270.144 233.943 299.05 263.276C325.608 290.231 294.571 316.821 294.571 316.821C294.571 316.821 304.14 353.554 279.296 358.266C258.204 362.264 239.16 341.916 241.595 316.742C243.598 296.042 248.149 297.97 246.472 286.618C244.574 273.763 217.131 270.866 217.131 270.866H206.808C206.808 270.866 179.372 273.762 177.466 286.618C175.789 297.97 180.342 296.035 182.343 316.742C184.78 341.911 165.727 362.264 144.644 358.266C119.801 353.554 129.369 316.821 129.369 316.821C129.369 316.821 98.3198 290.224 124.883 263.269C153.789 233.936 188.727 254.272 188.727 254.272" fill="white"/>
<g opacity="0.35">
<path opacity="0.35" d="M292.703 350.092C290.143 353.931 285.954 357.014 279.292 358.274C258.2 362.274 239.153 341.92 241.589 316.749C243.592 296.047 248.142 297.975 246.468 286.627C244.568 273.772 217.122 270.875 217.122 270.875H206.799C206.799 270.875 179.362 273.768 177.461 286.627C175.78 297.975 180.336 296.044 182.339 316.749C184.776 341.918 165.721 362.274 144.637 358.274C137.975 357.014 133.786 353.931 131.226 350.092C131.409 350.128 131.593 350.164 131.776 350.195C156.889 354.523 179.58 333.049 176.682 305.783C174.292 283.367 168.87 285.456 170.873 273.155C173.133 259.237 205.816 256.102 205.816 256.102H218.113C218.113 256.102 250.796 259.237 253.056 273.155C255.052 285.456 249.627 283.367 247.246 305.783C244.349 333.049 267.04 354.523 292.153 350.195C292.341 350.164 292.513 350.128 292.703 350.092Z" fill="#371A45"/>
</g>
<path d="M234.753 253.501C239.416 250.301 244.605 248.135 250.051 246.653C252.786 245.917 255.574 245.391 258.39 245.081C261.233 244.806 264.094 244.749 266.946 244.91C269.812 245.069 272.657 245.56 275.464 246.201C278.271 246.841 280.989 247.851 283.653 248.94C288.919 251.296 293.745 254.537 298.004 258.318C302.228 262.067 306.046 266.565 308.787 271.765C310.141 274.404 311.161 277.201 311.822 280.091C312.428 283.009 312.623 285.996 312.401 288.967C311.968 294.898 309.929 300.525 307.075 305.493C305.648 307.972 304.031 310.338 302.238 312.568C301.341 313.674 300.42 314.761 299.443 315.801C298.956 316.324 298.46 316.838 297.949 317.342C297.438 317.845 296.944 318.324 296.32 318.87L297.178 316.145C297.673 318.16 298.004 320.019 298.301 321.966C298.598 323.913 298.798 325.837 298.927 327.788C299.221 331.739 299.085 335.712 298.519 339.634C298.207 341.646 297.733 343.63 297.101 345.565C296.423 347.55 295.53 349.454 294.437 351.244C293.268 353.058 291.848 354.697 290.219 356.114C288.549 357.49 286.689 358.618 284.696 359.463C282.741 360.24 280.702 360.788 278.62 361.096C277.607 361.281 276.573 361.329 275.546 361.423C274.517 361.435 273.488 361.495 272.459 361.411C270.395 361.32 268.347 361.01 266.348 360.487C264.351 359.985 262.41 359.283 260.555 358.389C253.115 354.859 247.259 348.674 243.579 341.55C239.893 334.396 238.293 326.267 238.778 318.314C238.889 316.29 239.141 314.436 239.358 312.511L239.769 309.64L240.283 306.769C240.68 304.856 241.107 302.935 241.674 301.05C242.211 299.167 242.887 297.312 243.389 295.655C243.889 294.114 244.138 292.503 244.126 290.883C244.133 290.467 244.118 290.05 244.082 289.635C244.054 289.214 244.035 288.794 243.97 288.356L243.811 287.053C243.728 286.711 243.684 286.389 243.586 286.062C242.818 283.48 240.328 281.198 237.356 279.535C234.385 277.872 230.971 276.624 227.493 275.654C224.002 274.697 220.446 273.994 216.853 273.549L217.136 273.563H206.813L207.098 273.549C203.504 273.993 199.948 274.697 196.456 275.654C192.978 276.619 189.575 277.847 186.593 279.535C183.611 281.223 181.133 283.473 180.365 286.062C180.267 286.389 180.222 286.707 180.138 287.053L179.979 288.356C179.914 288.794 179.895 289.212 179.869 289.635C179.831 290.05 179.815 290.467 179.823 290.883C179.811 292.503 180.061 294.114 180.562 295.655C181.066 297.312 181.741 299.168 182.276 301.05C182.842 302.934 183.269 304.856 183.667 306.769L184.182 309.64L184.591 312.511C184.807 314.436 185.06 316.29 185.171 318.314C185.66 326.267 184.062 334.396 180.37 341.55C176.688 348.674 170.83 354.859 163.393 358.389C161.539 359.282 159.599 359.985 157.603 360.487C155.604 361.01 153.554 361.32 151.49 361.411C150.461 361.495 149.432 361.435 148.403 361.423C147.374 361.329 146.345 361.281 145.328 361.096C143.247 360.788 141.208 360.24 139.253 359.463C137.26 358.617 135.4 357.489 133.73 356.114C132.101 354.697 130.681 353.058 129.511 351.244C128.419 349.454 127.526 347.549 126.848 345.565C126.217 343.629 125.743 341.646 125.43 339.634C124.864 335.712 124.727 331.739 125.022 327.788C125.151 325.834 125.36 323.894 125.648 321.966C125.945 320.018 126.276 318.158 126.771 316.145L127.629 318.87C127.004 318.324 126.523 317.859 126 317.342C125.477 316.824 124.993 316.314 124.506 315.801C123.529 314.761 122.608 313.674 121.711 312.568C119.919 310.337 118.302 307.972 116.874 305.493C114.025 300.528 111.973 294.9 111.558 288.967C111.345 285.998 111.55 283.013 112.167 280.1C112.83 277.215 113.851 274.423 115.207 271.791C117.98 266.62 121.814 262.163 126.055 258.455C130.3 254.688 135.076 251.409 140.33 249.051C145.553 246.654 151.222 245.113 156.963 244.699C159.826 244.506 162.699 244.542 165.556 244.807C168.388 245.099 171.193 245.608 173.948 246.327C176.673 247.072 179.332 248.036 181.901 249.211C184.459 250.401 186.899 251.746 189.177 253.491C189.35 253.622 189.47 253.81 189.516 254.022C189.562 254.234 189.53 254.456 189.426 254.646C189.322 254.837 189.154 254.984 188.95 255.061C188.747 255.137 188.523 255.139 188.319 255.065L188.263 255.046C183.261 253.309 178.12 252 172.895 251.135C170.323 250.707 167.723 250.473 165.144 250.305C163.851 250.289 162.56 250.212 161.276 250.269C160.633 250.288 159.988 250.286 159.347 250.318L157.426 250.457C152.312 250.872 147.298 252.107 142.578 254.114C140.214 255.131 137.944 256.352 135.793 257.763C133.618 259.167 131.559 260.744 129.638 262.478C125.694 265.92 122.363 269.871 119.986 274.292C118.845 276.495 117.981 278.83 117.414 281.244C116.906 283.655 116.738 286.125 116.913 288.582C117.256 293.515 118.988 298.377 121.533 302.815C122.821 305.049 124.278 307.18 125.893 309.19C126.708 310.195 127.546 311.185 128.429 312.125C128.87 312.597 129.318 313.061 129.772 313.511C130.227 313.962 130.714 314.427 131.113 314.777L132.368 315.876L131.969 317.502C131.567 319.141 131.226 320.988 130.962 322.759C130.698 324.529 130.501 326.354 130.383 328.15C130.115 331.707 130.234 335.283 130.738 338.814C131.004 340.521 131.405 342.204 131.938 343.848C132.477 345.425 133.185 346.941 134.049 348.368C134.925 349.719 135.983 350.942 137.194 352.004C138.437 353.02 139.818 353.856 141.295 354.487C142.845 355.096 144.459 355.525 146.107 355.768C146.947 355.927 147.801 355.956 148.648 356.04C149.506 356.04 150.351 356.103 151.2 356.028C152.902 355.955 154.592 355.7 156.239 355.266C157.899 354.851 159.512 354.267 161.053 353.523C167.269 350.58 172.343 345.294 175.553 339.079C178.763 332.864 180.183 325.69 179.756 318.633C179.665 316.898 179.413 315.022 179.21 313.208L178.823 310.495L178.35 307.81C177.979 306.039 177.592 304.286 177.074 302.565C176.556 300.845 175.963 299.141 175.359 297.208C174.71 295.159 174.384 293.022 174.394 290.873C174.378 290.334 174.416 289.82 174.45 289.303C174.485 288.786 174.51 288.265 174.582 287.774L174.768 286.276C174.882 285.704 174.989 285.089 175.162 284.517C175.867 282.194 177.239 280.208 178.792 278.65C180.346 277.092 182.103 275.873 183.888 274.852C187.47 272.83 191.221 271.508 194.99 270.457C198.767 269.419 202.616 268.66 206.504 268.187L206.626 268.171H217.271L217.395 268.187C221.283 268.66 225.131 269.419 228.908 270.457C232.68 271.508 236.427 272.83 240.011 274.852C241.794 275.88 243.545 277.078 245.105 278.65C246.666 280.222 248.031 282.194 248.736 284.517C248.907 285.089 249.017 285.704 249.13 286.276L249.315 287.774C249.387 288.265 249.415 288.786 249.447 289.303C249.48 289.82 249.519 290.33 249.504 290.873C249.513 293.022 249.188 295.159 248.538 297.208C247.942 299.15 247.326 300.829 246.824 302.565C246.321 304.302 245.918 306.039 245.55 307.81L245.075 310.495L244.687 313.208C244.483 315.022 244.233 316.898 244.142 318.633C243.708 325.69 245.133 332.844 248.346 339.079C251.56 345.315 256.629 350.58 262.845 353.523C264.385 354.267 265.998 354.851 267.658 355.266C269.306 355.7 270.995 355.955 272.698 356.028C273.546 356.103 274.399 356.044 275.249 356.04C276.096 355.956 276.95 355.927 277.791 355.768C279.438 355.526 281.052 355.096 282.602 354.487C284.08 353.855 285.461 353.02 286.706 352.004C287.915 350.942 288.973 349.718 289.849 348.368C290.712 346.941 291.42 345.425 291.96 343.848C292.493 342.204 292.895 340.521 293.16 338.814C293.664 335.283 293.784 331.707 293.517 328.15C293.397 326.351 293.203 324.555 292.935 322.759C292.668 320.963 292.332 319.141 291.929 317.502L291.529 315.876L292.784 314.777C293.184 314.434 293.685 313.951 294.125 313.511C294.566 313.071 295.029 312.597 295.468 312.125C296.351 311.185 297.183 310.195 298.004 309.19C299.619 307.18 301.077 305.049 302.365 302.815C304.906 298.377 306.652 293.517 306.976 288.58C307.141 286.125 306.963 283.659 306.446 281.252C305.871 278.846 305 276.52 303.853 274.327C301.453 269.937 298.083 266.041 294.146 262.617C290.296 259.201 285.963 256.37 281.285 254.217C276.599 252.117 271.603 250.787 266.492 250.279C261.367 249.747 256.13 249.995 250.943 250.834C245.706 251.687 240.576 253.101 235.642 255.049L235.58 255.073C235.374 255.155 235.145 255.159 234.936 255.083C234.728 255.007 234.555 254.857 234.45 254.661C234.345 254.466 234.316 254.239 234.369 254.024C234.421 253.808 234.552 253.62 234.735 253.495L234.753 253.501Z" fill="#371A45"/>
<path d="M295.6 319.335L293.741 319.925C293.055 320.119 292.369 320.297 291.67 320.429C290.298 320.703 288.906 320.861 287.508 320.903C284.804 320.968 282.101 320.704 279.461 320.117C276.908 319.517 274.41 318.705 271.993 317.689C270.792 317.215 269.64 316.607 268.472 316.076C267.33 315.482 266.209 314.854 265.084 314.249C266.303 314.65 267.509 315.069 268.721 315.448C269.957 315.763 271.165 316.153 272.406 316.402C274.845 316.954 277.326 317.303 279.822 317.443C282.241 317.548 284.663 317.36 287.036 316.883C288.175 316.646 289.292 316.313 290.375 315.888C290.908 315.684 291.424 315.446 291.935 315.203L293.607 314.323C293.924 314.139 294.274 314.021 294.638 313.976C295.001 313.93 295.37 313.959 295.722 314.06C296.075 314.161 296.403 314.332 296.687 314.562C296.971 314.793 297.206 315.079 297.376 315.402C297.547 315.726 297.651 316.08 297.681 316.445C297.711 316.809 297.667 317.176 297.551 317.523C297.435 317.87 297.25 318.19 297.008 318.464C296.765 318.738 296.469 318.96 296.138 319.117C296.001 319.189 295.858 319.25 295.711 319.299L295.6 319.335Z" fill="#371A45"/>
<path d="M130.601 314.319L132.275 315.2C132.789 315.448 133.304 315.686 133.834 315.884C134.916 316.31 136.033 316.642 137.172 316.879C139.545 317.357 141.968 317.545 144.386 317.439C146.884 317.299 149.365 316.951 151.804 316.398C153.044 316.15 154.251 315.759 155.488 315.444C156.7 315.064 157.906 314.645 159.125 314.246C158 314.85 156.88 315.479 155.736 316.073C154.569 316.603 153.421 317.211 152.216 317.686C149.799 318.702 147.301 319.514 144.748 320.113C142.108 320.7 139.405 320.964 136.701 320.899C135.303 320.858 133.912 320.699 132.541 320.425C131.845 320.293 131.154 320.115 130.468 319.922L128.611 319.331L128.513 319.3C128.171 319.194 127.854 319.021 127.58 318.791C127.305 318.562 127.079 318.281 126.913 317.964C126.748 317.647 126.647 317.301 126.617 316.945C126.586 316.589 126.626 316.23 126.734 315.89C126.843 315.549 127.017 315.233 127.248 314.96C127.479 314.688 127.762 314.463 128.081 314.3C128.399 314.136 128.746 314.037 129.103 314.008C129.46 313.979 129.818 314.021 130.159 314.131C130.311 314.182 130.459 314.245 130.601 314.319Z" fill="#371A45"/>
<path d="M308.586 297.186C308.284 297.185 307.986 297.117 307.714 296.987C307.442 296.856 307.202 296.667 307.012 296.433C306.822 296.199 306.687 295.925 306.616 295.632C306.546 295.339 306.541 295.034 306.603 294.739C307.536 290.388 306.857 287.303 304.525 285.307C294.857 277.023 260.113 287.604 247.544 292.381C247.041 292.572 246.484 292.556 245.994 292.336C245.504 292.117 245.121 291.712 244.93 291.21C244.739 290.709 244.755 290.152 244.975 289.663C245.195 289.174 245.601 288.792 246.103 288.601C250.959 286.755 293.933 270.9 307.162 282.235C310.676 285.245 311.82 289.736 310.565 295.59C310.467 296.042 310.217 296.446 309.857 296.737C309.497 297.027 309.048 297.186 308.586 297.186Z" fill="#371A45"/>
<path d="M116.157 297.186C115.695 297.185 115.246 297.026 114.886 296.736C114.526 296.446 114.277 296.041 114.178 295.59C112.923 289.74 114.069 285.248 117.58 282.235C130.812 270.9 173.785 286.755 178.641 288.601C178.89 288.695 179.118 288.838 179.311 289.02C179.505 289.203 179.66 289.421 179.769 289.664C179.878 289.906 179.938 290.167 179.945 290.433C179.953 290.698 179.908 290.963 179.814 291.211C179.719 291.459 179.576 291.687 179.393 291.88C179.211 292.073 178.992 292.228 178.749 292.337C178.506 292.446 178.245 292.505 177.979 292.513C177.713 292.521 177.448 292.476 177.199 292.381C164.627 287.606 129.872 277.027 120.219 285.307C117.887 287.305 117.208 290.39 118.141 294.739C118.203 295.034 118.199 295.339 118.128 295.632C118.057 295.926 117.922 296.199 117.732 296.434C117.542 296.668 117.302 296.857 117.03 296.987C116.757 297.117 116.459 297.185 116.157 297.186Z" fill="#371A45"/>
</g>
<defs>
<clipPath id="clip0">
<rect width="434" height="556" fill="white"/>
</clipPath>
</defs>
</svg>
